<svg width="1465" height="279" viewBox="0 0 1465 279" fill="none" xmlns="http://www.w3.org/2000/svg">
<path d="M1248.51 154.624V139.5H1190.47C1192.07 137.562 1193.68 135.625 1195.26 133.687C1209.9 115.829 1223.69 97.6279 1233.68 77.8543C1242.31 60.7821 1247.51 43.245 1247.93 25.0657H1247.97V0H1245.66H1232.57H1179.94H1116.67H979.068V105.256V124.376V139.5H1034.28C1021.32 155.476 1009.07 171.74 999.703 189.211C999.093 190.351 998.472 191.558 997.862 192.798C996.299 195.555 994.78 198.334 993.361 201.146C984.734 218.218 979.534 235.755 979.113 253.934H979.068V279H981.386H1032.67H1047.1H1110.37H1247.97H1248.51V154.624Z" fill="#396941"/>
<path d="M375.882 0V0.0442857C351.755 0.487143 328.47 5.87893 305.806 14.8357C279.561 25.1986 255.4 39.5139 231.694 54.6929C207.245 70.3589 183.007 86.3571 158.303 101.591C137.025 114.722 114.827 126.502 90.5555 132.702C69.2001 138.16 18.4504 140.031 0 139.555V279C0 279 73.8127 278.956 92.2631 276.155C111.833 273.187 139.731 265.227 157.981 257.588C183.129 247.048 206.381 232.998 229.299 218.329C242.694 209.748 256.032 201.068 269.427 192.488V224.097H409.135V136.234V70.5914V2.4025V0H375.882Z" fill="#FF5936"/>
<path d="M645.32 0V0.0442857C621.192 0.487143 597.908 5.87893 575.244 14.8357C548.999 25.1986 524.838 39.5139 501.132 54.6929C476.683 70.3589 452.445 86.3571 427.741 101.591C406.463 114.722 384.265 126.502 359.993 132.702C338.638 138.16 287.888 140.031 269.438 139.555V279C269.438 279 343.25 278.956 361.701 276.155C381.271 273.187 409.168 265.227 427.419 257.588C452.567 247.048 475.818 232.998 498.737 218.329C512.131 209.748 525.47 201.068 538.864 192.488V224.097H678.573V136.234V70.5914V2.4025V0H645.32Z" fill="#FF5936"/>
<path d="M914.757 0V0.0442857C890.63 0.487143 867.345 5.87893 844.681 14.8357C818.436 25.1986 794.275 39.5139 770.569 54.6929C746.12 70.3589 721.882 86.3571 697.178 101.591C675.9 114.722 653.702 126.502 629.43 132.702C608.075 138.16 557.325 140.031 538.875 139.555V279C538.875 279 612.688 278.956 631.138 276.155C650.708 273.188 678.606 265.227 696.856 257.588C722.004 247.048 745.255 232.998 768.174 218.329C781.569 209.748 794.907 201.068 808.302 192.488V279H948.01V136.234V70.5914V2.4025V0H914.757Z" fill="#FF5936"/>
<path d="M1378.38 198.577C1359.98 180.176 1330.15 180.176 1311.76 198.577C1293.36 216.977 1293.36 246.807 1311.76 265.2C1330.16 283.6 1359.99 283.6 1378.38 265.2C1396.78 246.807 1396.78 216.977 1378.38 198.577Z" fill="#FFE053"/>
</svg>
