<svg width="100" height="100" viewBox="0 0 100 100" fill="none" xmlns="http://www.w3.org/2000/svg">
<g clip-path="url(#clip0_625_1792)">
<path fill-rule="evenodd" clip-rule="evenodd" d="M82.6623 17.842C85.954 21.1378 87.579 24.9711 87.4957 29.1753C87.4248 33.1795 85.8082 37.067 83.5873 40.692C80.629 45.5336 76.1082 50.642 71.054 55.8795L68.254 58.7503L65.379 61.642L60.0873 66.9253L57.004 69.967C51.3707 75.4545 45.879 80.4128 40.6915 83.5878C37.0665 85.8086 33.179 87.4212 29.1748 87.5003C24.9707 87.5836 21.1373 85.9586 17.8415 82.6628C12.8957 77.717 10.7748 68.7253 12.0207 59.142C13.2415 49.742 17.7332 39.1295 26.8748 29.4753L28.2207 28.092C38.2082 18.1336 49.3332 13.2961 59.1373 12.0211C68.7248 10.7753 77.7165 12.8961 82.6623 17.842ZM76.7707 23.7378C74.3498 21.317 68.404 19.2212 60.2123 20.2837C58.4207 20.517 56.5498 20.9003 54.629 21.4545C55.7123 22.7045 57.129 23.6003 58.9373 24.2045C59.463 24.3722 59.9502 24.6427 60.3705 25.0002C60.7909 25.3577 61.136 25.7952 61.3859 26.2872C61.6358 26.7792 61.7854 27.3159 61.8262 27.8662C61.867 28.4165 61.798 28.9695 61.6234 29.4929C61.4487 30.0163 61.1718 30.4999 60.8087 30.9154C60.4457 31.331 60.0037 31.6703 59.5084 31.9137C59.0132 32.157 58.4745 32.2996 57.9237 32.333C57.3729 32.3665 56.8209 32.2902 56.2998 32.1086C52.0915 30.7086 48.8498 28.1836 46.6832 24.6545C42.8947 26.6499 39.3748 29.1182 36.2082 32.0003C36.8707 32.9878 37.7582 34.0836 38.8332 35.1586C40.5998 36.9211 42.4082 38.1836 43.7332 38.7545L44.204 38.9378C45.2527 39.287 46.1197 40.0385 46.6144 41.027C47.109 42.0155 47.1907 43.1599 46.8415 44.2086C46.4923 45.2574 45.7408 46.1244 44.7523 46.619C43.7638 47.1137 42.6194 47.1954 41.5707 46.8461C38.4957 45.8211 35.379 43.4836 32.9457 41.0503C32.021 40.128 31.1554 39.1482 30.354 38.117C27.7026 41.3158 25.4707 44.8401 23.7123 48.6045C24.8415 51.1211 26.6957 52.7461 29.4748 53.6711C30.5093 54.0316 31.3602 54.785 31.8433 55.7683C32.3265 56.7515 32.4029 57.8854 32.0561 58.9246C31.7094 59.9638 30.9673 60.8246 29.9906 61.3207C29.0138 61.8168 27.881 61.9083 26.8373 61.5753C24.5599 60.8398 22.4482 59.6664 20.6207 58.1211C20.4873 58.8295 20.3707 59.5295 20.2873 60.217C19.2207 68.4086 21.3165 74.3545 23.7373 76.7753C25.5957 78.6337 27.304 79.2045 29.0165 79.1711C30.9248 79.1336 33.3207 78.3336 36.3415 76.4837C40.3082 74.0587 44.6248 70.2961 49.3957 65.7336L52.0415 63.1628L56.1873 59.0503L61.8207 53.4045L64.4623 50.7128C69.5998 45.4211 73.8332 40.6711 76.479 36.3461C78.329 33.3253 79.129 30.9295 79.1665 29.0211C79.1998 27.3128 78.629 25.6045 76.7707 23.742V23.7378Z" fill="#396941"/>
</g>
<defs>
<clipPath id="clip0_625_1792">
<rect width="100" height="100" fill="white"/>
</clipPath>
</defs>
</svg>
