<svg width="235" height="174" viewBox="0 0 235 174" fill="none" xmlns="http://www.w3.org/2000/svg">
<path d="M190.565 136.754C190.915 136.611 191.278 136.469 191.629 136.326C192.446 135.975 193.264 135.612 194.055 135.222C194.263 135.118 194.483 135.028 194.691 134.924C194.782 134.872 194.873 134.833 194.976 134.781C218.515 123.227 234.735 99.015 234.735 70.9995C234.735 31.7933 202.97 0 163.769 0H70.9655C31.7652 0 -0.0129341 31.7933 4.18833e-05 71.0125C4.18833e-05 110.206 31.7652 141.999 70.9655 141.999L52.241 174L177.264 140.714C181.43 139.909 185.465 138.74 189.332 137.247C189.747 137.092 190.162 136.923 190.578 136.754H190.565Z" fill="#396941"/>
<g clip-path="url(#clip0_1079_7563)">
<path d="M159.602 40.5433C159.238 42.0157 158.975 43.555 158.48 44.9772C157.474 47.8718 155.797 50.2477 153.756 52.2722C153.216 52.8076 152.983 53.3598 152.983 54.1964C153.012 64.8043 153.012 75.3955 152.983 86.0035C152.983 90.0191 151.423 93.0141 148.303 94.8713C147.064 95.6075 145.723 95.8585 144.323 95.8585C132.936 95.8585 121.55 95.8585 110.178 95.8585C103.602 95.8585 97.027 95.8585 90.4662 95.8585C85.2759 95.8585 81.733 91.7759 81.733 85.8027C81.733 75.4792 81.7185 65.1724 81.7622 54.8489C81.7622 53.5773 81.4706 52.724 80.6104 51.8707C78.4089 49.6621 76.7323 46.9683 75.8283 43.739C74.4287 38.8533 75.1868 34.319 77.6945 30.1528C80.4209 25.6185 84.2699 22.6905 88.5854 20.5153C94.3735 17.5873 100.482 16.3658 106.781 16.3157C113.487 16.2822 120.194 16.3157 126.915 16.3157C132.849 16.3157 138.637 17.3028 144.192 19.7457C148.289 21.536 152.05 23.9621 155.141 27.6096C157.401 30.27 158.961 33.3486 159.457 37.0798C159.471 37.2304 159.544 37.381 159.588 37.5148V40.5433H159.602ZM106.956 92.0604C112.394 92.0604 117.847 92.0604 123.285 92.0604C126.944 92.0604 128.912 89.7849 128.912 85.5517C128.912 74.6091 128.912 63.6498 128.912 52.7073C128.912 51.6699 129.233 50.9337 129.918 50.2811C130.808 49.4446 131.668 48.541 132.441 47.5706C136.421 42.5678 136.508 36.1763 132.718 31.0396C129.991 27.3586 126.478 24.966 122.599 23.343C112.219 18.9927 101.78 18.976 91.3993 23.343C87.3462 25.0329 83.6867 27.5259 80.9603 31.4746C78.6859 34.7541 77.8111 38.4351 78.9483 42.5511C79.794 45.5963 81.4852 47.9889 83.643 49.913C84.6781 50.85 85.0718 51.8539 85.0718 53.3598C85.028 64.1518 85.0426 74.9438 85.0426 85.7358C85.0426 89.7681 87.0546 92.0771 90.5682 92.0771C96.0356 92.0771 101.503 92.0771 106.985 92.0771L106.956 92.0604ZM124.961 20.0134C124.961 20.1138 124.947 20.1974 124.932 20.2978C125.705 20.7161 126.478 21.1177 127.236 21.5527C130.487 23.4434 133.388 25.8528 135.634 29.1824C138.71 33.7334 139.687 38.7697 137.952 44.2912C136.931 47.5037 135.138 50.1306 132.893 52.3392C132.397 52.8244 132.193 53.3263 132.193 54.1127C132.222 64.6872 132.193 75.245 132.207 85.8194C132.207 87.4926 131.974 89.0821 131.333 90.588C131.128 91.0565 130.881 91.5082 130.604 92.0771H131.522C135.706 92.0771 139.876 92.0771 144.061 92.0771C147.735 92.0771 149.703 89.8016 149.703 85.5852C149.703 74.6426 149.703 63.6833 149.703 52.7407C149.703 51.7033 150.009 50.9672 150.709 50.2979C151.598 49.4613 152.458 48.5578 153.231 47.5873C157.24 42.5678 157.328 36.3603 153.508 31.1567C151.292 28.1617 148.478 26.1037 145.416 24.464C140.984 22.0881 136.304 20.8165 131.449 20.348C129.306 20.1472 127.134 20.1305 124.991 20.0301L124.961 20.0134Z" fill="#FFE053"/>
<path d="M118.153 48.9926C117.788 49.6953 117.613 50.2809 117.278 50.6825C111.198 57.6931 105.104 64.7037 98.9953 71.6808C98.1789 72.6011 97.1875 72.668 96.5022 71.9151C95.8024 71.1454 95.8461 69.9407 96.6772 68.987C102.742 62.0099 108.837 55.0327 114.902 48.0556C115.47 47.403 116.17 47.0015 116.899 47.4532C117.395 47.7544 117.701 48.4237 118.153 49.0093V48.9926Z" fill="#FFE053"/>
<path d="M104.156 48.9932C103.792 49.6959 103.617 50.2815 103.281 50.6831C101.094 53.2431 98.8783 55.7863 96.6622 58.3128C95.8312 59.2665 94.8835 59.3334 94.1837 58.547C93.4547 57.7606 93.4984 56.6061 94.344 55.6357C96.5455 53.0925 98.7616 50.566 100.978 48.0227C101.532 47.3869 102.217 47.0523 102.902 47.4706C103.398 47.7718 103.719 48.441 104.171 49.0099L104.156 48.9932Z" fill="#FFE053"/>
<path d="M120.486 62.3944C120.136 63.0804 119.975 63.6493 119.655 64.0342C117.453 66.6276 115.208 69.1708 112.977 71.714C112.175 72.6343 111.155 72.6677 110.484 71.8981C109.799 71.1117 109.843 69.9907 110.644 69.0537C112.86 66.477 115.091 63.917 117.336 61.3738C117.876 60.7547 118.576 60.3866 119.261 60.8718C119.742 61.2065 120.063 61.859 120.486 62.4112V62.3944Z" fill="#FFE053"/>
<path d="M108.603 43.7558C108.617 44.7429 107.874 45.6465 106.999 45.6632C106.124 45.6799 105.352 44.8266 105.322 43.8394C105.308 42.8523 106.066 41.9487 106.926 41.9153C107.772 41.8985 108.574 42.7686 108.588 43.7558H108.603Z" fill="#FFE053"/>
<path d="M106.999 77.8048C106.154 77.8383 105.352 76.9515 105.323 75.9643C105.293 74.9771 106.052 74.0736 106.926 74.0569C107.801 74.0402 108.574 74.8935 108.603 75.8806C108.618 76.8678 107.859 77.7713 106.999 77.8048Z" fill="#FFE053"/>
<path d="M139.803 71.7312C139.803 67.1299 139.818 62.5287 139.803 57.9107C139.803 56.9068 140.036 56.087 140.634 55.3508C143.259 52.0211 145.139 48.2063 145.941 43.7891C146.204 42.3502 146.291 40.861 146.408 39.3887C146.51 37.9999 147.122 37.1466 148.099 37.1633C149.105 37.1801 149.746 38.117 149.717 39.5392C149.557 45.9475 147.618 51.6028 144.09 56.522C143.404 57.4757 143.098 58.3959 143.113 59.6508C143.157 68.3012 143.142 76.9348 143.142 85.5851C143.142 87.3085 142.588 88.2287 141.524 88.2454C140.43 88.2622 139.847 87.3252 139.847 85.5516C139.847 80.9504 139.847 76.3491 139.847 71.7312H139.803Z" fill="#FFE053"/>
</g>
<defs>
<clipPath id="clip0_1079_7563">
<rect width="84.4738" height="79.5429" fill="white" transform="translate(75.1284 16.2988)"/>
</clipPath>
</defs>
</svg>
