<svg width="235" height="174" viewBox="0 0 235 174" fill="none" xmlns="http://www.w3.org/2000/svg">
<path d="M190.565 136.754C190.915 136.611 191.278 136.469 191.629 136.326C192.446 135.975 193.264 135.612 194.055 135.222C194.263 135.118 194.483 135.028 194.691 134.924C194.782 134.872 194.873 134.833 194.976 134.781C218.515 123.227 234.735 99.015 234.735 70.9995C234.735 31.7933 202.97 0 163.769 0H70.9655C31.7652 0 -0.0129341 31.7933 4.18833e-05 71.0125C4.18833e-05 110.206 31.7652 141.999 70.9655 141.999L52.241 174L177.264 140.714C181.43 139.909 185.465 138.74 189.332 137.247C189.747 137.092 190.162 136.923 190.578 136.754H190.565Z" fill="#396941"/>
<g clip-path="url(#clip0_1083_7564)">
<path d="M151.786 30.1201C150.239 21.0667 142.34 15.1201 133.135 16.1067C124.302 17.0534 117.551 25.4534 118.552 34.2801C118.645 35.0667 118.765 35.8534 118.872 36.6934C116.244 36.6934 113.682 36.6934 111.121 36.6667C110.934 36.6667 110.64 36.3201 110.587 36.0934C109.586 32.1867 108.599 28.2801 107.625 24.3601C107.291 22.9867 106.531 22.0267 105.21 21.5067C101.047 19.8267 96.8582 18.1467 92.6688 16.4801C91.6949 16.0934 91.1746 16.3334 90.7743 17.3334C90.2273 18.6401 89.707 19.9334 89.2 21.2401C88.7864 22.2801 88.9998 22.7601 90.0538 23.1867C93.5094 24.5734 96.9782 25.9467 100.434 27.3601C100.727 27.4801 101.047 27.8401 101.141 28.1467C101.528 29.4934 101.835 30.8667 102.182 32.2267C102.542 33.6801 102.915 35.1334 103.302 36.6801C101.808 36.6801 100.434 36.6667 99.0596 36.6801C98.2057 36.6801 97.7521 37.0534 97.7387 37.8001C97.712 40.4267 97.712 43.0667 97.7387 45.6934C97.7387 46.3601 98.1523 46.7467 98.8194 46.8134C99.4465 46.8667 99.9535 46.4401 100.047 45.7601C100.074 45.5334 100.074 45.2934 100.074 45.0534C100.074 43.3334 100.074 41.6134 100.074 39.8934C100.074 39.6134 100.1 39.3467 100.114 39.0134C101.168 39.0134 102.128 39.0401 103.102 39.0134C103.703 38.9867 103.956 39.1467 104.103 39.7734C104.997 43.5201 105.957 47.2401 106.891 50.9867C107.211 52.2401 107.518 53.4934 107.852 54.8134C106.611 54.8134 105.49 54.8134 104.37 54.8134C103.289 54.8134 102.915 55.2001 102.915 56.2801C102.915 59.6667 102.915 63.0534 102.915 66.4401C102.915 67.1867 102.995 67.9467 103.102 68.6934C104.223 76.1601 111.828 81.6001 119.272 80.2667C126.384 78.9867 131.16 73.3467 131.2 66.1334C131.213 62.9334 131.2 59.7201 131.2 56.5201C131.2 55.1067 130.906 54.8134 129.506 54.8134C125.009 54.8134 120.513 54.8134 116.03 54.8134C115.457 54.8134 115.23 54.6534 115.096 54.0801C113.922 49.2801 112.708 44.4934 111.507 39.6934C111.454 39.5067 111.441 39.3067 111.401 39.0801H134.055V39.9067C134.055 48.6134 134.055 57.3067 134.055 66.0134C134.055 66.9734 133.988 67.9467 133.842 68.8934C132.094 80.8534 118.285 87.2001 108.079 80.6934C102.769 77.3067 100.114 72.3734 100.074 66.0934C100.047 60.9601 100.074 55.8267 100.074 50.6934C100.074 49.7067 99.6333 49.1867 98.8594 49.2134C98.1256 49.2267 97.7254 49.7201 97.7254 50.6801C97.7254 56.1201 97.5786 61.5734 97.7787 67.0134C98.0456 74.3734 101.635 79.8534 108.092 83.3867C109.693 84.2667 111.494 84.7734 113.242 85.4667V88.4934C110.974 88.4934 108.759 88.4667 106.544 88.4934C103.569 88.5467 100.967 90.8134 100.487 93.7467C100.354 94.5867 100.3 95.4001 101.088 96.0001H133.068C133.802 95.5601 133.922 94.8934 133.815 94.1067C133.348 90.7734 130.76 88.5067 127.358 88.4801C125.476 88.4667 123.595 88.4801 121.714 88.4801H120.913V85.2667C121.247 85.1867 121.527 85.1201 121.807 85.0534C129.812 83.1467 136.056 75.7867 136.35 67.6134C136.55 62.1734 136.43 56.7201 136.443 51.2801C136.443 50.0356 137.057 49.3112 138.284 49.1067C147.05 47.6401 153.307 38.8534 151.826 30.1201H151.786ZM128.772 57.2134C128.798 57.3867 128.838 57.5334 128.838 57.6801C128.838 60.6534 128.892 63.6267 128.825 66.5867C128.705 72.4667 124.142 77.4801 118.499 78.0267C112.268 78.6267 106.918 74.8934 105.544 68.9334C105.37 68.1734 105.277 67.3867 105.263 66.6134C105.237 63.6667 105.25 60.7201 105.25 57.7867C105.25 57.6134 105.277 57.4401 105.29 57.2134H128.772V57.2134ZM112.855 54.8134C112.041 54.8134 111.347 54.8401 110.654 54.8001C110.48 54.8001 110.227 54.5867 110.187 54.4267C109.213 50.5601 103.983 29.7201 103.436 27.4801C103.436 27.4801 103.022 25.8401 100.594 24.8667C100.581 24.8667 100.567 24.8667 100.554 24.8534C97.672 23.7201 94.8035 22.5601 91.9217 21.4134C91.8817 21.4001 91.855 21.3467 91.7482 21.2267C92.0284 20.5334 92.3353 19.8001 92.6555 19.0134C96.0843 20.3734 99.4465 21.7201 102.915 23.1067C102.915 23.1067 103.209 23.2001 103.596 23.3734C103.622 23.3734 103.636 23.3867 103.662 23.4001C103.929 23.5201 104.223 23.6801 104.516 23.8934C104.81 24.1067 105.13 24.3334 105.357 24.8534C105.584 25.3734 105.717 26.2001 105.797 26.6134C106.651 30.0401 111.854 50.7734 112.855 54.8134V54.8134ZM127.424 90.8267C129.252 90.8267 130.746 91.9467 131.187 93.6001H102.969C103.476 91.9067 104.917 90.8401 106.731 90.8267C109.706 90.8134 112.695 90.8267 115.67 90.8267V85.6401H118.405V90.8267C121.407 90.8267 124.409 90.8267 127.398 90.8267H127.424ZM129.746 36.4267C129.452 36.6934 128.825 36.6667 128.358 36.6667C126.797 36.6934 126.784 36.6801 126.37 35.1734C125.583 32.2534 126.117 29.5734 127.865 27.1601C129.759 29.0534 131.6 30.8801 133.468 32.7601C132.267 33.9601 131.053 35.2401 129.746 36.4267V36.4267ZM138.084 28.1734C137.164 29.0934 136.257 30.0267 135.416 30.8667C133.521 28.9867 131.68 27.1334 129.826 25.2934C132.387 22.8667 137.684 22.8401 140.819 25.4401C139.899 26.3601 138.992 27.2534 138.084 28.1734ZM142.594 27.2267C145.075 30.2134 145.062 35.3867 142.54 38.1601C140.713 36.3201 138.885 34.4801 137.11 32.6934C138.898 30.9067 140.753 29.0667 142.594 27.2267ZM136.403 39.1201C136.403 38.7067 136.403 38.2934 136.39 37.8801C136.35 37.1467 135.936 36.7334 135.203 36.7067C134.509 36.6801 133.815 36.7067 132.974 36.7067C133.815 35.8667 134.509 35.1734 135.176 34.5067C136.977 36.3334 138.805 38.1867 140.673 40.0667C139.539 40.9601 138.124 41.5201 136.417 41.7867C136.417 40.8667 136.417 40.0001 136.417 39.1334L136.403 39.1201ZM149.625 33.2934C149.345 40.1067 144.075 45.9467 137.337 46.8934C137.084 46.9334 136.817 46.9334 136.483 46.9601V44.1734C140.499 43.5601 143.608 41.5601 145.516 37.9067C146.917 35.2267 147.157 32.4001 146.343 29.4934C144.675 23.6267 138.685 20.1467 132.628 21.4401C127.251 22.5867 121.741 28.7467 124.302 36.6934C123.408 36.6934 122.608 36.7334 121.807 36.6667C121.607 36.6534 121.327 36.3201 121.274 36.0934C120.073 30.8267 121.38 26.2267 125.196 22.4134C129.412 18.2267 135.709 17.1601 141.153 19.5867C146.49 21.9601 149.878 27.4401 149.638 33.3067L149.625 33.2934Z" fill="#FFE053"/>
</g>
<defs>
<clipPath id="clip0_1083_7564">
<rect width="63" height="80" fill="white" transform="translate(89 16)"/>
</clipPath>
</defs>
</svg>
