<svg width="235" height="174" viewBox="0 0 235 174" fill="none" xmlns="http://www.w3.org/2000/svg">
<path d="M190.565 136.754C190.915 136.611 191.278 136.469 191.629 136.326C192.446 135.975 193.264 135.612 194.055 135.222C194.263 135.118 194.483 135.028 194.691 134.924C194.782 134.872 194.873 134.833 194.976 134.781C218.515 123.227 234.735 99.015 234.735 70.9995C234.735 31.7933 202.97 0 163.769 0H70.9655C31.7652 0 -0.0129341 31.7933 4.18833e-05 71.0125C4.18833e-05 110.206 31.7652 141.999 70.9655 141.999L52.241 174L177.264 140.714C181.43 139.909 185.465 138.74 189.332 137.247C189.747 137.092 190.162 136.923 190.578 136.754H190.565Z" fill="#FFE053"/>
<g clip-path="url(#clip0_724_7456)">
<path d="M159.602 31.789C159.122 32.2941 158.643 32.8273 158.149 33.3184C152.084 39.3518 146.019 45.3852 139.954 51.4186C136.766 54.5897 133 55.642 128.628 54.4914C128.402 54.4353 128.021 54.4493 127.894 54.5897C126.329 56.3015 124.791 58.0413 123.183 59.8373C124.481 60.9879 125.736 62.0963 126.978 63.1908C134.115 69.4908 141.266 75.7768 148.375 82.1048C151.957 85.2899 151.985 90.6358 148.53 93.7928C145.229 96.8095 140.236 96.4868 137.133 93.0211C132.634 87.9979 128.148 82.9607 123.663 77.9235C121.039 74.977 118.402 72.0304 115.778 69.0839C115.651 68.9436 115.539 68.8033 115.355 68.5928C113.705 70.4309 112.125 72.2128 110.545 73.9808C104.847 80.365 99.1629 86.7492 93.4645 93.1193C90.3897 96.557 85.1709 96.7534 81.9409 93.5683C78.6968 90.3692 78.8378 85.2057 82.3217 82.1048C88.2175 76.8572 94.1557 71.6376 100.08 66.418C100.813 65.7725 101.547 65.6743 102.167 66.1093C103.056 66.7266 103.056 67.807 102.139 68.6209C100.136 70.4168 98.1191 72.1848 96.1021 73.9667C92.2233 77.4044 88.3304 80.828 84.4515 84.2656C82.2089 86.2581 82.0537 89.4572 84.0989 91.4496C86.13 93.442 89.2895 93.2737 91.2642 91.0567C102.901 78.0077 114.551 64.9587 126.188 51.9097C127.105 50.8854 127.429 50.8293 128.698 51.3064C132.084 52.5832 135.088 51.9378 137.641 49.4262C144.002 43.1402 150.321 36.8262 156.654 30.5262C157.797 29.3896 158.685 29.4738 159.588 30.8068V31.789H159.602ZM117.4 66.3338C117.612 66.5863 117.767 66.7687 117.936 66.9511C121.604 71.0623 125.271 75.1734 128.938 79.2846C132.422 83.1852 135.906 87.0999 139.39 91.0006C140.659 92.4178 142.197 93.1053 144.087 92.7405C146.005 92.3757 147.317 91.2251 147.853 89.359C148.431 87.3525 147.839 85.6407 146.273 84.2656C138.036 76.9834 129.784 69.7013 121.533 62.4331C121.42 62.3349 121.279 62.2507 121.138 62.1384C119.883 63.5416 118.656 64.9166 117.4 66.3338V66.3338Z" fill="#396941"/>
<path d="M109.601 47.8273C111.533 49.5251 113.423 51.1948 115.355 52.9207C116.681 51.7561 117.923 50.5634 119.277 49.4971C120.659 48.4167 121.364 47.4345 120.927 45.414C120.165 41.822 121.491 38.6229 124.1 36.0271C130.462 29.671 136.851 23.3429 143.227 17.0008C143.452 16.7763 143.706 16.5237 144.002 16.4115C144.637 16.173 145.258 16.2852 145.723 16.8324C146.189 17.4077 146.217 18.0391 145.794 18.6425C145.624 18.881 145.399 19.0915 145.187 19.3019C138.995 25.4757 132.803 31.6494 126.583 37.795C123.804 40.5311 123.043 43.6601 124.524 47.2942C124.848 48.0799 124.679 48.7253 124.044 49.2866C119.657 53.1452 115.285 57.0178 110.898 60.8764C109.953 61.7182 109.178 61.6481 108.331 60.708C106.653 58.8278 104.96 56.9617 103.31 55.0534C102.971 54.6605 102.718 54.5764 102.21 54.7868C96.1164 57.4528 89.4872 56.1899 84.8467 51.4614C80.8973 47.4485 77.7379 42.9164 76.0594 37.5004C75.2272 34.8064 74.8323 32.0282 75.3823 29.1939C76.412 23.8901 80.5165 20.4665 85.9892 20.2981C89.9667 20.1719 93.634 21.3084 97.132 23.0903C100.856 24.9846 104.156 27.4821 107.048 30.4848C111.364 34.9748 112.45 41.5694 109.869 47.238C109.784 47.4064 109.714 47.5888 109.601 47.8414V47.8273ZM113.07 54.9412C112.732 54.6325 112.464 54.3799 112.168 54.1274C110.503 52.6541 108.839 51.1948 107.175 49.7216C105.948 48.6412 105.877 48.2483 106.667 46.8452C109.079 42.5095 108.67 37.2338 105.538 33.3892C103.409 30.7794 100.743 28.7449 97.8796 26.977C94.6919 25.0126 91.2926 23.6235 87.4984 23.3289C82.731 22.95 79.2048 25.4195 78.3585 29.8394C77.9776 31.8037 78.2033 33.7681 78.697 35.6904C80.0652 40.91 82.999 45.2316 86.6944 49.0621C91.0387 53.5661 96.6383 54.422 102.153 51.4755C103.155 50.9423 103.705 51.0265 104.481 51.8824C105.694 53.2294 106.893 54.5764 108.091 55.9374C108.656 56.5688 109.22 57.1862 109.812 57.8316C110.912 56.8494 111.956 55.9374 113.056 54.9552L113.07 54.9412Z" fill="#396941"/>
<path d="M155.117 26.2614C154.793 26.8086 154.637 27.2717 154.327 27.5803C149.193 32.7158 144.045 37.8231 138.896 42.9445C138.149 43.6741 137.274 43.7302 136.626 43.1129C135.963 42.4815 136.005 41.5554 136.767 40.7977C141.887 35.6904 147.021 30.597 152.141 25.4897C152.677 24.9565 153.297 24.6338 153.975 25.0267C154.412 25.2933 154.708 25.8124 155.103 26.2614H155.117Z" fill="#396941"/>
<path d="M133.381 39.5769C132.873 39.17 132.323 38.9315 132.112 38.5105C131.914 38.1177 132.041 37.5283 132.14 37.0513C132.196 36.7987 132.507 36.5883 132.718 36.3778C137.683 31.4248 142.662 26.4858 147.627 21.5468C147.839 21.3363 148.05 21.1118 148.304 20.9435C148.939 20.5366 149.559 20.5927 150.124 21.0838C150.674 21.5468 150.801 22.3326 150.42 22.9359C150.251 23.2165 150.011 23.441 149.771 23.6796C144.806 28.6326 139.841 33.5715 134.848 38.5105C134.467 38.8894 133.959 39.156 133.367 39.5769H133.381Z" fill="#396941"/>
</g>
<defs>
<clipPath id="clip0_724_7456">
<rect width="84.4738" height="79.5429" fill="white" transform="translate(75.1284 16.2988)"/>
</clipPath>
</defs>
</svg>
