<svg width="655" height="285" viewBox="0 0 655 285" fill="none" xmlns="http://www.w3.org/2000/svg">
<g clip-path="url(#clip0_1109_7233)">
<path d="M327.5 285C508.373 285 655 221.201 655 142.5C655 63.7994 508.373 0 327.5 0C146.627 0 0 63.7994 0 142.5C0 221.201 146.627 285 327.5 285Z" fill="#FF5936"/>
<path d="M163.14 105.694H79.6582V80.777H90.5613C90.8868 82.0799 91.5784 83.4641 92.6768 84.9299C93.7753 86.3956 95.0771 87.7391 96.6638 89.0013C98.2504 90.2634 99.9185 91.2813 101.709 92.0956C103.499 92.9099 105.207 93.3577 106.835 93.4799L108.95 90.2227C104.394 89.4491 100.773 87.8206 98.047 85.2556C95.3212 82.6906 93.9787 80.0034 93.9787 77.1941V71.4941H148.657V80.777H163.14V105.694ZM79.6582 132.891C79.6582 129.512 80.3498 126.377 81.6924 123.446C83.0349 120.514 85.3539 117.949 88.6085 115.71C91.8632 113.471 96.2163 111.761 101.627 110.498C107.038 109.236 113.832 108.626 121.969 108.626C130.105 108.626 136.9 109.236 142.31 110.498C147.721 111.761 152.115 113.471 155.41 115.71C158.706 117.949 161.065 120.514 162.408 123.446C163.75 126.377 164.442 129.512 164.442 132.891C164.442 136.148 163.75 139.202 162.408 142.093C161.065 144.983 158.706 147.508 155.41 149.747C152.115 151.986 147.721 153.696 142.31 154.958C136.9 156.221 130.105 156.831 121.969 156.831C113.832 156.831 107.038 156.221 101.627 154.958C96.2163 153.696 91.8632 151.986 88.6085 149.828C85.3539 147.671 83.0349 145.106 81.6924 142.174C80.3498 139.243 79.6582 136.148 79.6582 132.891ZM79.6582 211.063V177.351C86.9405 176.903 93.043 176.293 98.047 175.478C103.051 174.664 107.038 173.646 110.089 172.384C113.14 171.122 115.297 169.697 116.599 168.068C117.9 166.44 118.551 164.648 118.551 162.694V159.6H173.555V162.694C173.555 164.648 174.247 166.44 175.589 168.068C176.932 169.697 179.129 171.122 182.18 172.384C185.231 173.646 189.218 174.664 194.222 175.478C199.226 176.293 205.41 176.903 212.774 177.351V211.063C202.684 211.063 193.937 210.818 186.574 210.33C179.21 209.841 172.497 208.905 166.476 207.561C160.455 206.218 154.8 204.263 149.471 201.78C144.141 199.296 138.445 196.08 132.384 192.171L126.688 195.103C128.519 196.528 130.634 197.831 133.035 199.011C135.435 200.192 137.957 201.413 140.683 202.594C136.127 203.897 131.651 205.078 127.258 206.177C122.864 207.276 118.226 208.172 113.344 208.946C108.462 209.719 103.295 210.248 97.8029 210.574C92.3107 210.9 86.2896 211.063 79.6582 211.063ZM105.858 125.563L102.929 129.96C108.34 132.443 114.198 134.316 120.504 135.497C126.81 136.678 133.035 137.288 139.218 137.288V132.403C133.035 132.403 127.136 131.751 121.562 130.448C115.988 129.146 110.74 127.517 105.858 125.563ZM211.146 155.528H167.371V77.5199H211.146V97.7141H223.514V136.148H211.146V155.528Z" fill="#FFE053"/>
<path d="M311.064 118.723H225.955V82.4056H237.672C237.997 83.7084 238.689 85.0927 239.787 86.5584C240.886 88.0241 242.188 89.3677 243.774 90.6299C245.361 91.892 247.029 92.9099 248.819 93.7241C250.609 94.5384 252.318 94.9863 253.945 95.1084L256.061 91.8513C251.504 91.0777 247.883 89.4491 245.158 86.8841C242.432 84.3191 241.089 81.632 241.089 78.8227V71.4941H295.767V82.4056H311.064V118.723V118.723ZM225.955 167.743C225.955 152.312 229.657 140.79 237.102 133.136C244.547 125.481 255.206 121.654 269.079 121.654C282.952 121.654 293.652 125.481 301.138 133.136C308.623 140.79 312.366 152.312 312.366 167.743C312.366 182.929 308.623 194.37 301.138 202.024C293.652 209.678 282.952 213.506 269.079 213.506C255.206 213.506 244.547 209.678 237.102 202.024C229.657 194.37 225.955 182.929 225.955 167.743ZM253.782 160.251L250.853 164.648C256.264 167.132 262.122 169.005 268.428 170.186C274.734 171.366 280.959 171.977 287.143 171.977V167.091C280.959 167.091 275.06 166.44 269.486 165.137C263.913 163.834 258.664 162.206 253.782 160.251ZM359.071 211.226H315.295V77.5199H359.071V121.654H371.438V160.088H359.071V211.226Z" fill="#FFE053"/>
<path d="M375.506 174.908V77.5195H457.035V117.257C454.635 117.908 451.868 118.437 448.736 118.885C445.603 119.333 442.348 119.659 438.972 119.944C435.595 120.229 432.218 120.392 428.801 120.514C425.383 120.636 422.21 120.677 419.281 120.677V167.905C421.763 167.905 424.977 167.865 428.882 167.742C432.788 167.62 436.856 167.335 441.087 166.847C445.318 166.358 449.427 165.666 453.374 164.73C457.32 163.793 460.615 162.572 463.219 161.065V77.5195H506.994V120.025H519.362V158.46H506.994V211.225H463.219V203.408C461.063 204.385 458.378 205.322 455.245 206.258C452.112 207.195 448.858 208.009 445.481 208.701C442.104 209.393 438.809 209.963 435.554 210.411C432.3 210.859 429.493 211.062 427.092 211.062H413.585C405.896 211.062 399.55 210.33 394.627 208.864C389.704 207.398 385.799 205.159 382.992 202.105C380.184 199.052 378.232 195.306 377.133 190.787C376.035 186.267 375.506 180.975 375.506 174.908Z" fill="#FFE053"/>
<path d="M572.087 164.811H525.057L521.803 77.5195H575.342L572.087 164.811ZM572.087 211.225H536.611C532.909 211.225 530.061 210.452 528.068 208.864C526.075 207.276 525.057 204.589 525.057 200.802V168.72H572.087V211.225Z" fill="#FFE053"/>
</g>
<defs>
<clipPath id="clip0_1109_7233">
<rect width="655" height="285" fill="white"/>
</clipPath>
</defs>
</svg>
