<svg width="253" height="90" viewBox="0 0 253 90" fill="none" xmlns="http://www.w3.org/2000/svg">
<path d="M251.5 45C251.5 50.598 248.315 56.1357 242.094 61.3681C235.88 66.5942 226.799 71.3681 215.446 75.4066C192.754 83.4788 161.307 88.5 126.5 88.5C91.6928 88.5 60.2457 83.4788 37.5537 75.4066C26.2011 71.3681 17.1203 66.5942 10.9065 61.3681C4.68519 56.1357 1.5 50.598 1.5 45C1.5 39.402 4.68519 33.8643 10.9065 28.6319C17.1203 23.4058 26.2011 18.6319 37.5537 14.5934C60.2457 6.52119 91.6928 1.5 126.5 1.5C161.307 1.5 192.754 6.52119 215.446 14.5934C226.799 18.6319 235.88 23.4058 242.094 28.6319C248.315 33.8643 251.5 39.402 251.5 45Z" fill="white" stroke="#FF5936" stroke-width="3"/>
<path d="M86.4185 60.3122H63V30.5718H76.711V49.7263H86.4236V60.3122H86.4185Z" fill="#FF5936"/>
<path d="M86.8018 45.4626C86.8018 42.9246 87.1643 40.688 87.8894 38.7628C88.6146 36.8325 89.6103 35.2189 90.8768 33.9269C92.1483 32.6299 93.6649 31.6545 95.4267 30.9958C97.1884 30.3319 99.0983 30 101.156 30C103.24 30 105.155 30.3319 106.906 30.9907C108.658 31.6494 110.174 32.6299 111.456 33.9218C112.738 35.2189 113.739 36.8274 114.464 38.7577C115.189 40.688 115.551 42.9195 115.551 45.4574C115.551 47.9954 115.189 50.232 114.464 52.1623C113.739 54.0926 112.738 55.7062 111.456 56.9982C110.174 58.2952 108.658 59.2706 106.906 59.9293C105.155 60.5881 103.24 60.92 101.156 60.92C99.0983 60.92 97.1884 60.5983 95.4267 59.9498C93.6598 59.3012 92.1432 58.331 90.8768 57.0339C89.6052 55.7369 88.6095 54.1283 87.8894 52.1981C87.1643 50.2729 86.8018 48.026 86.8018 45.4626ZM96.7391 43.9L96.0548 44.9264C97.4999 45.6106 99.1391 46.0702 100.967 46.2949C102.795 46.5247 104.624 46.6371 106.452 46.6371V45.4932C104.624 45.4932 102.877 45.3706 101.217 45.1306C99.5527 44.8957 98.0616 44.4821 96.7391 43.9Z" fill="#FF5936"/>
<path d="M116.501 45.4626C116.501 42.9246 116.869 40.688 117.604 38.7628C118.339 36.8325 119.391 35.2189 120.765 33.9269C122.133 32.6299 123.803 31.6545 125.774 30.9958C127.746 30.337 129.946 30 132.382 30C133.552 30 134.716 30.0511 135.885 30.1532C137.055 30.2553 138.178 30.4187 139.256 30.6485C140.333 30.8783 141.349 31.1592 142.304 31.486C143.254 31.8179 144.112 32.2111 144.873 32.6656V43.2923C143.402 43.2923 142.095 43.2616 140.951 43.1953C139.807 43.134 138.714 43.037 137.678 42.9093C136.636 42.7816 135.564 42.6029 134.461 42.3782C133.358 42.1484 132.107 41.8829 130.707 41.5765V50.181H132.04V43.3638C134.098 43.7978 136.187 44.0838 138.306 44.2217C140.425 44.3595 142.616 44.431 144.873 44.431V57.8714C143.07 59.0663 140.977 59.8732 138.592 60.2919C136.207 60.7106 133.628 60.92 130.861 60.92C128.803 60.92 126.893 60.5983 125.131 59.9498C123.364 59.3012 121.848 58.331 120.581 57.0339C119.31 55.7369 118.314 54.1283 117.594 52.1981C116.864 50.2729 116.501 48.026 116.501 45.4626Z" fill="#FF5936"/>
<path d="M159.575 30.5718V60.353H146.896V30.5718H159.575Z" fill="#FF5936"/>
<path d="M190.418 30.5718V60.353H175.415L172.366 50.3391V60.353H161.934V30.5718H176.977L181.052 42.4138L182.079 42.1483L179.566 35.0247V30.5718H190.418Z" fill="#FF5936"/>
</svg>
