<svg width="235" height="174" viewBox="0 0 235 174" fill="none" xmlns="http://www.w3.org/2000/svg">
<path d="M190.565 136.754C190.915 136.611 191.278 136.469 191.629 136.326C192.446 135.975 193.264 135.612 194.055 135.222C194.263 135.118 194.483 135.028 194.691 134.924C194.782 134.872 194.873 134.833 194.976 134.781C218.515 123.227 234.735 99.015 234.735 70.9995C234.735 31.7933 202.97 0 163.769 0H70.9655C31.7652 0 -0.0129341 31.7933 4.18833e-05 71.0125C4.18833e-05 110.206 31.7652 141.999 70.9655 141.999L52.241 174L177.264 140.714C181.43 139.909 185.465 138.74 189.332 137.247C189.747 137.092 190.162 136.923 190.578 136.754H190.565Z" fill="#FFE053"/>
<g clip-path="url(#clip0_724_7432)">
<path d="M159.061 56.9276C158.625 56.4842 157.938 56.2509 157.067 56.2392C156.578 56.2392 156.077 56.2392 155.588 56.2392H155.02C155.007 56.1692 154.98 56.1108 154.967 56.0525C154.928 55.9008 154.888 55.7725 154.875 55.6558C154.584 53.4388 153.673 51.3268 152.168 49.3782C151.613 48.6665 150.847 47.9197 149.804 48.5031C149.447 48.7015 149.236 48.9465 149.17 49.2382C149.078 49.6583 149.276 50.1717 149.778 50.8134C151.059 52.4587 151.798 54.2206 152.049 56.1925H149.883C149.104 52.4003 146.793 49.775 143.003 48.3748C139.293 47.0096 135.556 47.4296 131.911 49.6233L130.604 48.0947C133.245 46.3445 136.123 45.5394 139.372 45.6794C141.287 45.7494 143.162 46.2045 145.103 47.0679C145.565 47.2663 146.041 47.3129 146.437 47.1846C146.78 47.0796 147.057 46.8462 147.216 46.5195C147.559 45.8311 147.242 45.166 146.371 44.7809L146.225 44.7109C145.618 44.4425 144.997 44.1625 144.35 43.9991C143.32 43.7308 142.317 43.5091 141.247 43.2757C140.864 43.194 140.494 43.1124 140.111 43.019V42.9957C140.23 42.8557 140.336 42.7156 140.455 42.5639C141.947 40.732 143.452 38.9001 144.945 37.0798L148.787 32.3775C150.926 29.7638 153.066 27.1618 155.192 24.5481C155.786 23.813 156.024 23.1595 155.905 22.5411C155.786 21.911 155.324 21.351 154.465 20.8142C154.201 20.6509 153.937 20.4875 153.673 20.3241C152.458 19.5657 151.613 19.309 150.887 19.4257C150.147 19.5424 149.487 20.0441 148.668 21.1176L145.433 25.3065C140.481 31.7124 135.371 38.34 130.313 44.8509C130.036 45.2127 129.626 45.516 129.23 45.8077C129.072 45.9244 128.913 46.0411 128.768 46.1695L128.729 46.1344C129.811 44.1975 130.894 42.2606 131.977 40.3236L134.195 36.3681C137.035 31.304 139.966 26.0533 142.818 20.8842C143.188 20.2191 143.333 19.4257 143.201 18.8189C143.017 17.9905 141.854 17.232 140.824 16.8003C139.794 16.3686 138.408 16.0652 137.576 16.4619C136.863 16.812 136.308 17.5004 136.018 18.0255C132.624 24.4547 129.217 31.0007 125.916 37.3365L123.275 42.4006C123.182 42.5639 123.09 42.739 122.984 42.9373L122.945 43.0073V42.984C122.879 42.8323 122.839 42.7156 122.786 42.599C120.713 36.5431 114.361 32.3658 107.283 32.3658C107.204 32.3658 107.125 32.3658 107.059 32.3658C99.7166 32.4592 93.2989 36.8465 91.4502 43.0423C91.3049 43.5324 91.054 43.7658 90.4994 43.9525C84.8607 45.8894 81.335 49.4949 80.0408 54.6873C79.9484 55.049 79.8824 55.4107 79.8031 55.7958C79.7767 55.9358 79.7503 56.0758 79.7239 56.2159C79.5126 56.2159 79.3146 56.2159 79.1165 56.2159C78.6015 56.2159 78.0997 56.2159 77.5979 56.2159C76.7659 56.2275 76.1057 56.4842 75.6699 56.9393C75.2473 57.3827 75.0757 57.9895 75.1945 58.6895C75.4586 60.2881 75.7095 61.735 76.0397 63.1935C77.3998 69.2844 80.1597 74.8035 84.2269 79.5992C86.9868 82.8546 90.3805 85.6783 94.2893 87.9887C94.7383 88.257 94.9892 88.5021 94.9627 88.9921C94.8967 90.1356 94.8571 91.1625 95.0024 92.1893C95.0684 92.7143 95.2797 93.6945 95.8871 94.2896C96.3493 94.7446 96.9831 95.0713 97.6038 95.3864C97.8679 95.5147 98.132 95.6548 98.3829 95.8064L98.4225 95.8298H136.427C136.427 95.8298 136.493 95.7831 136.533 95.7598C136.599 95.7248 136.652 95.7014 136.718 95.6781C138.764 95.0713 139.781 93.9162 139.9 92.0492C139.966 90.9874 139.966 90.0773 139.9 89.2488C139.847 88.6188 140.085 88.2454 140.745 87.8487C145.195 85.2233 148.972 81.8745 151.97 77.8956C156.156 72.3415 158.665 66.0639 159.629 58.6895C159.721 57.9661 159.549 57.3477 159.114 56.916L159.061 56.9276ZM152.762 23.1479C152.643 23.2996 152.538 23.4513 152.419 23.5913L148.655 28.1769C144.905 32.7509 141.023 37.4882 137.233 42.1672C136.678 42.844 136.084 43.4507 134.922 43.4507C140.428 36.3331 145.895 29.2387 151.428 22.0861L152.894 22.9845L152.775 23.1479H152.762ZM111.799 52.8437C113.516 50.7784 117.148 49.6933 120.066 50.3584C123.46 51.1402 125.982 53.4621 126.365 56.1459C126.365 56.1459 126.365 56.1692 126.365 56.1925H124.199C123.222 53.5905 121.307 52.237 118.481 52.1436C118.389 52.1436 118.283 52.1436 118.191 52.1436C115.431 52.1436 113.463 53.4388 112.328 56.0058L112.222 55.5974C112.011 54.769 111.813 53.9989 111.628 53.2171C111.615 53.1354 111.681 52.9954 111.813 52.8437H111.799ZM109.053 48.8065C113.146 45.7261 117.623 44.8743 122.35 46.2511C127.527 47.768 130.551 51.0235 131.607 56.2275C131.436 56.2275 131.277 56.2275 131.119 56.2275C130.604 56.2275 130.102 56.2392 129.626 56.1925C129.521 56.1925 129.296 55.9242 129.244 55.7141C128.253 51.7352 125.599 49.1449 121.347 48.013C120.211 47.7097 119.089 47.558 118.006 47.558C115.431 47.558 113.001 48.3981 110.756 50.09C110.664 50.16 110.585 50.23 110.492 50.2884C110.426 50.335 110.36 50.3934 110.307 50.4401C110.307 50.4401 110.294 50.4401 110.268 50.4517L109.053 48.7948V48.8065ZM106.98 39.4602C109.937 39.3202 113.001 40.9421 114.506 43.4391C114.361 43.4857 114.216 43.5207 114.084 43.5674C113.609 43.7074 113.16 43.8358 112.711 43.9291C112.565 43.9525 112.275 43.8358 112.156 43.6958C110.809 42.2139 109.04 41.4088 107.164 41.4088C105.276 41.4088 103.507 42.2256 102.16 43.7191C102.041 43.8591 101.737 43.9758 101.605 43.9525C101.156 43.8708 100.707 43.7308 100.232 43.5908C100.086 43.5441 99.9411 43.4974 99.7827 43.4507C101.38 40.9304 103.744 39.6235 106.993 39.4602H106.98ZM106.966 43.9875C107.996 43.9408 109 44.3725 109.687 45.1543L107.098 46.8929L104.589 45.201C105.144 44.4659 106.002 44.0225 106.966 43.9758V43.9875ZM119.353 43.1357C118.811 43.124 118.31 43.1124 117.795 43.054C117.636 43.0307 117.412 42.8323 117.319 42.6573C115.682 39.7052 113.001 37.8383 109.343 37.1148C104.721 36.193 99.4525 38.375 97.3529 42.0622C96.9171 42.8206 96.5078 43.2174 95.5438 43.1007C95.2533 43.0657 94.9627 43.1007 94.6854 43.1357C94.6194 43.1357 94.5402 43.1474 94.4742 43.159C95.7154 39.1101 100.509 34.9445 107.138 34.9445C107.257 34.9445 107.376 34.9445 107.508 34.9445C114.546 35.1079 118.891 39.7869 119.815 43.1474C119.67 43.1474 119.524 43.1474 119.379 43.1357H119.353ZM95.9795 45.6444C101.962 45.6444 108.67 49.6233 109.304 56.1575H107.151C106.623 53.2288 104.946 50.9068 102.186 49.2382C100.364 48.1414 98.2641 47.5813 95.9531 47.5813C95.8871 47.5813 95.8079 47.5813 95.7419 47.5813C91.2917 47.6513 85.9964 50.37 84.8211 56.1809H82.7479C82.946 51.8052 87.5282 45.7727 95.7947 45.6444C95.8607 45.6444 95.9267 45.6444 95.9928 45.6444H95.9795ZM95.8607 50.16C99.9279 50.0783 103.533 52.7037 104.14 56.1925C104.074 56.1925 104.008 56.2159 103.942 56.2159C102.675 56.2975 101.869 56.2509 101.288 54.979C100.443 53.1588 98.5678 52.132 96.0984 52.132C95.9928 52.132 95.8739 52.132 95.7551 52.132C93.18 52.2253 91.3313 53.4038 90.2881 55.6091C90.2221 55.7608 90.156 55.9008 90.1032 56.0525C90.09 56.0992 90.0636 56.1459 90.0504 56.1809H87.898C88.2413 52.9371 91.7803 50.2534 95.8739 50.1483L95.8607 50.16ZM98.7394 56.1809H93.1932C93.7875 55.2124 94.7118 54.7107 95.9928 54.6756C96.0324 54.6756 96.072 54.6756 96.1116 54.6756C97.2605 54.6756 98.2112 55.2241 98.7526 56.1809H98.7394ZM118.059 54.6873C118.125 54.6873 118.204 54.6873 118.27 54.6873C119.458 54.6873 120.436 55.2474 120.951 56.2159C120.898 56.2159 120.858 56.2159 120.805 56.2159C119.34 56.2159 117.874 56.2159 116.408 56.2159H115.484C115.814 55.3407 116.804 54.7457 118.059 54.6756V54.6873ZM125.335 44.5126L138.698 18.9123L140.336 19.5774L126.167 44.9093L125.348 44.5242L125.335 44.5126ZM133.298 51.9336C135.833 50.1017 138.619 49.6699 141.59 50.6151C144.43 51.5369 146.212 53.4038 146.899 56.1925H144.68C143.901 54.0339 142.369 52.7037 140.085 52.2603C137.814 51.8052 135.793 52.3887 134.077 53.9872L133.298 51.9336V51.9336ZM138.434 54.699C139.742 54.5706 140.785 55.084 141.511 56.1809H136.005C136.348 55.3407 137.219 54.804 138.434 54.699ZM107.706 86.4134H107.481C107.283 86.4134 107.098 86.4134 106.9 86.4134C105.936 86.4485 105.302 86.9385 105.302 87.662C105.302 88.3854 105.91 88.8871 106.874 88.9571C107.072 88.9688 107.257 88.9571 107.455 88.9571H136.942C136.942 89.2605 136.942 89.5522 136.942 89.8439C136.942 90.579 136.955 91.2675 136.916 91.9559C136.876 92.7493 136.361 93.1811 135.397 93.2277C135.252 93.2277 135.12 93.2277 134.961 93.2277H134.79C123.156 93.2277 111.522 93.2277 99.8751 93.2277C98.1716 93.2277 97.7755 92.8777 97.7755 91.3842C97.7755 90.614 97.7755 89.8323 97.8019 89.0622C97.8019 89.0622 97.8151 89.0272 97.8283 89.0038C97.8283 88.9921 97.8415 88.9688 97.8547 88.9455H98.4885C99.0564 88.9455 99.6506 88.9455 100.245 88.9455C101.354 88.9221 102.014 88.4671 102.028 87.6853C102.028 87.3469 101.922 87.0552 101.684 86.8452C101.38 86.5651 100.865 86.4018 100.205 86.4018C100.152 86.4018 100.086 86.4018 100.034 86.4018C99.8883 86.4018 99.7298 86.3901 99.5714 86.4018C97.4849 86.7402 95.8475 85.9817 94.0252 84.7332C86.3926 79.4941 81.3482 72.3998 79.0637 63.6602C78.7996 62.6568 78.5883 61.6533 78.3638 60.5565C78.2845 60.1481 78.2185 59.728 78.1657 59.2846C78.1393 59.1213 78.1261 58.9579 78.0997 58.7946H156.618C156.156 62.4817 155.152 66.0873 153.607 69.5061C151.243 74.7801 147.797 79.2141 143.373 82.6913C142.053 83.7297 140.587 84.6749 139.174 85.585C138.87 85.7834 138.553 85.9817 138.249 86.1801C137.985 86.3551 137.51 86.3784 137.167 86.3784C128.742 86.3784 120.33 86.3784 111.905 86.3784H107.693L107.706 86.4134Z" fill="#396941"/>
</g>
<defs>
<clipPath id="clip0_724_7432">
<rect width="84.4738" height="79.5429" fill="white" transform="translate(75.1284 16.2988)"/>
</clipPath>
</defs>
</svg>
