<svg width="100" height="100" viewBox="0 0 100 100" fill="none" xmlns="http://www.w3.org/2000/svg">
<path fill-rule="evenodd" clip-rule="evenodd" d="M83.3335 45.8337V75.0003C83.3335 77.2105 82.4555 79.3301 80.8927 80.8929C79.3299 82.4557 77.2103 83.3337 75.0002 83.3337H25.0002C22.79 83.3337 20.6704 82.4557 19.1076 80.8929C17.5448 79.3301 16.6668 77.2105 16.6668 75.0003V45.8337H12.5002C11.3951 45.8337 10.3353 45.3947 9.55388 44.6133C8.77248 43.8319 8.3335 42.7721 8.3335 41.667C8.3335 40.5619 8.77248 39.5021 9.55388 38.7207C10.3353 37.9393 11.3951 37.5003 12.5002 37.5003H87.5002C88.6052 37.5003 89.665 37.9393 90.4464 38.7207C91.2278 39.5021 91.6668 40.5619 91.6668 41.667C91.6668 42.7721 91.2278 43.8319 90.4464 44.6133C89.665 45.3947 88.6052 45.8337 87.5002 45.8337H83.3335ZM25.0002 45.8337V75.0003H75.0002V45.8337H25.0002ZM45.8335 25.0003V20.8337C45.8335 19.7286 46.2725 18.6688 47.0539 17.8874C47.8353 17.106 48.8951 16.667 50.0002 16.667C51.1052 16.667 52.165 17.106 52.9464 17.8874C53.7278 18.6688 54.1668 19.7286 54.1668 20.8337V25.0003H79.1668C80.2719 25.0003 81.3317 25.4393 82.1131 26.2207C82.8945 27.0021 83.3335 28.0619 83.3335 29.167C83.3335 30.2721 82.8945 31.3319 82.1131 32.1133C81.3317 32.8947 80.2719 33.3337 79.1668 33.3337H20.8335C19.7284 33.3337 18.6686 32.8947 17.8872 32.1133C17.1058 31.3319 16.6668 30.2721 16.6668 29.167C16.6668 28.0619 17.1058 27.0021 17.8872 26.2207C18.6686 25.4393 19.7284 25.0003 20.8335 25.0003H45.8335Z" fill="#396941"/>
</svg>
