<svg width="235" height="174" viewBox="0 0 235 174" fill="none" xmlns="http://www.w3.org/2000/svg">
<path d="M190.565 136.754C190.915 136.611 191.278 136.469 191.629 136.326C192.446 135.975 193.264 135.612 194.055 135.222C194.263 135.118 194.483 135.028 194.691 134.924C194.782 134.872 194.873 134.833 194.976 134.781C218.515 123.227 234.735 99.015 234.735 70.9995C234.735 31.7933 202.97 0 163.769 0H70.9655C31.7652 0 -0.0129341 31.7933 4.18833e-05 71.0125C4.18833e-05 110.206 31.7652 141.999 70.9655 141.999L52.241 174L177.264 140.714C181.43 139.909 185.465 138.74 189.332 137.247C189.747 137.092 190.162 136.923 190.578 136.754H190.565Z" fill="#FFE053"/>
<g clip-path="url(#clip0_1067_7350)">
<path d="M105.955 30.2544C106.378 30.2544 106.801 30.0589 107.105 29.7236C107.409 29.3883 107.567 28.9553 107.541 28.5222C107.501 27.6561 106.775 26.9297 105.955 26.9297C105.955 26.9297 105.929 26.9297 105.916 26.9297C105.057 26.9576 104.383 27.684 104.396 28.606C104.396 29.528 105.083 30.2405 105.955 30.2544Z" fill="#396941"/>
<path d="M100.194 36.3308C100.194 36.3308 100.221 36.3308 100.234 36.3308C101.04 36.3308 101.767 35.5904 101.806 34.7103C101.846 33.7884 101.185 33.034 100.313 32.9921C99.864 32.9781 99.4412 33.1318 99.1373 33.4391C98.8334 33.7464 98.6616 34.1655 98.6616 34.6265C98.6616 35.5206 99.3619 36.2889 100.194 36.3168V36.3308Z" fill="#396941"/>
<path d="M132.7 37.3375C132.7 37.3375 132.726 37.3375 132.739 37.3375C133.598 37.3095 134.272 36.5831 134.259 35.6611C134.259 34.7531 133.545 34.0127 132.7 34.0127C132.29 34.0127 131.88 34.2083 131.563 34.5575C131.259 34.8928 131.088 35.3398 131.114 35.7729C131.154 36.6669 131.854 37.3514 132.7 37.3514V37.3375Z" fill="#396941"/>
<path d="M157.752 48.5124H157.739H155.163C155.4 45.2296 154.039 42.1982 151.397 40.2703C150.987 39.977 150.855 39.6836 150.868 39.1248C150.947 34.8222 148.477 31.246 144.579 30.0167C144.103 29.863 143.891 29.6395 143.746 29.1086C142.61 25.0854 139.359 22.529 135.408 22.529C135.329 22.529 135.263 22.529 135.184 22.529C135.171 22.529 135.144 22.529 135.131 22.529C134.629 22.529 134.338 22.3613 134.047 21.9143C131.788 18.4219 127.745 17.0389 123.979 18.4638C123.477 18.6594 123.16 18.6035 122.71 18.2403C119.552 15.6699 115.297 15.6699 112.126 18.2403C111.703 18.5895 111.373 18.6315 110.858 18.4359C107.105 17.0249 103.062 18.4359 100.802 21.9143C100.525 22.3474 100.234 22.515 99.7188 22.515C99.6263 22.515 99.5338 22.515 99.4413 22.515C95.5169 22.515 92.2532 25.0854 91.1168 29.1226C90.9715 29.6395 90.7601 29.877 90.2712 30.0167C86.3732 31.232 83.9155 34.8082 83.9948 39.1388C83.9948 39.6697 83.8626 39.963 83.4398 40.2703C80.665 42.3798 79.4097 45.2156 79.7136 48.5124H76.952C75.6438 48.8197 74.9567 49.9233 75.1681 51.4181C75.4324 53.3459 75.6835 55.0781 76.0138 56.8103C77.3748 64.1025 80.1364 70.7101 84.2062 76.4376C86.9678 80.3351 90.3637 83.7158 94.2616 86.4678C94.7109 86.7751 94.9355 87.0545 94.9091 87.6412C94.8562 88.7588 94.7902 90.1558 94.9487 91.4689C95.0148 92.1115 95.2394 93.285 95.8472 94.0114C96.3097 94.5702 96.9572 94.9613 97.565 95.3385C97.8293 95.5061 98.0935 95.6598 98.3446 95.8274L98.3842 95.8554H136.386C136.386 95.8554 136.452 95.7995 136.479 95.7715C136.545 95.7296 136.598 95.7017 136.664 95.6738C138.725 94.9473 139.742 93.5504 139.861 91.3013C139.927 90.03 139.927 88.9404 139.861 87.9486C139.809 87.2222 140.046 86.7751 140.694 86.3141C145.147 83.171 148.926 79.1617 151.925 74.3981C156.114 67.7625 158.611 60.2329 159.576 51.4181C159.748 49.8675 159.074 48.8197 157.752 48.5264V48.5124ZM85.6861 42.743C87.3906 41.7791 87.4831 41.5975 87.2453 39.5998C86.8621 36.4147 88.897 33.551 91.8832 33.062C93.4424 32.8106 93.7067 32.5452 93.9841 30.9387C94.6052 27.4044 97.1554 25.4626 100.512 25.9655C101.912 26.189 102.322 25.9655 102.996 24.6244C104.595 21.4393 107.62 20.4196 110.712 22.0121C111.954 22.6547 112.377 22.5848 113.382 21.5511C115.852 19.0086 119.037 18.9947 121.481 21.5371C122.512 22.5988 122.895 22.6547 124.217 21.9702C127.269 20.3916 130.268 21.4114 131.867 24.5965C132.554 25.9515 132.977 26.189 134.417 25.9515C137.589 25.4346 140.218 27.3904 140.839 30.7291C141.183 32.615 141.315 32.7547 143.125 33.076C146.006 33.5929 148.027 36.5125 147.618 39.5719C147.353 41.5695 147.459 41.7791 149.137 42.715C151.093 43.8047 152.203 46.1795 151.965 48.4984H82.8848C82.6338 46.1935 83.7437 43.8326 85.6861 42.729V42.743ZM153.564 64.3819C151.199 70.6822 147.763 75.9766 143.35 80.1256C142.028 81.3689 140.575 82.4865 139.161 83.5761C138.857 83.8136 138.54 84.0511 138.236 84.2885C137.972 84.4981 137.509 84.5121 137.179 84.5121C128.762 84.5121 120.358 84.5121 111.941 84.5121H107.515C107.33 84.5121 107.132 84.5121 106.947 84.5121C105.969 84.554 105.321 85.1547 105.321 86.0487C105.321 86.9288 105.942 87.5574 106.92 87.6412C107.118 87.6412 107.303 87.6412 107.502 87.6412H136.928C136.928 87.9905 136.928 88.3397 136.928 88.675C136.928 89.5551 136.941 90.3793 136.902 91.1895C136.862 92.1394 136.373 92.6284 135.422 92.6843C135.29 92.6843 135.144 92.6843 135.012 92.6843H99.917C98.2389 92.6843 97.8557 92.2791 97.8557 90.505C97.8557 89.6668 97.8557 88.8426 97.8689 88.0045V87.739C97.8689 87.739 97.8821 87.6971 97.8953 87.6692C97.8953 87.6552 97.8953 87.6412 97.9218 87.6273H98.5296C99.0978 87.6273 99.6924 87.6273 100.287 87.6273C101.423 87.5993 102.084 87.0405 102.11 86.0906C102.11 85.6715 102.005 85.3223 101.754 85.0569C101.437 84.7076 100.921 84.526 100.261 84.5121C100.208 84.5121 100.142 84.5121 100.089 84.5121C99.9302 84.5121 99.7717 84.4981 99.6131 84.5121C97.5386 84.9172 95.9001 84.0091 94.1031 82.5284C86.4789 76.27 81.4445 67.8044 79.1586 57.3552C78.8943 56.1398 78.6829 54.9105 78.4583 53.6392C78.379 53.1503 78.313 52.6474 78.2601 52.1305C78.2337 51.9489 78.2205 51.7673 78.194 51.5857H156.55C156.088 55.9722 155.083 60.2608 153.551 64.3539L153.564 64.3819Z" fill="#396941"/>
</g>
<path d="M120.265 104.304V114.464H122.925V104.304H120.265ZM122.185 108.204V110.384H125.385V108.204H122.185ZM108.885 105.224V113.804H117.785V105.224H115.145V107.444H111.525V105.224H108.885ZM111.525 109.484H115.145V111.704H111.525V109.484ZM110.825 115.264V122.624H122.925V115.264H120.285V116.884H113.465V115.264H110.825ZM113.465 118.924H120.285V120.524H113.465V118.924Z" fill="#396941"/>
<path d="M190.565 136.754C190.915 136.611 191.278 136.469 191.629 136.326C192.446 135.975 193.264 135.612 194.055 135.222C194.263 135.118 194.483 135.028 194.691 134.924C194.782 134.872 194.873 134.833 194.976 134.781C218.515 123.227 234.735 99.015 234.735 70.9995C234.735 31.7933 202.97 0 163.769 0H70.9655C31.7652 0 -0.0129341 31.7933 4.18833e-05 71.0125C4.18833e-05 110.206 31.7652 141.999 70.9655 141.999L52.241 174L177.264 140.714C181.43 139.909 185.465 138.74 189.332 137.247C189.747 137.092 190.162 136.923 190.578 136.754H190.565Z" fill="#FFE053"/>
<g clip-path="url(#clip1_1067_7350)">
<path d="M105.955 30.2544C106.378 30.2544 106.801 30.0589 107.105 29.7236C107.409 29.3883 107.567 28.9553 107.541 28.5222C107.501 27.6561 106.775 26.9297 105.955 26.9297C105.955 26.9297 105.929 26.9297 105.916 26.9297C105.057 26.9576 104.383 27.684 104.396 28.606C104.396 29.528 105.083 30.2405 105.955 30.2544Z" fill="#FF5936"/>
<path d="M100.194 36.3308C100.194 36.3308 100.221 36.3308 100.234 36.3308C101.04 36.3308 101.767 35.5904 101.806 34.7103C101.846 33.7884 101.185 33.034 100.313 32.9921C99.864 32.9781 99.4412 33.1318 99.1373 33.4391C98.8334 33.7464 98.6616 34.1655 98.6616 34.6265C98.6616 35.5206 99.3619 36.2889 100.194 36.3168V36.3308Z" fill="#FF5936"/>
<path d="M132.7 37.3375C132.7 37.3375 132.726 37.3375 132.739 37.3375C133.598 37.3095 134.272 36.5831 134.259 35.6611C134.259 34.7531 133.545 34.0127 132.7 34.0127C132.29 34.0127 131.88 34.2083 131.563 34.5575C131.259 34.8928 131.088 35.3398 131.114 35.7729C131.154 36.6669 131.854 37.3514 132.7 37.3514V37.3375Z" fill="#FF5936"/>
<path d="M157.752 48.5124H157.739H155.163C155.4 45.2296 154.039 42.1982 151.397 40.2703C150.987 39.977 150.855 39.6836 150.868 39.1248C150.947 34.8222 148.477 31.246 144.579 30.0167C144.103 29.863 143.891 29.6395 143.746 29.1086C142.61 25.0854 139.359 22.529 135.408 22.529C135.329 22.529 135.263 22.529 135.184 22.529C135.171 22.529 135.144 22.529 135.131 22.529C134.629 22.529 134.338 22.3613 134.047 21.9143C131.788 18.4219 127.745 17.0389 123.979 18.4638C123.477 18.6594 123.16 18.6035 122.71 18.2403C119.552 15.6699 115.297 15.6699 112.126 18.2403C111.703 18.5895 111.373 18.6315 110.858 18.4359C107.105 17.0249 103.062 18.4359 100.802 21.9143C100.525 22.3474 100.234 22.515 99.7188 22.515C99.6263 22.515 99.5338 22.515 99.4413 22.515C95.5169 22.515 92.2532 25.0854 91.1168 29.1226C90.9715 29.6395 90.7601 29.877 90.2712 30.0167C86.3732 31.232 83.9155 34.8082 83.9948 39.1388C83.9948 39.6697 83.8626 39.963 83.4398 40.2703C80.665 42.3798 79.4097 45.2156 79.7136 48.5124H76.952C75.6438 48.8197 74.9567 49.9233 75.1681 51.4181C75.4324 53.3459 75.6835 55.0781 76.0138 56.8103C77.3748 64.1025 80.1364 70.7101 84.2062 76.4376C86.9678 80.3351 90.3637 83.7158 94.2616 86.4678C94.7109 86.7751 94.9355 87.0545 94.9091 87.6412C94.8562 88.7588 94.7902 90.1558 94.9487 91.4689C95.0148 92.1115 95.2394 93.285 95.8472 94.0114C96.3097 94.5702 96.9572 94.9613 97.565 95.3385C97.8293 95.5061 98.0935 95.6598 98.3446 95.8274L98.3842 95.8554H136.386C136.386 95.8554 136.452 95.7995 136.479 95.7715C136.545 95.7296 136.598 95.7017 136.664 95.6738C138.725 94.9473 139.742 93.5504 139.861 91.3013C139.927 90.03 139.927 88.9404 139.861 87.9486C139.809 87.2222 140.046 86.7751 140.694 86.3141C145.147 83.171 148.926 79.1617 151.925 74.3981C156.114 67.7625 158.611 60.2329 159.576 51.4181C159.748 49.8675 159.074 48.8197 157.752 48.5264V48.5124ZM85.6861 42.743C87.3906 41.7791 87.4831 41.5975 87.2453 39.5998C86.8621 36.4147 88.897 33.551 91.8832 33.062C93.4424 32.8106 93.7067 32.5452 93.9841 30.9387C94.6052 27.4044 97.1554 25.4626 100.512 25.9655C101.912 26.189 102.322 25.9655 102.996 24.6244C104.595 21.4393 107.62 20.4196 110.712 22.0121C111.954 22.6547 112.377 22.5848 113.382 21.5511C115.852 19.0086 119.037 18.9947 121.481 21.5371C122.512 22.5988 122.895 22.6547 124.217 21.9702C127.269 20.3916 130.268 21.4114 131.867 24.5965C132.554 25.9515 132.977 26.189 134.417 25.9515C137.589 25.4346 140.218 27.3904 140.839 30.7291C141.183 32.615 141.315 32.7547 143.125 33.076C146.006 33.5929 148.027 36.5125 147.618 39.5719C147.353 41.5695 147.459 41.7791 149.137 42.715C151.093 43.8047 152.203 46.1795 151.965 48.4984H82.8848C82.6338 46.1935 83.7437 43.8326 85.6861 42.729V42.743ZM153.564 64.3819C151.199 70.6822 147.763 75.9766 143.35 80.1256C142.028 81.3689 140.575 82.4865 139.161 83.5761C138.857 83.8136 138.54 84.0511 138.236 84.2885C137.972 84.4981 137.509 84.5121 137.179 84.5121C128.762 84.5121 120.358 84.5121 111.941 84.5121H107.515C107.33 84.5121 107.132 84.5121 106.947 84.5121C105.969 84.554 105.321 85.1547 105.321 86.0487C105.321 86.9288 105.942 87.5574 106.92 87.6412C107.118 87.6412 107.303 87.6412 107.502 87.6412H136.928C136.928 87.9905 136.928 88.3397 136.928 88.675C136.928 89.5551 136.941 90.3793 136.902 91.1895C136.862 92.1394 136.373 92.6284 135.422 92.6843C135.29 92.6843 135.144 92.6843 135.012 92.6843H99.917C98.2389 92.6843 97.8557 92.2791 97.8557 90.505C97.8557 89.6668 97.8557 88.8426 97.8689 88.0045V87.739C97.8689 87.739 97.8821 87.6971 97.8953 87.6692C97.8953 87.6552 97.8953 87.6412 97.9218 87.6273H98.5296C99.0978 87.6273 99.6924 87.6273 100.287 87.6273C101.423 87.5993 102.084 87.0405 102.11 86.0906C102.11 85.6715 102.005 85.3223 101.754 85.0569C101.437 84.7076 100.921 84.526 100.261 84.5121C100.208 84.5121 100.142 84.5121 100.089 84.5121C99.9302 84.5121 99.7717 84.4981 99.6131 84.5121C97.5386 84.9172 95.9001 84.0091 94.1031 82.5284C86.4789 76.27 81.4445 67.8044 79.1586 57.3552C78.8943 56.1398 78.6829 54.9105 78.4583 53.6392C78.379 53.1503 78.313 52.6474 78.2601 52.1305C78.2337 51.9489 78.2205 51.7673 78.194 51.5857H156.55C156.088 55.9722 155.083 60.2608 153.551 64.3539L153.564 64.3819Z" fill="#FF5936"/>
</g>
<path d="M120.265 104.304V114.464H122.925V104.304H120.265ZM122.185 108.204V110.384H125.385V108.204H122.185ZM108.885 105.224V113.804H117.785V105.224H115.145V107.444H111.525V105.224H108.885ZM111.525 109.484H115.145V111.704H111.525V109.484ZM110.825 115.264V122.624H122.925V115.264H120.285V116.884H113.465V115.264H110.825ZM113.465 118.924H120.285V120.524H113.465V118.924Z" fill="#FF5936"/>
<path d="M190.565 136.754C190.915 136.611 191.278 136.469 191.629 136.326C192.446 135.975 193.264 135.612 194.055 135.222C194.263 135.118 194.483 135.028 194.691 134.924C194.782 134.872 194.873 134.833 194.976 134.781C218.515 123.227 234.735 99.015 234.735 70.9995C234.735 31.7933 202.97 0 163.769 0H70.9655C31.7652 0 -0.0129341 31.7933 4.18833e-05 71.0125C4.18833e-05 110.206 31.7652 141.999 70.9655 141.999L52.241 174L177.264 140.714C181.43 139.909 185.465 138.74 189.332 137.247C189.747 137.092 190.162 136.923 190.578 136.754H190.565Z" fill="#396941"/>
<g clip-path="url(#clip2_1067_7350)">
<path d="M105.955 30.2544C106.378 30.2544 106.801 30.0589 107.105 29.7236C107.409 29.3883 107.567 28.9553 107.541 28.5222C107.501 27.6561 106.775 26.9297 105.955 26.9297C105.955 26.9297 105.929 26.9297 105.916 26.9297C105.057 26.9576 104.383 27.684 104.396 28.606C104.396 29.528 105.083 30.2405 105.955 30.2544Z" fill="#FFE053"/>
<path d="M100.194 36.3308C100.194 36.3308 100.221 36.3308 100.234 36.3308C101.04 36.3308 101.767 35.5904 101.806 34.7103C101.846 33.7884 101.185 33.034 100.313 32.9921C99.864 32.9781 99.4412 33.1318 99.1373 33.4391C98.8334 33.7464 98.6616 34.1655 98.6616 34.6265C98.6616 35.5206 99.3619 36.2889 100.194 36.3168V36.3308Z" fill="#FFE053"/>
<path d="M132.7 37.3375C132.7 37.3375 132.726 37.3375 132.739 37.3375C133.598 37.3095 134.272 36.5831 134.259 35.6611C134.259 34.7531 133.545 34.0127 132.7 34.0127C132.29 34.0127 131.88 34.2083 131.563 34.5575C131.259 34.8928 131.088 35.3398 131.114 35.7729C131.154 36.6669 131.854 37.3514 132.7 37.3514V37.3375Z" fill="#FFE053"/>
<path d="M157.752 48.5124H157.739H155.163C155.4 45.2296 154.039 42.1982 151.397 40.2703C150.987 39.977 150.855 39.6836 150.868 39.1248C150.947 34.8222 148.477 31.246 144.579 30.0167C144.103 29.863 143.891 29.6395 143.746 29.1086C142.61 25.0854 139.359 22.529 135.408 22.529C135.329 22.529 135.263 22.529 135.184 22.529C135.171 22.529 135.144 22.529 135.131 22.529C134.629 22.529 134.338 22.3613 134.047 21.9143C131.788 18.4219 127.745 17.0389 123.979 18.4638C123.477 18.6594 123.16 18.6035 122.71 18.2403C119.552 15.6699 115.297 15.6699 112.126 18.2403C111.703 18.5895 111.373 18.6315 110.858 18.4359C107.105 17.0249 103.062 18.4359 100.802 21.9143C100.525 22.3474 100.234 22.515 99.7188 22.515C99.6263 22.515 99.5338 22.515 99.4413 22.515C95.5169 22.515 92.2532 25.0854 91.1168 29.1226C90.9715 29.6395 90.7601 29.877 90.2712 30.0167C86.3732 31.232 83.9155 34.8082 83.9948 39.1388C83.9948 39.6697 83.8626 39.963 83.4398 40.2703C80.665 42.3798 79.4097 45.2156 79.7136 48.5124H76.952C75.6438 48.8197 74.9567 49.9233 75.1681 51.4181C75.4324 53.3459 75.6835 55.0781 76.0138 56.8103C77.3748 64.1025 80.1364 70.7101 84.2062 76.4376C86.9678 80.3351 90.3637 83.7158 94.2616 86.4678C94.7109 86.7751 94.9355 87.0545 94.9091 87.6412C94.8562 88.7588 94.7902 90.1558 94.9487 91.4689C95.0148 92.1115 95.2394 93.285 95.8472 94.0114C96.3097 94.5702 96.9572 94.9613 97.565 95.3385C97.8293 95.5061 98.0935 95.6598 98.3446 95.8274L98.3842 95.8554H136.386C136.386 95.8554 136.452 95.7995 136.479 95.7715C136.545 95.7296 136.598 95.7017 136.664 95.6738C138.725 94.9473 139.742 93.5504 139.861 91.3013C139.927 90.03 139.927 88.9404 139.861 87.9486C139.809 87.2222 140.046 86.7751 140.694 86.3141C145.147 83.171 148.926 79.1617 151.925 74.3981C156.114 67.7625 158.611 60.2329 159.576 51.4181C159.748 49.8675 159.074 48.8197 157.752 48.5264V48.5124ZM85.6861 42.743C87.3906 41.7791 87.4831 41.5975 87.2453 39.5998C86.8621 36.4147 88.897 33.551 91.8832 33.062C93.4424 32.8106 93.7067 32.5452 93.9841 30.9387C94.6052 27.4044 97.1554 25.4626 100.512 25.9655C101.912 26.189 102.322 25.9655 102.996 24.6244C104.595 21.4393 107.62 20.4196 110.712 22.0121C111.954 22.6547 112.377 22.5848 113.382 21.5511C115.852 19.0086 119.037 18.9947 121.481 21.5371C122.512 22.5988 122.895 22.6547 124.217 21.9702C127.269 20.3916 130.268 21.4114 131.867 24.5965C132.554 25.9515 132.977 26.189 134.417 25.9515C137.589 25.4346 140.218 27.3904 140.839 30.7291C141.183 32.615 141.315 32.7547 143.125 33.076C146.006 33.5929 148.027 36.5125 147.618 39.5719C147.353 41.5695 147.459 41.7791 149.137 42.715C151.093 43.8047 152.203 46.1795 151.965 48.4984H82.8848C82.6338 46.1935 83.7437 43.8326 85.6861 42.729V42.743ZM153.564 64.3819C151.199 70.6822 147.763 75.9766 143.35 80.1256C142.028 81.3689 140.575 82.4865 139.161 83.5761C138.857 83.8136 138.54 84.0511 138.236 84.2885C137.972 84.4981 137.509 84.5121 137.179 84.5121C128.762 84.5121 120.358 84.5121 111.941 84.5121H107.515C107.33 84.5121 107.132 84.5121 106.947 84.5121C105.969 84.554 105.321 85.1547 105.321 86.0487C105.321 86.9288 105.942 87.5574 106.92 87.6412C107.118 87.6412 107.303 87.6412 107.502 87.6412H136.928C136.928 87.9905 136.928 88.3397 136.928 88.675C136.928 89.5551 136.941 90.3793 136.902 91.1895C136.862 92.1394 136.373 92.6284 135.422 92.6843C135.29 92.6843 135.144 92.6843 135.012 92.6843H99.917C98.2389 92.6843 97.8557 92.2791 97.8557 90.505C97.8557 89.6668 97.8557 88.8426 97.8689 88.0045V87.739C97.8689 87.739 97.8821 87.6971 97.8953 87.6692C97.8953 87.6552 97.8953 87.6412 97.9218 87.6273H98.5296C99.0978 87.6273 99.6924 87.6273 100.287 87.6273C101.423 87.5993 102.084 87.0405 102.11 86.0906C102.11 85.6715 102.005 85.3223 101.754 85.0569C101.437 84.7076 100.921 84.526 100.261 84.5121C100.208 84.5121 100.142 84.5121 100.089 84.5121C99.9302 84.5121 99.7717 84.4981 99.6131 84.5121C97.5386 84.9172 95.9001 84.0091 94.1031 82.5284C86.4789 76.27 81.4445 67.8044 79.1586 57.3552C78.8943 56.1398 78.6829 54.9105 78.4583 53.6392C78.379 53.1503 78.313 52.6474 78.2601 52.1305C78.2337 51.9489 78.2205 51.7673 78.194 51.5857H156.55C156.088 55.9722 155.083 60.2608 153.551 64.3539L153.564 64.3819Z" fill="#FFE053"/>
</g>
<defs>
<clipPath id="clip0_1067_7350">
<rect width="84.4738" height="79.5429" fill="white" transform="translate(75.1284 16.2988)"/>
</clipPath>
<clipPath id="clip1_1067_7350">
<rect width="84.4738" height="79.5429" fill="white" transform="translate(75.1284 16.2988)"/>
</clipPath>
<clipPath id="clip2_1067_7350">
<rect width="84.4738" height="79.5429" fill="white" transform="translate(75.1284 16.2988)"/>
</clipPath>
</defs>
</svg>
