<svg width="100" height="100" viewBox="0 0 100 100" fill="none" xmlns="http://www.w3.org/2000/svg">
<path d="M87.5002 41.6663C87.4239 39.1151 86.6942 36.6263 85.3811 34.4377C84.068 32.2492 82.2152 30.4341 80.0002 29.1663C79.469 25.5369 77.6475 22.2205 74.8695 19.8252C72.0915 17.4298 68.5432 16.116 64.8752 16.1246C63.4686 16.1222 62.0677 16.3043 60.7085 16.6663C57.8405 13.9282 54.0278 12.4004 50.0627 12.4004C46.0975 12.4004 42.2848 13.9282 39.4168 16.6663C38.0576 16.3043 36.6568 16.1222 35.2502 16.1246C31.5678 16.0959 27.9994 17.4006 25.204 19.7977C22.4086 22.1949 20.575 25.5226 20.0418 29.1663C17.819 30.4289 15.9579 32.2417 14.6373 34.4306C13.3167 36.6195 12.5807 39.1111 12.5002 41.6663C11.3951 41.6663 10.3353 42.1053 9.55388 42.8867C8.77248 43.6681 8.3335 44.7279 8.3335 45.8329C8.33368 53.1468 10.259 60.3317 13.916 66.6657C17.573 72.9996 22.8329 78.2594 29.1668 81.9163V87.4996C29.1668 88.6047 29.6058 89.6645 30.3872 90.4459C31.1686 91.2273 32.2284 91.6663 33.3335 91.6663H66.6668C67.7719 91.6663 68.8317 91.2273 69.6131 90.4459C70.3945 89.6645 70.8335 88.6047 70.8335 87.4996V81.9163C77.1675 78.2594 82.4273 72.9996 86.0843 66.6657C89.7413 60.3317 91.6666 53.1468 91.6668 45.8329C91.6668 44.7279 91.2278 43.6681 90.4464 42.8867C89.665 42.1053 88.6052 41.6663 87.5002 41.6663ZM20.8335 41.6663C20.9393 40.3499 21.4362 39.0951 22.2603 38.0632C23.0844 37.0312 24.1981 36.2691 25.4585 35.8746L28.9168 34.7913L28.2502 31.2496C28.261 30.3522 28.4486 29.4658 28.8021 28.6409C29.1556 27.816 29.6681 27.0688 30.3104 26.442C30.9527 25.8152 31.7121 25.321 32.5454 24.9877C33.3787 24.6545 34.2694 24.4886 35.1668 24.4996C36.3701 24.4927 37.5571 24.7787 38.6252 25.3329L42.0002 27.2079L44.0835 23.9996C44.735 23.0285 45.6156 22.2327 46.6474 21.6824C47.6793 21.1322 48.8307 20.8443 50.0002 20.8443C51.1696 20.8443 52.321 21.1322 53.3529 21.6824C54.3847 22.2327 55.2653 23.0285 55.9168 23.9996L58.0002 27.2079L61.3752 25.3329C62.4433 24.7787 63.6302 24.4927 64.8335 24.4996C66.6357 24.4769 68.3747 25.1629 69.6762 26.4098C70.9776 27.6567 71.7374 29.3648 71.7918 31.1663L71.1252 34.7079L74.5418 35.8746C75.8022 36.2691 76.9159 37.0312 77.74 38.0632C78.5641 39.0951 79.061 40.3499 79.1668 41.6663H20.8335Z" fill="#396941"/>
</svg>
