<svg width="253" height="90" viewBox="0 0 253 90" fill="none" xmlns="http://www.w3.org/2000/svg">
<path d="M251.5 45C251.5 50.598 248.315 56.1357 242.094 61.3681C235.88 66.5942 226.799 71.3681 215.446 75.4066C192.754 83.4788 161.307 88.5 126.5 88.5C91.6928 88.5 60.2457 83.4788 37.5537 75.4066C26.2011 71.3681 17.1203 66.5942 10.9065 61.3681C4.68519 56.1357 1.5 50.598 1.5 45C1.5 39.402 4.68519 33.8643 10.9065 28.6319C17.1203 23.4058 26.2011 18.6319 37.5537 14.5934C60.2457 6.52119 91.6928 1.5 126.5 1.5C161.307 1.5 192.754 6.52119 215.446 14.5934C226.799 18.6319 235.88 23.4058 242.094 28.6319C248.315 33.8643 251.5 39.402 251.5 45Z" fill="white" stroke="#FF5936" stroke-width="3"/>
<path d="M57.23 49.26C45.19 48.31 45 42.99 45 40.3C45 33.8 50.74 30 58.94 30C64.3 30 68.9 31.44 72.5 33.42V42.77C67.75 40.03 63.34 39.73 58.94 39.73V40.79C67.75 40.79 72.88 43.53 72.88 49.64C72.88 56.52 67.9 60.92 59.32 60.92C54.91 60.92 50.16 59.59 45.38 56.13V47.54C49.03 49.25 53.36 50.31 57.24 50.31V49.25L57.23 49.26Z" fill="#FF5936"/>
<path d="M87.9 30.6099V60.3199H75.25V30.6099H87.9Z" fill="#FF5936"/>
<path d="M90.2202 45.46C90.2202 35.32 96.3002 30.04 106.06 30.04C110.73 30.04 115.48 30.88 118.52 32.7V43.3C112.63 43.3 109.97 42.84 104.39 41.59V50.18H105.72V43.38C109.79 44.22 114.04 44.44 118.52 44.44V57.85C114.95 60.21 110.01 60.89 104.54 60.89C96.3002 60.89 90.2202 55.65 90.2202 45.46Z" fill="#FF5936"/>
<path d="M149.34 30.6099V60.3199H134.37L131.33 50.3299V60.3199H120.92V30.6099H135.93L140 42.4299L141.03 42.1599L138.52 35.0499V30.6099H149.35H149.34Z" fill="#FF5936"/>
<path d="M176.17 30.6099V60.3199H163.52V30.6099H176.17Z" fill="#FF5936"/>
<path d="M207.33 30.6099V60.3199H192.36L189.32 50.3299V60.3199H178.91V30.6099H193.92L197.99 42.4299L199.02 42.1599L196.51 35.0499V30.6099H207.34H207.33Z" fill="#FF5936"/>
</svg>
