<svg width="50" height="50" viewBox="0 0 50 50" fill="none" xmlns="http://www.w3.org/2000/svg">
<path d="M34.3753 5.88525C30.7503 5.88525 27.2712 7.57275 25.0003 10.2394C22.7295 7.57275 19.2503 5.88525 15.6253 5.88525C9.20866 5.88525 4.16699 10.9269 4.16699 17.3436C4.16699 25.2186 11.2503 31.6353 21.9795 41.3853L25.0003 44.1144L28.0212 41.3644C38.7503 31.6353 45.8337 25.2186 45.8337 17.3436C45.8337 10.9269 40.792 5.88525 34.3753 5.88525ZM25.2087 38.2811L25.0003 38.4894L24.792 38.2811C14.8753 29.3019 8.33366 23.3644 8.33366 17.3436C8.33366 13.1769 11.4587 10.0519 15.6253 10.0519C18.8337 10.0519 21.9587 12.1144 23.0628 14.9686H26.9587C28.042 12.1144 31.167 10.0519 34.3753 10.0519C38.542 10.0519 41.667 13.1769 41.667 17.3436C41.667 23.3644 35.1253 29.3019 25.2087 38.2811Z" fill="white"/>
</svg>
