<svg width="50" height="50" viewBox="0 0 50 50" fill="none" xmlns="http://www.w3.org/2000/svg">
<path d="M24.9997 13.5417C32.8955 13.5417 39.9372 17.9792 43.3747 25C39.9372 32.0208 32.8955 36.4583 24.9997 36.4583C17.1038 36.4583 10.0622 32.0208 6.62467 25C10.0622 17.9792 17.1038 13.5417 24.9997 13.5417ZM24.9997 9.375C14.583 9.375 5.68717 15.8542 2.08301 25C5.68717 34.1458 14.583 40.625 24.9997 40.625C35.4163 40.625 44.3122 34.1458 47.9163 25C44.3122 15.8542 35.4163 9.375 24.9997 9.375ZM24.9997 19.7917C27.8747 19.7917 30.208 22.125 30.208 25C30.208 27.875 27.8747 30.2083 24.9997 30.2083C22.1247 30.2083 19.7913 27.875 19.7913 25C19.7913 22.125 22.1247 19.7917 24.9997 19.7917ZM24.9997 15.625C19.833 15.625 15.6247 19.8333 15.6247 25C15.6247 30.1667 19.833 34.375 24.9997 34.375C30.1663 34.375 34.3747 30.1667 34.3747 25C34.3747 19.8333 30.1663 15.625 24.9997 15.625Z" fill="white"/>
</svg>
