<svg width="212" height="200" viewBox="0 0 212 200" fill="none" xmlns="http://www.w3.org/2000/svg">
<path d="M212 29.9652C212 13.4146 198.576 0 182.013 0C175.507 0 169.495 2.07665 164.579 5.59582V5.57491L122.374 36.9338H122.346C117.981 40.8362 112.262 43.2056 106 43.2056C99.7376 43.2056 94.0192 40.8362 89.6537 36.9338H89.6258L47.4211 5.57491V5.59582C42.5046 2.07665 36.4933 0 29.9868 0C13.4243 0 0 13.4146 0 29.9652V82.0557C0 82.0697 0 82.0836 0 82.1045C0 82.1254 0 82.1324 0 82.1533V166.627C0 185.059 14.9516 200 33.397 200H178.603C197.048 200 212 185.059 212 166.627V82.1533C212 82.1394 212 82.1254 212 82.1045C212 82.0836 212 82.0767 212 82.0557V29.9652Z" fill="#FF5936"/>
</svg>
