<svg width="1597" height="1021" viewBox="0 0 1597 1021" fill="none" xmlns="http://www.w3.org/2000/svg">
<g clip-path="url(#clip0_724_8414)">
<path d="M1462.66 88.6575L1028.55 195.521L1042.58 252.515L1476.69 145.652L1462.66 88.6575Z" fill="#AFD2F2"/>
<path d="M1109.87 199.984L1107.4 189.946L1127.17 185.079L1130.45 198.378L1113.94 202.442C1111.66 203.003 1110.43 202.263 1109.87 199.984ZM1129.45 217.53L1118.48 220.229L1116.12 210.603C1115.01 210.876 1113.87 211.189 1112.7 211.477L1110.96 204.416C1118.42 202.512 1123.88 201.171 1131.01 199.147L1132.74 206.208C1130.79 206.755 1128.95 207.31 1127.06 207.809L1129.45 217.53ZM1114.84 193.12L1114.39 194.305C1117.17 194.828 1120.42 194.634 1123.27 193.932L1122.99 192.792C1120.14 193.494 1117.27 193.46 1114.8 193.128L1114.84 193.12ZM1147.26 213.146L1136.29 215.845L1135.81 213.882C1134.1 214.303 1132.29 214.748 1130.4 215.248L1128.75 208.567C1130.68 208.059 1132.45 207.622 1134.16 207.201L1128.63 184.72L1139.59 182.021L1147.26 213.146Z" fill="#FF5936"/>
<path d="M1145.26 194.798L1141.96 181.404L1161.74 176.537L1162.62 180.115L1164.07 179.756L1163.19 176.178L1174.16 173.479L1178.26 190.134L1167.29 192.833L1166.27 188.685L1164.81 189.044L1165.84 193.192L1149.33 197.256C1147.05 197.817 1145.82 197.078 1145.26 194.798ZM1148.39 207.495L1146.31 199.072L1178.51 191.147L1181.82 204.604L1170.86 207.303L1169.62 202.269L1148.39 207.495ZM1150.25 186.819L1150.02 188.052C1152.66 188.275 1155.27 188.102 1158.03 187.423L1157.76 186.315C1155.19 186.947 1152.72 187.017 1150.22 186.827L1150.25 186.819Z" fill="#FF5936"/>
<path d="M1178.58 183.001L1176.13 173.027L1195.97 168.144L1198.42 178.118L1194.17 179.164L1195.64 185.116C1196.54 188.789 1198.94 190.047 1201.36 190.056L1203.63 199.27C1199.38 200.315 1194.61 200.718 1190.3 197.95L1189.68 198.842C1190.36 199.311 1191.17 199.717 1192.06 200.068C1189.82 201.895 1187.02 203.357 1183.76 204.16L1181.49 194.946C1183.44 193.862 1185.14 191.597 1184.23 187.924L1182.77 181.972L1178.55 183.009L1178.58 183.001ZM1216.37 196.134L1204.64 199.02L1196.98 167.895L1208.7 165.009L1216.37 196.134Z" fill="#FF5936"/>
<path d="M1231.96 181.651L1221.18 184.303L1219.61 177.907C1222.15 176.642 1224.4 174.309 1223.92 172.346C1223.53 170.763 1222.27 170.031 1221.01 170.343C1218.09 171.06 1215.69 172.523 1213.44 175.26L1211.36 166.806C1213.39 164.527 1216.62 162.49 1221.85 161.203C1228.79 159.494 1233.18 162.341 1234.54 167.85C1235.54 171.903 1234.66 175.981 1231.31 179.023L1231.96 181.683L1231.96 181.651ZM1234.43 191.688L1226.16 193.724C1224.45 194.145 1223.29 193.69 1222.86 191.949L1221.21 185.236L1232.17 182.537L1234.43 191.688Z" fill="#FF5936"/>
<path d="M1247.22 171.042L1247.54 172.34L1275.17 165.538L1274.85 164.24L1247.22 171.042Z" fill="#FF5936"/>
<path d="M1249.37 160.372L1248.68 161.517L1273.03 176.209L1273.72 175.064L1249.37 160.372Z" fill="#FF5936"/>
<path d="M1269.14 156.446L1267.99 155.754L1253.24 180.071L1254.39 180.763L1269.14 156.446Z" fill="#FF5936"/>
<path d="M1247.27 165.49L1247.06 166.818L1275.2 171.107L1275.41 169.779L1247.27 165.49Z" fill="#FF5936"/>
<path d="M1249.36 176.159L1250.16 177.237L1273.1 160.374L1272.29 159.296L1249.36 176.159Z" fill="#FF5936"/>
<path d="M1253.34 156.439L1252.26 157.242L1269.12 180.126L1270.2 179.323L1253.34 156.439Z" fill="#FF5936"/>
<path d="M1258.41 182.224L1259.74 182.435L1264.05 154.34L1262.72 154.13L1258.41 182.224Z" fill="#FF5936"/>
<path d="M1264.01 154.317L1262.68 154.107L1258.37 182.201L1259.7 182.411L1264.01 154.317Z" fill="#FF5936"/>
<path d="M1269.12 180.126L1270.2 179.323L1253.34 156.439L1252.26 157.242L1269.12 180.126Z" fill="#FF5936"/>
<path d="M1258.46 154.305L1257.16 154.625L1263.96 182.236L1265.26 181.916L1258.46 154.305Z" fill="#FF5936"/>
<path d="M1424.38 127.399C1425.56 124.959 1426.6 122.519 1427.19 119.99C1427.7 117.817 1427.81 115.674 1427.33 113.608L1426.63 110.758L1396.05 118.285L1399.96 134.149L1406.23 132.604C1405.22 134.768 1404.28 136.979 1403.69 139.207C1403.66 139.35 1403.63 139.492 1403.57 139.674C1403.46 140.037 1403.38 140.393 1403.3 140.748C1402.79 142.922 1402.68 145.065 1403.15 147.131L1403.85 149.98L1434.5 142.437L1430.59 126.574L1424 128.197C1424.14 127.928 1424.27 127.66 1424.38 127.399Z" fill="#FF5936"/>
<path d="M1388.73 120.087C1385.99 120.829 1383.51 122.078 1381.16 123.731C1378.47 125.636 1376.12 127.961 1373.85 130.334C1371.5 132.794 1369.19 135.309 1366.82 137.705C1366.23 138.32 1365.64 138.903 1365 139.462L1361.85 126.67L1358.08 127.599C1355.34 128.341 1352.86 129.59 1350.51 131.242C1347.82 133.147 1345.47 135.472 1343.2 137.845C1340.85 140.305 1338.54 142.82 1336.17 145.216C1335.59 145.831 1334.99 146.414 1334.35 146.974L1331.21 134.182L1327.44 135.11C1324.69 135.852 1322.21 137.101 1319.86 138.754C1317.17 140.658 1314.82 142.983 1312.55 145.356C1310.2 147.816 1307.89 150.331 1305.52 152.727C1303.48 154.808 1301.28 156.762 1298.7 158.169C1296.41 159.403 1290.69 161.012 1288.59 161.496L1292.5 177.359C1292.5 177.359 1300.9 175.292 1302.91 174.461C1305.04 173.566 1307.99 171.9 1309.87 170.498C1312.42 168.593 1314.69 166.355 1316.88 164.037C1318.16 162.681 1319.44 161.325 1320.72 159.969L1321.6 163.547L1323.13 169.785C1323.13 169.785 1331.53 167.717 1333.54 166.886C1335.68 165.992 1338.63 164.325 1340.5 162.924C1343.05 161.019 1345.33 158.78 1347.51 156.462C1348.79 155.106 1350.07 153.75 1351.35 152.394L1352.23 155.972L1353.77 162.21C1353.77 162.21 1362.16 160.143 1364.18 159.312C1366.31 158.417 1369.26 156.751 1371.13 155.349C1373.69 153.444 1375.96 151.206 1378.15 148.888C1379.42 147.532 1380.7 146.176 1381.98 144.82L1384.41 154.667L1400.28 150.759L1392.48 119.064L1388.71 119.992L1388.73 120.087Z" fill="#FF5936"/>
<path d="M1447.04 129.644C1444.44 128.069 1441.04 128.904 1439.47 131.508C1437.89 134.113 1438.73 137.501 1441.33 139.076C1443.94 140.651 1447.33 139.816 1448.9 137.212C1450.48 134.607 1449.65 131.219 1447.04 129.644Z" fill="#FF5936"/>
<path d="M1442.94 106.709L1432.33 109.322L1437.15 128.922L1447.77 126.309L1442.94 106.709Z" fill="#FF5936"/>
<path d="M1299.6 95.2146L1042.58 252.514L1028.55 195.52L1285.57 38.2204L1299.6 95.2146Z" fill="#FFE053"/>
<path d="M1285.57 38.2207L129 322.929L143.03 379.923L1299.6 95.2149L1285.57 38.2207Z" fill="#FF5936"/>
<path d="M161.346 339.649L158.875 329.612L178.648 324.744L181.921 338.043L165.412 342.107C163.131 342.669 161.907 341.929 161.346 339.649ZM180.923 357.196L169.959 359.894L167.59 350.269C166.481 350.542 165.348 350.854 164.175 351.143L162.437 344.082C169.9 342.178 175.35 340.836 182.48 338.812L184.218 345.873C182.269 346.42 180.423 346.975 178.53 347.475L180.923 357.196ZM166.31 332.785L165.863 333.97C168.647 334.494 171.892 334.299 174.744 333.597L174.463 332.457C171.612 333.159 168.747 333.126 166.279 332.793L166.31 332.785ZM198.731 352.812L187.767 355.511L187.284 353.548C185.573 353.969 183.767 354.413 181.873 354.913L180.229 348.232C182.154 347.725 183.928 347.288 185.639 346.867L180.097 324.354L191.061 321.655L198.731 352.812Z" fill="#AFD2F2"/>
<path d="M196.735 334.464L193.438 321.07L213.21 316.203L214.091 319.781L215.548 319.422L214.668 315.844L225.631 313.145L229.731 329.8L218.768 332.499L217.747 328.351L216.289 328.71L217.31 332.858L200.801 336.922C198.52 337.483 197.296 336.744 196.735 334.464ZM199.86 347.161L197.787 338.739L229.981 330.813L233.293 344.27L222.33 346.969L221.09 341.935L199.86 347.161ZM201.727 326.485L201.493 327.718C204.135 327.941 206.748 327.768 209.505 327.089L209.232 325.981C206.665 326.613 204.196 326.683 201.695 326.493L201.727 326.485Z" fill="#AFD2F2"/>
<path d="M230.051 322.635L227.596 312.661L247.432 307.778L249.887 317.752L245.641 318.797L247.107 324.75C248.011 328.423 250.404 329.681 252.826 329.689L255.094 338.903C250.848 339.949 246.074 340.351 241.763 337.584L241.143 338.476C241.829 338.945 242.635 339.351 243.528 339.702C241.289 341.529 238.49 342.991 235.226 343.794L232.958 334.58C234.909 333.495 236.604 331.231 235.699 327.558L234.234 321.606L230.02 322.643L230.051 322.635ZM267.832 335.768L256.108 338.654L248.446 307.529L260.17 304.643L267.84 335.799L267.832 335.768Z" fill="#AFD2F2"/>
<path d="M283.39 321.292L272.617 323.945L271.042 317.549C273.588 316.284 275.836 313.951 275.353 311.987C274.963 310.404 273.708 309.672 272.44 309.984C269.525 310.702 267.129 312.165 264.879 314.902L262.798 306.447C264.825 304.169 268.054 302.131 273.282 300.844C280.222 299.136 284.619 301.983 285.975 307.492C286.973 311.545 286.095 315.623 282.744 318.664L283.398 321.324L283.39 321.292ZM285.861 331.33L277.591 333.366C275.88 333.787 274.726 333.332 274.297 331.591L272.645 324.878L283.609 322.179L285.861 331.33Z" fill="#AFD2F2"/>
<path d="M298.698 310.707L299.018 312.005L326.649 305.203L326.329 303.905L298.698 310.707Z" fill="#AFD2F2"/>
<path d="M300.836 300.005L300.143 301.15L324.495 315.842L325.188 314.697L300.836 300.005Z" fill="#AFD2F2"/>
<path d="M320.613 296.111L319.468 295.419L304.718 319.736L305.863 320.428L320.613 296.111Z" fill="#AFD2F2"/>
<path d="M298.704 305.131L298.493 306.459L326.636 310.748L326.847 309.42L298.704 305.131Z" fill="#AFD2F2"/>
<path d="M300.832 315.824L301.635 316.902L324.571 300.039L323.768 298.961L300.832 315.824Z" fill="#AFD2F2"/>
<path d="M304.816 296.104L303.737 296.907L320.595 319.791L321.674 318.988L304.816 296.104Z" fill="#AFD2F2"/>
<path d="M309.887 321.889L311.216 322.1L315.525 294.005L314.196 293.795L309.887 321.889Z" fill="#AFD2F2"/>
<path d="M315.485 293.982L314.156 293.772L309.847 321.866L311.176 322.076L315.485 293.982Z" fill="#AFD2F2"/>
<path d="M320.555 319.767L321.634 318.964L304.776 296.081L303.697 296.884L320.555 319.767Z" fill="#AFD2F2"/>
<path d="M309.937 293.97L308.638 294.29L315.434 321.901L316.734 321.581L309.937 293.97Z" fill="#AFD2F2"/>
<path d="M511.824 258.243L512.144 259.541L539.775 252.74L539.455 251.441L511.824 258.243Z" fill="#AFD2F2"/>
<path d="M513.962 247.541L513.269 248.686L537.621 263.378L538.314 262.233L513.962 247.541Z" fill="#AFD2F2"/>
<path d="M533.739 243.647L532.594 242.955L517.844 267.272L518.989 267.964L533.739 243.647Z" fill="#AFD2F2"/>
<path d="M511.83 252.667L511.619 253.995L539.762 258.284L539.973 256.956L511.83 252.667Z" fill="#AFD2F2"/>
<path d="M513.958 263.36L514.761 264.438L537.697 247.576L536.894 246.497L513.958 263.36Z" fill="#AFD2F2"/>
<path d="M517.91 243.648L516.831 244.451L533.689 267.335L534.768 266.532L517.91 243.648Z" fill="#AFD2F2"/>
<path d="M523.013 269.426L524.342 269.636L528.65 241.541L527.322 241.331L523.013 269.426Z" fill="#AFD2F2"/>
<path d="M528.61 241.518L527.282 241.308L522.973 269.402L524.302 269.612L528.61 241.518Z" fill="#AFD2F2"/>
<path d="M533.681 267.304L534.76 266.5L517.902 243.617L516.823 244.42L533.681 267.304Z" fill="#AFD2F2"/>
<path d="M523.063 241.506L521.764 241.826L528.56 269.437L529.86 269.117L523.063 241.506Z" fill="#AFD2F2"/>
<path d="M475.852 267.065C477.032 264.625 478.078 262.185 478.666 259.656C479.173 257.483 479.284 255.34 478.809 253.274L478.107 250.424L447.529 257.951L451.434 273.815L457.708 272.27C456.695 274.434 455.761 276.645 455.167 278.873C455.134 279.016 455.102 279.158 455.046 279.34C454.934 279.703 454.853 280.059 454.773 280.414C454.266 282.588 454.155 284.731 454.63 286.797L455.332 289.646L485.973 282.103L482.068 266.24L475.477 267.863C475.612 267.594 475.748 267.326 475.852 267.065Z" fill="#AFD2F2"/>
<path d="M440.202 259.721C437.461 260.463 434.979 261.712 432.63 263.365C429.94 265.27 427.588 267.595 425.316 269.968C422.964 272.427 420.659 274.942 418.292 277.338C417.704 277.953 417.108 278.537 416.473 279.096L413.331 266.336L409.561 267.264C406.819 268.006 404.338 269.255 401.989 270.908C399.299 272.812 396.947 275.138 394.675 277.51C392.323 279.97 390.018 282.485 387.65 284.881C387.062 285.496 386.467 286.079 385.831 286.639L382.69 273.878L378.919 274.807C376.178 275.549 373.696 276.798 371.347 278.45C368.657 280.355 366.306 282.68 364.033 285.053C361.681 287.513 359.377 290.028 357.009 292.424C354.967 294.505 352.76 296.459 350.182 297.866C347.898 299.1 342.178 300.709 340.079 301.192L343.984 317.056C343.984 317.056 352.381 314.989 354.394 314.157C356.527 313.263 359.477 311.596 361.35 310.195C363.906 308.29 366.178 306.051 368.363 303.734C369.642 302.378 370.922 301.022 372.201 299.666L373.082 303.244L374.617 309.481C374.617 309.481 383.014 307.414 385.028 306.583C387.16 305.689 390.11 304.022 391.984 302.621C394.539 300.715 396.811 298.477 398.996 296.159C400.276 294.803 401.555 293.447 402.834 292.091L403.715 295.669L405.251 301.907C405.251 301.907 413.648 299.84 415.661 299.008C417.793 298.114 420.744 296.448 422.617 295.046C425.173 293.141 427.445 290.902 429.63 288.585C430.909 287.229 432.189 285.873 433.468 284.517L435.892 294.364L451.767 290.456L443.973 258.793L440.202 259.721Z" fill="#AFD2F2"/>
<path d="M498.518 269.31C495.912 267.735 492.521 268.57 490.945 271.174C489.368 273.779 490.202 277.167 492.807 278.742C495.413 280.317 498.804 279.482 500.381 276.878C501.958 274.273 501.123 270.885 498.518 269.31Z" fill="#AFD2F2"/>
<path d="M494.418 246.375L483.803 248.988L488.627 268.588L499.243 265.975L494.418 246.375Z" fill="#AFD2F2"/>
<path d="M549.574 244.081L547.103 234.043L566.876 229.176L570.15 242.475L553.641 246.539C551.359 247.1 550.136 246.36 549.574 244.081ZM569.151 261.627L558.188 264.326L555.818 254.7C554.709 254.973 553.576 255.286 552.404 255.575L550.666 248.514C558.128 246.609 563.578 245.268 570.709 243.244L572.447 250.305C570.498 250.852 568.652 251.407 566.758 251.907L569.151 261.627ZM554.539 237.217L554.091 238.402C556.875 238.925 560.121 238.731 562.973 238.029L562.692 236.889C559.84 237.591 556.975 237.557 554.507 237.225L554.539 237.217ZM586.959 257.244L575.996 259.942L575.512 257.979C573.801 258.4 571.995 258.845 570.102 259.345L568.457 252.664C570.382 252.156 572.157 251.719 573.868 251.298L568.326 228.786L579.29 226.087L586.959 257.244Z" fill="#AFD2F2"/>
<path d="M584.931 238.903L581.634 225.51L601.406 220.642L602.287 224.22L603.745 223.862L602.864 220.284L613.828 217.585L617.928 234.24L606.964 236.939L605.943 232.791L604.485 233.149L605.506 237.297L588.997 241.361C586.716 241.923 585.492 241.183 584.931 238.903ZM588.056 251.6L585.983 243.178L618.177 235.253L621.49 248.71L610.526 251.409L609.287 246.374L588.056 251.6ZM589.923 230.924L589.689 232.157C592.332 232.38 594.944 232.207 597.701 231.529L597.428 230.42C594.861 231.052 592.392 231.123 589.892 230.932L589.923 230.924Z" fill="#AFD2F2"/>
<path d="M618.28 227.067L615.825 217.093L635.661 212.21L638.116 222.184L633.87 223.229L635.335 229.182C636.239 232.855 638.633 234.113 641.054 234.121L643.323 243.335C639.077 244.38 634.303 244.783 629.992 242.016L629.371 242.907C630.058 243.376 630.864 243.783 631.757 244.134C629.518 245.961 626.719 247.422 623.455 248.226L621.187 239.012C623.138 237.927 624.832 235.663 623.928 231.99L622.463 226.037L618.248 227.075L618.28 227.067ZM656.061 240.199L644.337 243.085L636.675 211.96L648.399 209.074L656.068 240.231L656.061 240.199Z" fill="#AFD2F2"/>
<path d="M671.619 225.724L660.845 228.376L659.271 221.98C661.816 220.716 664.065 218.382 663.582 216.419C663.192 214.836 661.936 214.104 660.669 214.416C657.754 215.134 655.358 216.596 653.108 219.333L651.027 210.879C653.053 208.6 656.282 206.563 661.511 205.276C668.45 203.568 672.848 206.414 674.204 211.924C675.202 215.977 674.323 220.055 670.972 223.096L671.627 225.756L671.619 225.724ZM674.09 235.761L665.82 237.797C664.108 238.218 662.955 237.764 662.526 236.022L660.874 229.31L671.837 226.611L674.09 235.761Z" fill="#AFD2F2"/>
<path d="M686.926 215.139L687.245 216.437L714.876 209.635L714.557 208.337L686.926 215.139Z" fill="#AFD2F2"/>
<path d="M689.063 204.437L688.371 205.581L712.723 220.273L713.416 219.129L689.063 204.437Z" fill="#AFD2F2"/>
<path d="M708.84 200.542L707.695 199.85L692.946 224.168L694.091 224.86L708.84 200.542Z" fill="#AFD2F2"/>
<path d="M686.932 209.563L686.721 210.891L714.864 215.179L715.075 213.851L686.932 209.563Z" fill="#AFD2F2"/>
<path d="M689.028 220.263L689.831 221.341L712.768 204.479L711.964 203.401L689.028 220.263Z" fill="#AFD2F2"/>
<path d="M693.012 200.543L691.932 201.346L708.79 224.23L709.87 223.427L693.012 200.543Z" fill="#AFD2F2"/>
<path d="M698.082 226.329L699.411 226.539L703.72 198.445L702.391 198.235L698.082 226.329Z" fill="#AFD2F2"/>
<path d="M703.712 198.414L702.383 198.203L698.074 226.298L699.403 226.508L703.712 198.414Z" fill="#AFD2F2"/>
<path d="M708.782 224.199L709.862 223.396L693.004 200.512L691.925 201.315L708.782 224.199Z" fill="#AFD2F2"/>
<path d="M698.133 198.41L696.834 198.729L703.631 226.34L704.93 226.02L698.133 198.41Z" fill="#AFD2F2"/>
<path d="M900.052 162.675L900.371 163.973L928.002 157.171L927.683 155.873L900.052 162.675Z" fill="#AFD2F2"/>
<path d="M902.189 151.973L901.497 153.117L925.849 167.809L926.542 166.665L902.189 151.973Z" fill="#AFD2F2"/>
<path d="M921.966 148.079L920.821 147.386L906.072 171.704L907.217 172.396L921.966 148.079Z" fill="#AFD2F2"/>
<path d="M900.058 157.099L899.847 158.427L927.99 162.715L928.201 161.387L900.058 157.099Z" fill="#AFD2F2"/>
<path d="M902.154 167.799L902.957 168.878L925.894 152.015L925.09 150.937L902.154 167.799Z" fill="#AFD2F2"/>
<path d="M906.138 148.08L905.058 148.883L921.916 171.766L922.996 170.963L906.138 148.08Z" fill="#AFD2F2"/>
<path d="M911.208 173.865L912.537 174.075L916.846 145.981L915.517 145.771L911.208 173.865Z" fill="#AFD2F2"/>
<path d="M916.838 145.95L915.509 145.739L911.2 173.834L912.529 174.044L916.838 145.95Z" fill="#AFD2F2"/>
<path d="M921.908 171.735L922.988 170.932L906.13 148.048L905.05 148.851L921.908 171.735Z" fill="#AFD2F2"/>
<path d="M911.259 145.946L909.96 146.266L916.757 173.876L918.056 173.556L911.259 145.946Z" fill="#AFD2F2"/>
<path d="M864.079 171.497C865.26 169.057 866.306 166.616 866.893 164.088C867.4 161.914 867.511 159.771 867.036 157.705L866.335 154.856L835.757 162.383L839.662 178.246L845.936 176.702C844.923 178.865 843.988 181.077 843.394 183.305C843.362 183.447 843.33 183.59 843.274 183.771C843.161 184.135 843.081 184.49 843 184.846C842.494 187.019 842.383 189.162 842.858 191.228L843.559 194.078L874.2 186.535L870.295 170.672L863.704 172.294C863.84 172.026 863.976 171.757 864.079 171.497Z" fill="#AFD2F2"/>
<path d="M828.429 164.153C825.688 164.895 823.206 166.144 820.857 167.796C818.167 169.701 815.816 172.026 813.543 174.399C811.191 176.859 808.887 179.374 806.519 181.77C805.931 182.385 805.335 182.968 804.7 183.528L801.559 170.767L797.788 171.695C795.047 172.437 792.565 173.686 790.216 175.339C787.526 177.244 785.175 179.569 782.902 181.942C780.55 184.402 778.245 186.917 775.878 189.313C775.29 189.928 774.694 190.511 774.059 191.07L770.918 178.31L767.147 179.238C764.406 179.98 761.924 181.229 759.575 182.882C756.885 184.787 754.533 187.112 752.261 189.485C749.909 191.944 747.604 194.459 745.237 196.856C743.195 198.937 740.987 200.891 738.41 202.297C736.126 203.531 730.406 205.141 728.306 205.624L732.211 221.488C732.211 221.488 740.608 219.42 742.622 218.589C744.754 217.695 747.705 216.028 749.578 214.627C752.133 212.721 754.405 210.483 756.591 208.165C757.87 206.809 759.149 205.453 760.429 204.097L761.309 207.675L762.845 213.913C762.845 213.913 771.242 211.846 773.255 211.015C775.388 210.12 778.338 208.454 780.211 207.052C782.767 205.147 785.039 202.909 787.224 200.591C788.503 199.235 789.783 197.879 791.062 196.523L791.943 200.101L793.478 206.339C793.478 206.339 801.875 204.271 803.889 203.44C806.021 202.546 808.971 200.879 810.845 199.478C813.4 197.573 815.672 195.334 817.857 193.016C819.137 191.66 820.416 190.304 821.695 188.948L824.119 198.796L839.995 194.888L832.2 163.224L828.429 164.153Z" fill="#AFD2F2"/>
<path d="M886.714 173.749C884.108 172.174 880.718 173.008 879.141 175.613C877.564 178.217 878.398 181.605 881.004 183.18C883.609 184.755 887 183.921 888.577 181.316C890.154 178.712 889.32 175.324 886.714 173.749Z" fill="#AFD2F2"/>
<path d="M882.614 150.815L871.999 153.428L876.824 173.027L887.439 170.414L882.614 150.815Z" fill="#AFD2F2"/>
<path d="M937.771 148.52L935.3 138.483L955.072 133.615L958.346 146.914L941.837 150.978C939.556 151.54 938.332 150.8 937.771 148.52ZM957.348 166.067L946.384 168.766L944.014 159.14C942.905 159.413 941.772 159.725 940.6 160.014L938.862 152.953C946.324 151.049 951.775 149.707 958.905 147.683L960.643 154.744C958.694 155.291 956.848 155.846 954.955 156.346L957.348 166.067ZM942.735 141.656L942.288 142.841C945.071 143.365 948.317 143.17 951.169 142.468L950.888 141.328C948.036 142.03 945.171 141.997 942.703 141.664L942.735 141.656ZM975.156 161.683L964.192 164.382L963.709 162.419C961.998 162.84 960.192 163.285 958.298 163.784L956.653 157.103C958.579 156.596 960.353 156.159 962.064 155.738L956.522 133.225L967.486 130.526L975.156 161.683Z" fill="#AFD2F2"/>
<path d="M973.159 143.335L969.862 129.941L989.635 125.074L990.516 128.652L991.973 128.293L991.093 124.715L1002.06 122.016L1006.16 138.671L995.192 141.37L994.171 137.222L992.714 137.581L993.735 141.729L977.226 145.793C974.944 146.355 973.721 145.615 973.159 143.335ZM976.285 156.032L974.212 147.61L1006.41 139.685L1009.72 153.142L998.755 155.84L997.515 150.806L976.285 156.032ZM978.152 135.356L977.918 136.589C980.56 136.812 983.173 136.639 985.929 135.96L985.657 134.852C983.09 135.484 980.62 135.554 978.12 135.364L978.152 135.356Z" fill="#AFD2F2"/>
<path d="M1006.48 131.506L1004.02 121.532L1023.86 116.649L1026.31 126.623L1022.07 127.668L1023.53 133.621C1024.44 137.294 1026.83 138.552 1029.25 138.56L1031.52 147.774C1027.27 148.82 1022.5 149.222 1018.19 146.455L1017.57 147.347C1018.25 147.816 1019.06 148.222 1019.95 148.573C1017.71 150.4 1014.91 151.862 1011.65 152.665L1009.38 143.451C1011.33 142.366 1013.03 140.102 1012.12 136.429L1010.66 130.477L1006.44 131.514L1006.48 131.506ZM1044.26 144.639L1032.53 147.525L1024.87 116.4L1036.6 113.514L1044.26 144.67L1044.26 144.639Z" fill="#AFD2F2"/>
<path d="M1059.85 130.156L1049.07 132.808L1047.5 126.412C1050.04 125.147 1052.29 122.814 1051.81 120.851C1051.42 119.267 1050.16 118.536 1048.9 118.848C1045.98 119.565 1043.59 121.028 1041.34 123.765L1039.26 115.311C1041.28 113.032 1044.51 110.994 1049.74 109.707C1056.68 107.999 1061.08 110.846 1062.43 116.355C1063.43 120.408 1062.55 124.486 1059.2 127.528L1059.86 130.187L1059.85 130.156ZM1062.32 140.193L1054.05 142.229C1052.34 142.65 1051.18 142.195 1050.75 140.454L1049.1 133.741L1060.07 131.042L1062.32 140.193Z" fill="#AFD2F2"/>
<path d="M1075.15 119.57L1075.47 120.869L1103.1 114.067L1102.79 112.769L1075.15 119.57Z" fill="#AFD2F2"/>
<path d="M1077.29 108.869L1076.6 110.013L1100.95 124.705L1101.64 123.56L1077.29 108.869Z" fill="#AFD2F2"/>
<path d="M1097.04 104.982L1095.89 104.29L1081.14 128.607L1082.29 129.299L1097.04 104.982Z" fill="#AFD2F2"/>
<path d="M1075.16 113.994L1074.95 115.322L1103.09 119.611L1103.3 118.283L1075.16 113.994Z" fill="#AFD2F2"/>
<path d="M1077.26 124.695L1078.06 125.773L1101 108.911L1100.19 107.832L1077.26 124.695Z" fill="#AFD2F2"/>
<path d="M1081.24 104.975L1080.16 105.778L1097.02 128.662L1098.1 127.859L1081.24 104.975Z" fill="#AFD2F2"/>
<path d="M1086.31 130.761L1087.64 130.971L1091.95 102.876L1090.62 102.666L1086.31 130.761Z" fill="#AFD2F2"/>
<path d="M1091.91 102.853L1090.58 102.643L1086.27 130.737L1087.6 130.947L1091.91 102.853Z" fill="#AFD2F2"/>
<path d="M1097.01 128.631L1098.09 127.828L1081.23 104.944L1080.15 105.747L1097.01 128.631Z" fill="#AFD2F2"/>
<path d="M1086.36 102.841L1085.06 103.161L1091.86 130.772L1093.16 130.452L1086.36 102.841Z" fill="#AFD2F2"/>
<path d="M1252.28 75.9361C1253.46 73.4962 1254.5 71.0559 1255.09 68.527C1255.6 66.3537 1255.71 64.2107 1255.23 62.1448L1254.53 59.2951L1223.95 66.8223L1227.86 82.6856L1234.13 81.1412C1233.12 83.3048 1232.18 85.5162 1231.59 87.7445C1231.56 87.8868 1231.53 88.029 1231.47 88.2108C1231.36 88.5742 1231.28 88.9298 1231.2 89.2855C1230.69 91.4588 1230.58 93.6017 1231.05 95.6677L1231.76 98.5174L1262.4 90.9746L1258.49 75.1112L1251.9 76.7336C1252.04 76.4652 1252.17 76.1967 1252.28 75.9361Z" fill="#AFD2F2"/>
<path d="M1216.66 68.5843C1213.92 69.3262 1211.43 70.5752 1209.08 72.2281C1206.39 74.1328 1204.04 76.458 1201.77 78.8308C1199.42 81.2904 1197.11 83.8055 1194.75 86.2017C1194.16 86.8166 1193.56 87.3998 1192.93 87.9592L1189.79 75.1988L1186.02 76.1271C1183.27 76.869 1180.79 78.1181 1178.44 79.7709C1175.75 81.6757 1173.4 84.0008 1171.13 86.3736C1168.78 88.8332 1166.47 91.3483 1164.11 93.7445C1163.52 94.3594 1162.92 94.9427 1162.29 95.502L1159.15 82.7417L1155.37 83.6699C1152.63 84.4118 1150.15 85.6609 1147.8 87.3137C1145.11 89.2185 1142.76 91.5436 1140.49 93.9164C1138.14 96.376 1135.83 98.8911 1133.46 101.287C1131.42 103.368 1129.21 105.322 1126.64 106.729C1124.35 107.963 1118.63 109.573 1116.53 110.056L1120.44 125.919C1120.44 125.919 1128.84 123.852 1130.85 123.021C1132.98 122.126 1135.93 120.46 1137.81 119.058C1140.36 117.153 1142.63 114.915 1144.82 112.597C1146.1 111.241 1147.38 109.885 1148.66 108.529L1149.54 112.107L1151.07 118.345C1151.07 118.345 1159.47 116.278 1161.48 115.446C1163.62 114.552 1166.57 112.885 1168.44 111.484C1170.99 109.579 1173.27 107.34 1175.45 105.022C1176.73 103.666 1178.01 102.311 1179.29 100.955L1180.17 104.533L1181.71 110.77C1181.71 110.77 1190.1 108.703 1192.12 107.872C1194.25 106.977 1197.2 105.311 1199.07 103.909C1201.63 102.004 1203.9 99.7658 1206.08 97.448C1207.36 96.092 1208.64 94.736 1209.92 93.3801L1212.35 103.227L1228.22 99.3195L1220.43 67.656L1216.66 68.5843Z" fill="#AFD2F2"/>
<path d="M1274.94 78.1802C1272.34 76.6053 1268.95 77.4399 1267.37 80.0445C1265.79 82.6491 1266.63 86.0371 1269.23 87.6121C1271.84 89.187 1275.23 88.3524 1276.8 85.7478C1278.38 83.1432 1277.55 79.7552 1274.94 78.1802Z" fill="#AFD2F2"/>
<path d="M1270.84 55.2463L1260.23 57.8594L1265.05 77.459L1275.67 74.846L1270.84 55.2463Z" fill="#AFD2F2"/>
</g>
<path d="M1570.56 946.384L1076.03 833.704L1059.12 907.878L1553.66 1020.56L1570.56 946.384Z" fill="#FF8D9B"/>
<path d="M1088.03 884.338L1093.47 860.438L1135.35 869.978L1128.48 900.101L1092.83 891.978C1088.88 891.077 1087.13 888.294 1088.03 884.338ZM1105.5 877.092L1104.63 878.454C1108.15 880.513 1113.53 882.215 1117.23 883.06L1117.57 881.577C1113.86 880.732 1108.97 879.009 1105.5 877.092Z" fill="#396941"/>
<path d="M1132.95 894.572L1138.39 870.672L1180.27 880.212L1173.4 910.335L1137.75 902.213C1133.8 901.311 1132.05 898.528 1132.95 894.572ZM1150.42 887.327L1149.55 888.688C1153.07 890.747 1158.45 892.449 1162.15 893.294L1162.49 891.811C1158.78 890.966 1153.89 889.243 1150.42 887.327Z" fill="#396941"/>
<path d="M1176.49 911.04L1179.38 898.348C1186.31 899.925 1190.34 899.544 1192.57 895.847L1180.58 893.114L1183.36 880.917L1225.23 890.457L1222.45 902.655L1210.25 899.875C1210.53 904.36 1214.08 906.254 1221.25 907.888L1218.36 920.58C1206.08 917.782 1200.82 915.585 1194.47 909.372L1192.54 909.884C1193.5 910.971 1194.77 912.041 1196.26 913.117C1190.41 913.517 1184.01 912.841 1176.49 911.04Z" fill="#396941"/>
<path d="M1243.44 918.793L1229.43 915.601L1231.32 907.277C1235 907.292 1238.96 905.897 1239.55 903.342C1240.01 901.282 1238.99 899.704 1237.34 899.328C1233.55 898.464 1229.92 898.766 1225.73 900.627L1228.24 889.625C1231.91 888.164 1236.83 887.681 1243.63 889.231C1252.65 891.287 1256.09 897.141 1254.45 904.311C1253.25 909.586 1249.86 913.799 1244.22 915.373L1243.43 918.835L1243.44 918.793ZM1240.46 931.856L1229.71 929.405C1227.48 928.898 1226.41 927.701 1226.93 925.434L1228.92 916.698L1243.17 919.947L1240.46 931.856Z" fill="#396941"/>
<path d="M1328.43 923.075L1331.4 910.012L1357.12 915.871L1353.17 933.178L1331.7 928.286C1328.74 927.61 1327.75 926.041 1328.43 923.075ZM1340.88 954.782L1326.62 951.533L1329.48 939.006C1328.04 938.677 1326.54 938.38 1325.02 938.033L1327.11 928.844C1336.86 930.977 1343.94 932.592 1353.37 934.394L1351.28 943.583C1348.71 943.084 1346.25 942.653 1343.76 942.131L1340.88 954.782ZM1338.16 918.011L1336.96 919.123C1339.87 921.348 1343.74 923.01 1347.45 923.855L1347.79 922.372C1344.08 921.527 1340.79 919.822 1338.12 918.001L1338.16 918.011ZM1364.04 960.059L1349.78 956.81L1350.37 954.255C1348.14 953.748 1345.79 953.213 1343.31 952.691L1345.29 943.996C1347.81 944.528 1350.12 945.053 1352.35 945.56L1359.01 916.303L1373.27 919.552L1364.04 960.059Z" fill="#396941"/>
<path d="M1372.36 937.636L1376.33 920.205L1402.05 926.064L1400.99 930.721L1402.88 931.153L1403.94 926.496L1418.2 929.745L1413.26 951.421L1399 948.172L1400.23 942.773L1398.34 942.341L1397.11 947.74L1375.64 942.847C1372.67 942.171 1371.68 940.603 1372.36 937.636ZM1368.6 954.16L1371.09 943.199L1412.96 952.739L1408.97 970.252L1394.71 967.003L1396.21 960.451L1368.6 954.16ZM1382.78 931.297L1381.79 932.589C1384.72 934.383 1387.84 935.702 1391.43 936.519L1391.76 935.077C1388.42 934.316 1385.52 932.962 1382.74 931.288L1382.78 931.297Z" fill="#396941"/>
<path d="M1417.84 943.317L1420.8 930.337L1446.6 936.215L1443.64 949.195L1438.12 947.937L1436.35 955.684C1435.26 960.464 1437.3 963.313 1440.1 964.73L1437.37 976.722C1431.85 975.464 1426.09 973.154 1422.71 967.442L1421.47 968.114C1421.99 969.057 1422.69 969.996 1423.52 970.922C1419.86 971.736 1415.77 971.801 1411.53 970.834L1414.26 958.843C1417.15 958.721 1420.43 957.084 1421.52 952.303L1423.28 944.556L1417.8 943.308L1417.84 943.317ZM1453.93 980.497L1438.69 977.022L1447.92 936.515L1463.16 939.989L1453.93 980.497Z" fill="#396941"/>
<path d="M1480.36 972.777L1466.35 969.584L1468.24 961.26C1471.93 961.275 1475.89 959.88 1476.47 957.325C1476.94 955.265 1475.91 953.687 1474.26 953.311C1470.47 952.448 1466.85 952.749 1462.65 954.611L1465.16 943.608C1468.83 942.147 1473.75 941.665 1480.55 943.214C1489.57 945.271 1493.01 951.125 1491.38 958.295C1490.17 963.569 1486.79 967.782 1481.14 969.357L1480.35 972.818L1480.36 972.777ZM1477.38 985.84L1466.63 983.389C1464.4 982.882 1463.33 981.684 1463.85 979.418L1465.84 970.682L1480.1 973.931L1477.38 985.84Z" fill="#396941"/>
<path d="M1508.8 970.459L1508.42 972.148L1544.36 980.337L1544.74 978.647L1508.8 970.459Z" fill="#396941"/>
<path d="M1517.5 959.306L1516.03 960.229L1535.68 991.407L1537.15 990.484L1517.5 959.306Z" fill="#396941"/>
<path d="M1542.66 966.295L1541.73 964.828L1510.52 984.418L1511.45 985.885L1542.66 966.295Z" fill="#396941"/>
<path d="M1512.05 964.004L1511.04 965.419L1541.12 986.751L1542.13 985.335L1512.05 964.004Z" fill="#396941"/>
<path d="M1508.3 977.626L1508.6 979.342L1544.95 973.147L1544.65 971.431L1508.3 977.626Z" fill="#396941"/>
<path d="M1524.34 957.092L1522.62 957.395L1528.83 993.703L1530.54 993.401L1524.34 957.092Z" fill="#396941"/>
<path d="M1515.25 989.917L1516.67 990.933L1537.99 960.898L1536.58 959.881L1515.25 989.917Z" fill="#396941"/>
<path d="M1537.96 960.847L1536.54 959.831L1515.22 989.866L1516.64 990.883L1537.96 960.847Z" fill="#396941"/>
<path d="M1528.84 993.662L1530.55 993.36L1524.35 957.051L1522.63 957.354L1528.84 993.662Z" fill="#396941"/>
<path d="M1531.55 957.608L1529.86 957.223L1521.67 993.156L1523.36 993.541L1531.55 957.608Z" fill="#396941"/>
<path d="M1271.92 916.485L1271.54 918.175L1307.47 926.363L1307.86 924.673L1271.92 916.485Z" fill="#396941"/>
<path d="M1280.62 905.333L1279.15 906.256L1298.8 937.433L1300.26 936.51L1280.62 905.333Z" fill="#396941"/>
<path d="M1305.73 912.312L1304.81 910.844L1273.6 930.435L1274.52 931.902L1305.73 912.312Z" fill="#396941"/>
<path d="M1275.17 910.03L1274.16 911.446L1304.24 932.777L1305.25 931.362L1275.17 910.03Z" fill="#396941"/>
<path d="M1271.38 923.643L1271.68 925.359L1308.03 919.164L1307.73 917.448L1271.38 923.643Z" fill="#396941"/>
<path d="M1287.45 903.119L1285.74 903.421L1291.94 939.729L1293.66 939.427L1287.45 903.119Z" fill="#396941"/>
<path d="M1278.33 935.934L1279.75 936.95L1301.07 906.914L1299.65 905.898L1278.33 935.934Z" fill="#396941"/>
<path d="M1301.04 906.863L1299.62 905.847L1278.3 935.883L1279.71 936.899L1301.04 906.863Z" fill="#396941"/>
<path d="M1291.95 939.688L1293.67 939.386L1287.46 903.078L1285.75 903.38L1291.95 939.688Z" fill="#396941"/>
<path d="M1294.62 903.624L1292.93 903.239L1284.75 939.172L1286.44 939.557L1294.62 903.624Z" fill="#396941"/>
<path d="M1448.07 875.129L1059.13 907.878L1076.03 833.705L1464.97 800.955L1448.07 875.129Z" fill="#AFD2F2"/>
<path d="M1464.97 800.955L43.1904 476.999L26.2898 551.173L1448.07 875.129L1464.97 800.955Z" fill="#396941"/>
<path d="M69.0113 514.742L71.9877 501.679L97.7034 507.538L93.7599 524.845L72.289 519.953C69.3218 519.277 68.3353 517.709 69.0113 514.742ZM81.4679 546.449L67.2089 543.2L70.0632 530.673C68.6208 530.344 67.1278 530.048 65.603 529.7L67.6968 520.511C77.4414 522.644 84.5297 524.26 93.9598 526.061L91.866 535.251C89.2921 534.751 86.8325 534.321 84.3504 533.798L81.4679 546.449ZM78.7485 509.678L77.5414 510.79C80.4591 513.015 84.3287 514.677 88.0377 515.522L88.3758 514.039C84.6668 513.194 81.3704 511.489 78.7073 509.669L78.7485 509.678ZM104.629 551.726L90.3695 548.477L90.9517 545.922C88.7263 545.415 86.3772 544.88 83.8952 544.358L85.8763 535.663C88.3996 536.195 90.7074 536.721 92.9328 537.228L99.6085 507.929L113.868 511.178L104.629 551.726Z" fill="#FF8D9B"/>
<path d="M112.986 529.314L116.958 511.883L142.674 517.742L141.613 522.399L143.508 522.831L144.569 518.174L158.829 521.423L153.89 543.098L139.631 539.849L140.861 534.451L138.965 534.019L137.735 539.417L116.264 534.525C113.297 533.849 112.31 532.281 112.986 529.314ZM109.221 545.838L111.719 534.877L153.589 544.417L149.599 561.93L135.34 558.681L136.833 552.129L109.221 545.838ZM123.404 522.975L122.416 524.267C125.345 526.061 128.47 527.38 132.055 528.197L132.384 526.754C129.046 525.994 126.146 524.64 123.363 522.965L123.404 522.975Z" fill="#FF8D9B"/>
<path d="M158.426 534.985L161.384 522.005L187.182 527.883L184.225 540.863L178.702 539.605L176.937 547.352C175.848 552.132 177.887 554.981 180.685 556.398L177.953 568.39C172.43 567.132 166.671 564.822 163.29 559.11L162.053 559.782C162.576 560.725 163.272 561.664 164.101 562.59C160.448 563.404 156.358 563.469 152.113 562.502L154.845 550.511C157.734 550.389 161.012 548.752 162.101 543.971L163.866 536.224L158.385 534.976L158.426 534.985ZM194.519 572.165L179.271 568.69L188.501 528.183L203.749 531.657L194.51 572.206L194.519 572.165Z" fill="#FF8D9B"/>
<path d="M220.944 564.445L206.933 561.252L208.829 552.928C212.511 552.943 216.47 551.548 217.052 548.993C217.522 546.933 216.494 545.355 214.845 544.979C211.054 544.116 207.431 544.417 203.235 546.279L205.742 535.276C209.413 533.815 214.335 533.333 221.134 534.882C230.16 536.938 233.594 542.793 231.961 549.963C230.759 555.237 227.371 559.45 221.724 561.025L220.935 564.486L220.944 564.445ZM217.968 577.508L207.212 575.057C204.987 574.55 203.916 573.352 204.432 571.086L206.423 562.35L220.682 565.599L217.968 577.508Z" fill="#FF8D9B"/>
<path d="M249.432 562.137L249.047 563.826L284.983 572.014L285.368 570.325L249.432 562.137Z" fill="#FF8D9B"/>
<path d="M258.129 550.984L256.661 551.907L276.305 583.084L277.772 582.162L258.129 550.984Z" fill="#FF8D9B"/>
<path d="M283.284 557.973L282.361 556.506L251.15 576.096L252.073 577.563L283.284 557.973Z" fill="#FF8D9B"/>
<path d="M252.68 555.681L251.664 557.097L281.744 578.429L282.76 577.013L252.68 555.681Z" fill="#FF8D9B"/>
<path d="M248.885 569.295L249.187 571.011L285.539 564.816L285.237 563.1L248.885 569.295Z" fill="#FF8D9B"/>
<path d="M264.963 548.77L263.246 549.072L269.452 585.381L271.169 585.078L264.963 548.77Z" fill="#FF8D9B"/>
<path d="M255.838 581.585L257.254 582.601L278.577 552.565L277.161 551.549L255.838 581.585Z" fill="#FF8D9B"/>
<path d="M278.587 552.524L277.171 551.508L255.848 581.544L257.264 582.56L278.587 552.524Z" fill="#FF8D9B"/>
<path d="M269.462 585.34L271.178 585.037L264.972 548.729L263.256 549.031L269.462 585.34Z" fill="#FF8D9B"/>
<path d="M272.13 549.276L270.44 548.891L262.253 584.824L263.943 585.209L272.13 549.276Z" fill="#FF8D9B"/>
<path d="M302.46 583.973L307.905 560.072L349.776 569.613L342.912 599.735L307.265 591.613C303.308 590.712 301.558 587.929 302.46 583.973ZM319.933 576.727L319.06 578.089C322.579 580.148 327.957 581.85 331.666 582.695L332.004 581.211C328.295 580.366 323.398 578.644 319.933 576.727Z" fill="#FF8D9B"/>
<path d="M347.379 594.207L352.825 570.307L394.696 579.847L387.832 609.97L352.185 601.847C348.228 600.946 346.478 598.163 347.379 594.207ZM364.853 586.962L363.98 588.323C367.499 590.382 372.876 592.084 376.585 592.929L376.923 591.446C373.214 590.601 368.318 588.878 364.853 586.962Z" fill="#FF8D9B"/>
<path d="M390.924 610.675L393.815 597.983C400.739 599.56 404.771 599.178 407 595.482L395.008 592.749L397.787 580.552L439.658 590.092L436.878 602.289L424.68 599.51C424.959 603.995 428.515 605.889 435.686 607.523L432.794 620.215C420.513 617.417 415.248 615.22 408.904 609.006L406.967 609.518C407.933 610.606 409.206 611.676 410.695 612.752C404.838 613.151 398.446 612.475 390.924 610.675Z" fill="#FF8D9B"/>
<path d="M457.867 618.428L443.856 615.236L445.752 606.912C449.434 606.927 453.393 605.532 453.975 602.977C454.444 600.916 453.417 599.338 451.768 598.963C447.977 598.099 444.353 598.4 440.158 600.262L442.665 589.259C446.336 587.798 451.257 587.316 458.057 588.865C467.083 590.922 470.517 596.776 468.883 603.946C467.682 609.221 464.294 613.434 458.647 615.008L457.858 618.469L457.867 618.428ZM454.891 631.491L444.135 629.04C441.909 628.533 440.838 627.335 441.355 625.069L443.345 616.333L457.604 619.582L454.891 631.491Z" fill="#FF8D9B"/>
<path d="M542.857 622.709L545.833 609.646L571.549 615.505L567.606 632.812L546.135 627.92C543.167 627.244 542.181 625.675 542.857 622.709ZM555.314 654.416L541.055 651.167L543.909 638.64C542.467 638.311 540.974 638.014 539.449 637.667L541.543 628.478C551.287 630.611 558.375 632.226 567.805 634.028L565.712 643.217C563.138 642.718 560.678 642.287 558.196 641.765L555.314 654.416ZM552.594 617.645L551.387 618.757C554.305 620.982 558.174 622.644 561.883 623.489L562.221 622.006C558.512 621.161 555.216 619.456 552.553 617.635L552.594 617.645ZM578.474 659.693L564.215 656.444L564.797 653.889C562.572 653.382 560.223 652.847 557.741 652.325L559.722 643.63C562.245 644.162 564.553 644.687 566.778 645.194L573.454 615.896L587.713 619.145L578.474 659.693Z" fill="#FF8D9B"/>
<path d="M586.791 637.271L590.763 619.84L616.478 625.699L615.417 630.356L617.313 630.788L618.374 626.131L632.633 629.38L627.694 651.055L613.435 647.806L614.665 642.408L612.77 641.976L611.54 647.374L590.069 642.482C587.102 641.806 586.115 640.238 586.791 637.271ZM583.026 653.795L585.524 642.834L627.394 652.374L623.404 669.887L609.145 666.638L610.637 660.086L583.026 653.795ZM597.209 630.932L596.221 632.224C599.15 634.018 602.274 635.337 605.86 636.154L606.188 634.712C602.85 633.951 599.951 632.597 597.168 630.922L597.209 630.932Z" fill="#FF8D9B"/>
<path d="M632.272 642.952L635.23 629.971L661.028 635.849L658.07 648.83L652.548 647.572L650.783 655.319C649.694 660.099 651.732 662.947 654.53 664.365L651.798 676.357C646.276 675.098 640.516 672.789 637.136 667.077L635.899 667.749C636.421 668.692 637.118 669.63 637.947 670.556C634.293 671.371 630.204 671.436 625.959 670.469L628.691 658.478C631.58 658.356 634.858 656.718 635.947 651.938L637.712 644.191L632.231 642.942L632.272 642.952ZM668.365 680.131L653.117 676.657L662.347 636.15L677.595 639.624L668.356 680.173L668.365 680.131Z" fill="#FF8D9B"/>
<path d="M694.79 672.412L680.778 669.219L682.675 660.895C686.356 660.91 690.316 659.515 690.898 656.96C691.367 654.9 690.34 653.322 688.691 652.946C684.9 652.082 681.276 652.384 677.081 654.245L679.588 643.243C683.258 641.782 688.18 641.3 694.98 642.849C704.005 644.905 707.44 650.759 705.806 657.93C704.605 663.204 701.217 667.417 695.57 668.991L694.781 672.453L694.79 672.412ZM691.814 685.474L681.058 683.024C678.832 682.517 677.761 681.319 678.278 679.052L680.268 670.316L694.527 673.565L691.814 685.474Z" fill="#FF8D9B"/>
<path d="M723.235 670.094L722.85 671.783L758.787 679.971L759.171 678.282L723.235 670.094Z" fill="#FF8D9B"/>
<path d="M731.932 658.941L730.465 659.864L750.109 691.042L751.576 690.119L731.932 658.941Z" fill="#FF8D9B"/>
<path d="M757.087 665.93L756.165 664.463L724.954 684.053L725.876 685.52L757.087 665.93Z" fill="#FF8D9B"/>
<path d="M726.484 663.639L725.467 665.054L755.548 686.386L756.564 684.97L726.484 663.639Z" fill="#FF8D9B"/>
<path d="M722.73 677.26L723.033 678.977L759.385 672.782L759.082 671.065L722.73 677.26Z" fill="#FF8D9B"/>
<path d="M738.766 656.727L737.05 657.029L743.256 693.338L744.972 693.035L738.766 656.727Z" fill="#FF8D9B"/>
<path d="M729.683 689.552L731.099 690.568L752.422 660.532L751.006 659.516L729.683 689.552Z" fill="#FF8D9B"/>
<path d="M752.39 660.482L750.974 659.465L729.652 689.501L731.067 690.517L752.39 660.482Z" fill="#FF8D9B"/>
<path d="M743.266 693.297L744.982 692.994L738.776 656.686L737.06 656.988L743.266 693.297Z" fill="#FF8D9B"/>
<path d="M745.975 657.242L744.285 656.857L736.098 692.79L737.787 693.175L745.975 657.242Z" fill="#FF8D9B"/>
<path d="M486.354 616.12L485.97 617.81L521.906 625.998L522.291 624.308L486.354 616.12Z" fill="#FF8D9B"/>
<path d="M495.052 604.968L493.584 605.89L513.228 637.068L514.695 636.145L495.052 604.968Z" fill="#FF8D9B"/>
<path d="M520.166 611.947L519.243 610.479L488.032 630.069L488.954 631.537L520.166 611.947Z" fill="#FF8D9B"/>
<path d="M489.603 609.665L488.587 611.081L518.667 632.412L519.683 630.997L489.603 609.665Z" fill="#FF8D9B"/>
<path d="M485.807 623.278L486.11 624.994L522.462 618.799L522.16 617.083L485.807 623.278Z" fill="#FF8D9B"/>
<path d="M501.885 602.753L500.169 603.056L506.375 639.364L508.092 639.062L501.885 602.753Z" fill="#FF8D9B"/>
<path d="M492.761 635.569L494.177 636.585L515.5 606.549L514.084 605.533L492.761 635.569Z" fill="#FF8D9B"/>
<path d="M515.467 606.498L514.052 605.482L492.729 635.518L494.145 636.534L515.467 606.498Z" fill="#FF8D9B"/>
<path d="M506.385 639.323L508.101 639.021L501.895 602.712L500.179 603.015L506.385 639.323Z" fill="#FF8D9B"/>
<path d="M509.053 603.259L507.363 602.874L499.176 638.807L500.866 639.192L509.053 603.259Z" fill="#FF8D9B"/>
<path d="M776.264 691.93L781.71 668.029L823.58 677.57L816.717 707.692L781.069 699.57C777.113 698.669 775.363 695.886 776.264 691.93ZM793.738 684.684L792.864 686.046C796.383 688.105 801.761 689.807 805.47 690.652L805.808 689.168C802.099 688.323 797.203 686.601 793.738 684.684Z" fill="#FF8D9B"/>
<path d="M821.226 702.174L826.672 678.273L868.542 687.814L861.679 717.936L826.031 709.814C822.075 708.913 820.325 706.13 821.226 702.174ZM838.7 694.928L837.826 696.29C841.345 698.349 846.723 700.051 850.432 700.896L850.77 699.413C847.061 698.567 842.165 696.845 838.7 694.928Z" fill="#FF8D9B"/>
<path d="M864.728 718.632L867.62 705.94C874.544 707.517 878.575 707.135 880.805 703.439L868.813 700.706L871.592 688.509L913.462 698.049L910.683 710.246L898.485 707.467C898.763 711.952 902.32 713.846 909.491 715.48L906.599 728.172C894.318 725.374 889.053 723.177 882.709 716.963L880.771 717.475C881.737 718.563 883.011 719.633 884.5 720.709C878.643 721.109 872.251 720.432 864.728 718.632Z" fill="#FF8D9B"/>
<path d="M931.713 726.395L917.701 723.202L919.598 714.878C923.279 714.894 927.239 713.498 927.821 710.944C928.29 708.883 927.262 707.305 925.614 706.93C921.823 706.066 918.199 706.367 914.004 708.229L916.51 697.226C920.181 695.765 925.103 695.283 931.903 696.832C940.928 698.889 944.363 704.743 942.729 711.913C941.527 717.188 938.14 721.401 932.492 722.975L931.704 726.436L931.713 726.395ZM928.737 739.458L917.981 737.007C915.755 736.5 914.684 735.302 915.201 733.036L917.191 724.3L931.45 727.549L928.737 739.458Z" fill="#FF8D9B"/>
<path d="M1016.66 730.666L1019.64 717.603L1045.35 723.462L1041.41 740.769L1019.94 735.877C1016.97 735.201 1015.98 733.633 1016.66 730.666ZM1029.12 762.373L1014.86 759.124L1017.71 746.597C1016.27 746.268 1014.78 745.971 1013.25 745.624L1015.35 736.435C1025.09 738.568 1032.18 740.183 1041.61 741.985L1039.52 751.175C1036.94 750.675 1034.48 750.244 1032 749.722L1029.12 762.373ZM1026.4 725.602L1025.19 726.714C1028.11 728.939 1031.98 730.601 1035.69 731.446L1036.03 729.963C1032.32 729.118 1029.02 727.413 1026.36 725.593L1026.4 725.602ZM1052.28 767.65L1038.02 764.401L1038.6 761.846C1036.38 761.339 1034.03 760.804 1031.54 760.282L1033.53 751.587C1036.05 752.119 1038.36 752.644 1040.58 753.151L1047.26 723.853L1061.52 727.102L1052.28 767.65Z" fill="#FF8D9B"/>
<path d="M1060.64 745.237L1064.61 727.807L1090.32 733.666L1089.26 738.322L1091.16 738.754L1092.22 734.098L1106.48 737.347L1101.54 759.022L1087.28 755.773L1088.51 750.375L1086.61 749.943L1085.38 755.341L1063.91 750.449C1060.95 749.773 1059.96 748.204 1060.64 745.237ZM1056.87 761.762L1059.37 750.8L1101.24 760.341L1097.25 777.854L1082.99 774.605L1084.48 768.053L1056.87 761.762ZM1071.05 738.898L1070.07 740.19C1072.99 741.985 1076.12 743.304 1079.7 744.121L1080.03 742.678C1076.69 741.918 1073.8 740.564 1071.01 738.889L1071.05 738.898Z" fill="#FF8D9B"/>
<path d="M1106.08 750.909L1109.03 737.928L1134.83 743.806L1131.87 756.787L1126.35 755.529L1124.59 763.276C1123.5 768.056 1125.54 770.904 1128.33 772.322L1125.6 784.314C1120.08 783.055 1114.32 780.746 1110.94 775.034L1109.7 775.706C1110.22 776.649 1110.92 777.588 1111.75 778.513C1108.1 779.328 1104.01 779.393 1099.76 778.426L1102.49 766.435C1105.38 766.313 1108.66 764.675 1109.75 759.895L1111.52 752.148L1106.03 750.899L1106.08 750.909ZM1142.17 788.088L1126.92 784.614L1136.15 744.107L1151.4 747.581L1142.16 788.13L1142.17 788.088Z" fill="#FF8D9B"/>
<path d="M1168.59 780.369L1154.58 777.176L1156.48 768.852C1160.16 768.867 1164.12 767.472 1164.7 764.917C1165.17 762.857 1164.14 761.279 1162.49 760.903C1158.7 760.039 1155.08 760.341 1150.88 762.202L1153.39 751.2C1157.06 749.739 1161.98 749.257 1168.78 750.806C1177.81 752.862 1181.24 758.716 1179.61 765.887C1178.41 771.161 1175.02 775.374 1169.37 776.948L1168.58 780.41L1168.59 780.369ZM1165.62 793.431L1154.86 790.981C1152.64 790.474 1151.56 789.276 1152.08 787.009L1154.07 778.273L1168.33 781.522L1165.62 793.431Z" fill="#FF8D9B"/>
<path d="M1197.08 778.061L1196.7 779.75L1232.63 787.938L1233.02 786.249L1197.08 778.061Z" fill="#FF8D9B"/>
<path d="M1205.78 766.908L1204.31 767.831L1223.96 799.008L1225.42 798.086L1205.78 766.908Z" fill="#FF8D9B"/>
<path d="M1230.93 773.897L1230.01 772.429L1198.8 792.02L1199.72 793.487L1230.93 773.897Z" fill="#FF8D9B"/>
<path d="M1200.33 771.605L1199.32 773.021L1229.4 794.353L1230.41 792.937L1200.33 771.605Z" fill="#FF8D9B"/>
<path d="M1196.54 785.218L1196.84 786.935L1233.19 780.74L1232.89 779.023L1196.54 785.218Z" fill="#FF8D9B"/>
<path d="M1212.61 764.694L1210.9 764.996L1217.1 801.305L1218.82 801.002L1212.61 764.694Z" fill="#FF8D9B"/>
<path d="M1203.49 797.509L1204.9 798.525L1226.23 768.489L1224.81 767.473L1203.49 797.509Z" fill="#FF8D9B"/>
<path d="M1226.24 768.448L1224.82 767.432L1203.5 797.468L1204.91 798.484L1226.24 768.448Z" fill="#FF8D9B"/>
<path d="M1217.11 801.264L1218.83 800.961L1212.62 764.653L1210.91 764.955L1217.11 801.264Z" fill="#FF8D9B"/>
<path d="M1219.78 765.199L1218.09 764.814L1209.9 800.748L1211.59 801.133L1219.78 765.199Z" fill="#FF8D9B"/>
<path d="M960.158 724.077L959.773 725.767L995.709 733.955L996.094 732.265L960.158 724.077Z" fill="#FF8D9B"/>
<path d="M968.855 712.925L967.388 713.847L987.031 745.025L988.499 744.102L968.855 712.925Z" fill="#FF8D9B"/>
<path d="M994.01 719.913L993.087 718.446L961.876 738.036L962.799 739.504L994.01 719.913Z" fill="#FF8D9B"/>
<path d="M963.406 717.622L962.39 719.038L992.471 740.369L993.487 738.954L963.406 717.622Z" fill="#FF8D9B"/>
<path d="M959.611 731.235L959.914 732.951L996.266 726.756L995.963 725.04L959.611 731.235Z" fill="#FF8D9B"/>
<path d="M975.689 710.71L973.973 711.013L980.179 747.321L981.895 747.019L975.689 710.71Z" fill="#FF8D9B"/>
<path d="M966.565 743.526L967.981 744.542L989.303 714.506L987.888 713.49L966.565 743.526Z" fill="#FF8D9B"/>
<path d="M989.313 714.465L987.897 713.449L966.574 743.485L967.99 744.501L989.313 714.465Z" fill="#FF8D9B"/>
<path d="M980.189 747.28L981.905 746.978L975.699 710.669L973.983 710.972L980.189 747.28Z" fill="#FF8D9B"/>
<path d="M982.857 711.216L981.167 710.831L972.98 746.764L974.669 747.149L982.857 711.216Z" fill="#FF8D9B"/>
<path d="M1250.11 799.897L1255.55 775.996L1297.43 785.536L1290.56 815.659L1254.91 807.537C1250.96 806.635 1249.21 803.852 1250.11 799.897ZM1267.58 792.651L1266.71 794.012C1270.23 796.071 1275.61 797.774 1279.31 798.619L1279.65 797.135C1275.94 796.29 1271.05 794.568 1267.58 792.651Z" fill="#FF8D9B"/>
<path d="M1295.03 810.131L1300.47 786.23L1342.35 795.771L1335.48 825.894L1299.83 817.771C1295.88 816.87 1294.13 814.087 1295.03 810.131ZM1312.5 802.885L1311.63 804.247C1315.15 806.306 1320.53 808.008 1324.23 808.853L1324.57 807.37C1320.86 806.524 1315.97 804.802 1312.5 802.885Z" fill="#FF8D9B"/>
<path d="M1338.57 826.598L1341.46 813.906C1348.39 815.484 1352.42 815.102 1354.65 811.406L1342.66 808.673L1345.44 796.476L1387.31 806.016L1384.53 818.213L1372.33 815.434C1372.61 819.919 1376.16 821.813 1383.33 823.447L1380.44 836.139C1368.16 833.34 1362.9 831.144 1356.55 824.93L1354.62 825.442C1355.58 826.529 1356.85 827.6 1358.34 828.676C1352.49 829.075 1346.09 828.399 1338.57 826.598Z" fill="#FF8D9B"/>
<path d="M1405.52 834.352L1391.5 831.159L1393.4 822.835C1397.08 822.851 1401.04 821.455 1401.62 818.901C1402.09 816.84 1401.07 815.262 1399.42 814.887C1395.63 814.023 1392 814.324 1387.81 816.186L1390.31 805.183C1393.98 803.722 1398.91 803.24 1405.71 804.789C1414.73 806.846 1418.17 812.7 1416.53 819.87C1415.33 825.145 1411.94 829.358 1406.3 830.932L1405.51 834.393L1405.52 834.352ZM1402.54 847.415L1391.78 844.964C1389.56 844.457 1388.49 843.259 1389 840.993L1390.99 832.257L1405.25 835.506L1402.54 847.415Z" fill="#FF8D9B"/>
<path fill-rule="evenodd" clip-rule="evenodd" d="M1068.64 606.781L767.235 686.999L812.445 609.766L438.368 609.766C343.707 609.766 267 533.028 267 438.398C266.969 343.737 343.707 266.999 438.368 266.999L1036.64 266.999C1131.3 266.999 1208.01 343.737 1208.01 438.367C1208.01 506.411 1168.36 565.194 1110.91 592.872C1107.72 594.439 1104.46 595.89 1101.11 597.219C1090.76 601.429 1079.89 604.655 1068.64 606.781Z" fill="#F2F1EA"/>
<path d="M1028.42 448.661L1028.42 440.097L995.553 440.097C996.458 439 997.368 437.903 998.266 436.805C1006.55 426.692 1014.37 416.385 1020.02 405.188C1024.91 395.52 1027.85 385.589 1028.09 375.294L1028.12 375.294L1028.12 361.1L1026.8 361.1L1019.39 361.1L989.588 361.1L953.76 361.1L875.838 361.1L875.838 420.705L875.838 431.533L875.838 440.097L907.101 440.097C899.767 449.144 892.829 458.354 887.523 468.248C887.178 468.893 886.826 469.577 886.481 470.279C885.595 471.84 884.735 473.414 883.932 475.006C879.046 484.674 876.102 494.605 875.863 504.9L875.838 504.9L875.838 519.094L877.15 519.094L906.191 519.094L914.366 519.094L950.194 519.094L1028.12 519.094L1028.42 519.094L1028.42 448.661Z" fill="#396941"/>
<path d="M534.26 361.1L534.26 361.125C520.596 361.375 507.411 364.429 494.576 369.501C479.714 375.369 466.032 383.476 452.607 392.072C438.762 400.943 425.036 410.003 411.047 418.63C398.997 426.066 386.427 432.736 372.682 436.247C360.589 439.338 331.85 440.398 321.401 440.128L321.401 519.094C321.401 519.094 363.201 519.069 373.649 517.483C384.731 515.803 400.529 511.295 410.865 506.969C425.105 501 438.272 493.044 451.251 484.737C458.836 479.878 466.39 474.962 473.975 470.103L473.975 488.003L553.09 488.003L553.09 438.247L553.09 401.075L553.09 362.46L553.09 361.1L534.26 361.1Z" fill="#FF5936"/>
<path d="M686.84 361.1L686.84 361.125C673.177 361.375 659.991 364.429 647.156 369.501C632.294 375.369 618.612 383.476 605.187 392.072C591.342 400.943 577.616 410.003 563.627 418.63C551.577 426.066 539.007 432.736 525.262 436.247C513.169 439.338 484.43 440.398 473.981 440.128L473.981 519.094C473.981 519.094 515.781 519.069 526.229 517.483C537.311 515.803 553.109 511.295 563.445 506.969C577.685 501 590.853 493.044 603.831 484.737C611.416 479.878 618.97 474.962 626.555 470.103L626.555 488.003L705.67 488.003L705.67 438.247L705.67 401.075L705.67 362.46L705.67 361.1L686.84 361.1Z" fill="#FF5936"/>
<path d="M839.42 361.1L839.42 361.125C825.757 361.375 812.571 364.429 799.736 369.501C784.874 375.369 771.192 383.476 757.768 392.072C743.922 400.943 730.196 410.003 716.207 418.63C704.157 426.066 691.587 432.736 677.842 436.247C665.749 439.338 637.01 440.398 626.562 440.128L626.562 519.094C626.562 519.094 668.361 519.069 678.809 517.483C689.892 515.803 705.69 511.295 716.025 506.969C730.266 501 743.433 493.044 756.411 484.737C763.996 479.878 771.55 474.962 779.135 470.103L779.135 519.094L858.25 519.094L858.25 438.247L858.25 401.075L858.25 362.46L858.25 361.1L839.42 361.1Z" fill="#FF5936"/>
<path d="M1101.96 473.551C1091.54 463.131 1074.65 463.131 1064.24 473.551C1053.82 483.971 1053.82 500.864 1064.24 511.279C1074.66 521.699 1091.55 521.699 1101.96 511.279C1112.38 500.864 1112.38 483.971 1101.96 473.551Z" fill="#FFE053"/>
<defs>
<clipPath id="clip0_724_8414">
<rect width="1351" height="150" fill="white" transform="translate(129 322.929) rotate(-13.8293)"/>
</clipPath>
</defs>
</svg>
