<svg width="1208" height="638" viewBox="0 0 1208 638" fill="none" xmlns="http://www.w3.org/2000/svg">
<g filter="url(#filter0_d_1366_8022)">
<rect x="4" width="1200" height="630" fill="#396941"/>
<path d="M1004.86 79.0242C1011.05 84.1734 1014.27 87.1524 1014.27 93.4145C1014.27 99.6766 1011.04 102.651 1004.86 107.801C998.242 113.314 990 120.175 990 133.833C990 147.479 998.242 154.34 1004.86 159.853C1011.05 164.994 1014.27 167.964 1014.27 174.222C1014.27 180.467 1011.05 183.438 1004.87 188.574C998.246 194.074 990 200.931 990 214.572H1005.17C1005.17 208.327 1008.39 205.357 1014.57 200.221C1021.19 194.716 1029.44 187.859 1029.44 174.218C1029.44 160.572 1021.19 153.711 1014.57 148.198C1008.39 143.057 1005.17 140.087 1005.17 133.829C1005.17 127.567 1008.39 124.588 1014.58 119.439C1021.2 113.926 1029.44 107.064 1029.44 93.4145C1029.44 79.7561 1021.2 72.8948 1014.58 67.3818C1008.39 62.2369 1005.17 59.2621 1005.17 53H990C990 66.6498 998.242 73.5112 1004.86 79.0242Z" fill="#FF5936"/>
<path d="M1044.27 79.0242C1050.46 84.1734 1053.68 87.1524 1053.68 93.4145C1053.68 99.6766 1050.46 102.651 1044.28 107.801C1037.65 113.314 1029.41 120.175 1029.41 133.833C1029.41 147.479 1037.65 154.34 1044.27 159.853C1050.46 164.994 1053.68 167.964 1053.68 174.222C1053.68 180.467 1050.46 183.438 1044.28 188.574C1037.66 194.074 1029.41 200.931 1029.41 214.572H1044.58C1044.58 208.327 1047.8 205.357 1053.98 200.221C1060.6 194.716 1068.85 187.859 1068.85 174.218C1068.85 160.572 1060.6 153.711 1053.98 148.198C1047.8 143.057 1044.58 140.087 1044.58 133.829C1044.58 127.567 1047.8 124.588 1053.99 119.439C1060.61 113.926 1068.85 107.064 1068.85 93.4145C1068.85 79.7561 1060.61 72.8948 1053.99 67.3818C1047.8 62.2369 1044.58 59.2621 1044.58 53H1029.41C1029.41 66.6498 1037.65 73.5112 1044.27 79.0242Z" fill="#FF5936"/>
<path d="M1083.69 79.0242C1089.87 84.1734 1093.09 87.1524 1093.09 93.4145C1093.09 99.6766 1089.87 102.651 1083.69 107.801C1077.07 113.314 1068.83 120.175 1068.83 133.833C1068.83 147.479 1077.07 154.34 1083.69 159.853C1089.87 164.994 1093.09 167.964 1093.09 174.222C1093.09 180.467 1089.87 183.438 1083.7 188.574C1077.07 194.074 1068.82 200.931 1068.82 214.572H1083.99C1083.99 208.327 1087.21 205.357 1093.39 200.221C1100.01 194.716 1108.26 187.859 1108.26 174.218C1108.26 160.572 1100.02 153.711 1093.39 148.198C1087.21 143.057 1083.99 140.087 1083.99 133.829C1083.99 127.567 1087.22 124.588 1093.4 119.439C1100.02 113.926 1108.26 107.064 1108.26 93.4145C1108.26 79.7561 1100.02 72.8948 1093.4 67.3818C1087.22 62.2369 1083.99 59.2621 1083.99 53H1068.82C1068.82 66.6498 1077.06 73.5112 1083.69 79.0242Z" fill="#FF5936"/>
<path d="M170.827 397C170.624 397 169.815 397 169.611 397C159.471 397 151.248 405.212 151.248 415.339C151.248 425.466 169.491 438.291 169.611 478.367C169.615 479.466 169.831 479.702 170.217 479.242C170.603 479.702 170.823 479.466 170.823 478.367C170.944 438.291 189.187 425.466 189.187 415.339C189.187 405.212 180.972 397 170.827 397Z" fill="#AFD2F2"/>
<path d="M170.827 559.494C170.624 559.494 169.815 559.494 169.611 559.494C159.471 559.494 151.248 551.282 151.248 541.156C151.248 531.029 169.491 518.203 169.611 478.127C169.615 477.028 169.831 476.792 170.217 477.252C170.603 476.792 170.823 477.028 170.823 478.127C170.944 518.203 189.187 531.029 189.187 541.156C189.187 551.282 180.972 559.494 170.827 559.494Z" fill="#AFD2F2"/>
<path d="M240.983 438.15C240.879 437.972 240.476 437.275 240.377 437.097C235.304 428.326 224.076 425.32 215.293 430.386C206.51 435.447 204.505 457.637 169.813 477.783C168.862 478.334 168.767 478.641 169.356 478.744C169.153 479.308 169.464 479.379 170.419 478.831C205.236 458.897 225.475 468.261 234.258 463.2C243.046 458.134 246.055 446.921 240.983 438.15Z" fill="#AFD2F2"/>
<path d="M100.07 519.397C99.9665 519.219 99.5639 518.523 99.4643 518.344C94.3919 509.573 97.4013 498.356 106.184 493.295C114.968 488.233 135.211 497.593 170.024 477.663C170.979 477.116 171.294 477.186 171.087 477.75C171.68 477.853 171.581 478.16 170.63 478.712C135.938 498.853 133.937 521.043 125.154 526.108C116.371 531.174 105.143 528.169 100.07 519.397Z" fill="#AFD2F2"/>
<path d="M100.07 437.097C99.9665 437.275 99.5639 437.972 99.4643 438.15C94.3919 446.921 97.4013 458.138 106.184 463.2C114.968 468.261 135.211 458.901 170.024 478.831C170.979 479.379 171.294 479.308 171.087 478.744C171.68 478.641 171.581 478.334 170.63 477.783C135.938 457.637 133.937 435.451 125.154 430.386C116.371 425.32 105.143 428.326 100.07 437.097Z" fill="#AFD2F2"/>
<path d="M240.981 518.344C240.877 518.523 240.474 519.219 240.375 519.397C235.302 528.169 224.074 531.174 215.291 526.108C206.508 521.043 204.507 498.858 169.815 478.712C168.864 478.16 168.769 477.853 169.358 477.75C169.155 477.186 169.466 477.116 170.421 477.663C205.238 497.597 225.477 488.233 234.26 493.295C243.043 498.36 246.053 509.573 240.981 518.344Z" fill="#AFD2F2"/>
<path d="M375 475.272H313.686L370.333 451.805L367.48 444.913L310.93 468.337L354.201 425.059L348.926 419.789L305.681 463.032L329.078 406.544L329.034 406.526L329.052 406.491L322.157 403.635L298.734 460.185V399H291.266V460.176L267.861 403.653L267.808 403.671L260.913 406.526L284.336 463.076L241.065 419.798L235.782 425.076L279.035 468.328L222.538 444.922L219.685 451.813L276.305 475.272H215V482.737H276.173L219.649 506.143L222.502 513.043L279.132 489.584L235.79 532.924L241.065 538.202L284.345 494.915L260.922 551.465L260.966 551.483L260.957 551.509L267.843 554.365L291.266 497.815V559H298.734V497.824L322.148 554.356L322.201 554.329V554.338L329.087 551.483L305.69 494.977L348.926 538.211L354.201 532.941L310.833 489.575L367.515 513.052L370.368 506.16L313.818 482.737H375V475.272Z" fill="#FFE053"/>
<path fill-rule="evenodd" clip-rule="evenodd" d="M948.397 471.395L635.803 554.59L682.69 474.49H294.729C196.554 474.49 117 394.903 117 296.761C116.968 198.586 196.554 119 294.729 119H915.207C1013.38 119 1092.94 198.586 1092.94 296.729C1092.94 367.317 1051.79 428.296 992.189 456.991C988.912 458.602 985.553 460.094 982.115 461.46C971.36 465.835 960.08 469.187 948.397 471.395Z" fill="white"/>
<path d="M398.078 179.29H404.717V211.725H398.078V187.755L391.039 193.948L384.089 187.8V211.725H376.604V179.246H384.089L391.128 187.132L398.078 179.29ZM431.003 211.725H407.791V204.997L422.538 183.835H407.791V179.246H430.959V183.434L415.053 204.953H431.003V211.725ZM447.406 184.458C447.406 186.27 447.54 187.919 447.807 189.404C448.074 190.889 448.49 192.24 449.055 193.458C449.649 194.676 450.406 195.79 451.327 196.8C452.248 197.809 453.361 198.73 454.668 199.562V205.487C453.421 205.071 452.188 204.492 450.97 203.75C449.931 203.126 448.787 202.294 447.54 201.255C446.292 200.215 445.149 198.908 444.109 197.334C443.04 198.908 441.882 200.215 440.634 201.255C439.387 202.294 438.243 203.126 437.204 203.75C435.986 204.492 434.768 205.071 433.55 205.487V199.562C435.035 198.552 436.268 197.512 437.248 196.443C438.258 195.374 439.06 194.23 439.654 193.013C440.248 191.765 440.664 190.414 440.901 188.958C441.169 187.473 441.302 185.825 441.302 184.013V179.602H447.406V184.458ZM457.074 177.018H462.242V214.487H457.074V194.26H452.04V187.889H457.074V177.018ZM470.574 177.018V214.487H465.361V177.018H470.574ZM503.526 177.464H508.961V214.086H503.526V195.24H499.828L499.917 214.086H494.259V177.464H499.828V189.582H503.526V177.464ZM490.695 185.617V180.36H473.23V206.022H491.586V200.275H478.933V185.617H490.695ZM515.792 205.22H535.484V203.26H515.792V199.829H541.365V209.141H521.227V210.611H541.365V214.532H515.613L515.792 214.487V205.22ZM515.792 182.454H535.484V180.493H515.792V177.063H541.365V186.374H521.227V187.844H541.365V191.765H515.613L515.792 191.721V182.454ZM545.33 197.869H511.648V193.414H545.33V197.869ZM574.615 178.176H568.957C568.155 178.176 567.383 178.34 566.64 178.667C565.898 178.964 565.244 179.394 564.68 179.959C564.115 180.493 563.67 181.132 563.343 181.874C563.016 182.617 562.853 183.404 562.853 184.236V189.849C562.853 190.681 563.016 191.468 563.343 192.211C563.67 192.953 564.115 193.607 564.68 194.171C565.244 194.706 565.898 195.136 566.64 195.463C567.383 195.79 568.155 195.953 568.957 195.953H574.615C575.417 195.953 576.174 195.79 576.887 195.463C577.6 195.136 578.224 194.706 578.758 194.171C579.293 193.607 579.709 192.953 580.006 192.211C580.333 191.468 580.496 190.681 580.496 189.849V184.236C580.496 183.404 580.333 182.617 580.006 181.874C579.709 181.132 579.293 180.493 578.758 179.959C578.224 179.394 577.6 178.964 576.887 178.667C576.174 178.34 575.417 178.176 574.615 178.176ZM591.946 214.487H586.199V177.063H591.946V214.487ZM584.595 198.76H559.333V203.661H567.843V214.442H573.501V203.661H584.595V198.76ZM575.328 188.691C575.328 189.404 575.075 190.013 574.57 190.518C574.095 190.993 573.501 191.23 572.788 191.23H570.828C570.086 191.23 569.432 190.993 568.868 190.518C568.333 190.013 568.066 189.404 568.066 188.691V185.394C568.066 184.681 568.333 184.087 568.868 183.612C569.432 183.107 570.086 182.855 570.828 182.855H572.788C573.501 182.855 574.095 183.107 574.57 183.612C575.075 184.087 575.328 184.681 575.328 185.394V188.691ZM607.896 179.558H615.069V183.656H611.861C612.366 184.191 612.767 184.815 613.064 185.528C613.361 186.241 613.509 186.983 613.509 187.755V192.389C613.509 193.339 613.346 194.201 613.019 194.973C612.692 195.745 612.262 196.428 611.727 197.022C611.192 197.587 610.569 198.032 609.856 198.359C609.143 198.656 608.386 198.804 607.584 198.804H602.059C601.257 198.804 600.5 198.656 599.787 198.359C599.074 198.032 598.436 197.601 597.871 197.067C597.337 196.532 596.906 195.908 596.579 195.196C596.252 194.453 596.089 193.666 596.089 192.834V187.755C596.089 186.983 596.238 186.241 596.535 185.528C596.832 184.815 597.233 184.191 597.738 183.656H594.619V179.558H601.792V177.018H607.896V179.558ZM625.182 213.64H598.54V201.299H604.153V208.339H625.182V213.64ZM623.935 187.042H629.192V192.389H623.935V202.324H618.187V176.974H623.935V187.042ZM608.341 191.765V188.914C608.341 188.201 608.103 187.607 607.628 187.132C607.153 186.656 606.544 186.419 605.802 186.419H603.93C603.218 186.419 602.579 186.656 602.015 187.132C601.48 187.607 601.213 188.201 601.213 188.914V191.765C601.213 192.508 601.406 193.117 601.792 193.592C602.208 194.067 602.772 194.305 603.485 194.305H605.98C606.722 194.305 607.302 194.067 607.717 193.592C608.133 193.117 608.341 192.508 608.341 191.765ZM663.312 185.483V180.493H643.174V185.483H650.08C650.11 185.929 650.125 186.567 650.125 187.399C650.154 188.201 650.11 189.107 649.991 190.117C649.902 191.126 649.724 192.181 649.456 193.28C649.219 194.349 648.833 195.389 648.298 196.399C647.793 197.379 647.125 198.27 646.293 199.072C645.461 199.874 644.437 200.483 643.219 200.898V206.067C644.704 205.799 646.1 205.324 647.407 204.641C648.536 204.047 649.649 203.23 650.748 202.19C651.847 201.121 652.679 199.695 653.243 197.913C653.511 198.745 653.852 199.502 654.268 200.186C654.714 200.839 655.189 201.433 655.694 201.968C656.228 202.502 656.778 202.978 657.342 203.393C657.906 203.809 658.471 204.166 659.035 204.463C660.342 205.175 661.738 205.71 663.223 206.067V200.898C662.005 200.483 660.981 199.874 660.149 199.072C659.317 198.27 658.634 197.379 658.1 196.399C657.565 195.389 657.149 194.349 656.852 193.28C656.585 192.181 656.392 191.126 656.273 190.117C656.184 189.107 656.139 188.201 656.139 187.399C656.139 186.567 656.154 185.929 656.184 185.483H663.312ZM672.98 189.537H678.594V195.285H672.98V214.532H666.787V177.508H672.98V189.537ZM713.856 214.487H708.465V177.018H713.856V214.487ZM681.288 198.448H706.416V203.482H696.302V214.175H690.644V203.482H681.288V198.448ZM704.99 180.627V184.993H697.416C697.802 185.706 698.277 186.389 698.842 187.042C699.436 187.696 700.059 188.29 700.713 188.825C701.396 189.359 702.094 189.834 702.807 190.25C703.52 190.636 704.233 190.933 704.945 191.141V195.908C704.114 195.671 703.208 195.344 702.228 194.928C701.277 194.483 700.327 193.963 699.376 193.369C698.426 192.745 697.505 192.047 696.614 191.275C695.753 190.503 694.995 189.641 694.342 188.691C693.748 189.76 692.886 190.74 691.758 191.631C690.659 192.493 689.515 193.25 688.327 193.904C687.169 194.557 686.085 195.092 685.075 195.508C684.095 195.923 683.441 196.191 683.115 196.309V191.676C684.926 190.993 686.515 190.072 687.882 188.914C689.278 187.755 690.273 186.448 690.867 184.993H683.115V180.627H690.689V176.662H697.416V180.627H704.99ZM744.326 180.627V195.908H734.168V202.28H746.51V206.958H728.332V190.651H739.025V185.884H727.842V180.627H744.326ZM750.564 177.063H755.687V214.532H750.564V196.042H746.02V189.671H750.564V177.063ZM764.509 177.063V214.532H759.252V177.063H764.509ZM798.272 214.487H791.945V177.464H798.272V214.487ZM780.807 180.092H774.659V187.488C774.659 190.428 774.065 192.968 772.876 195.107C771.718 197.215 769.817 198.938 767.174 200.275V206.245C768.54 205.68 769.862 204.997 771.139 204.195C772.238 203.512 773.381 202.651 774.569 201.611C775.787 200.542 776.827 199.265 777.688 197.78C778.668 199.265 779.738 200.542 780.896 201.611C782.084 202.651 783.183 203.512 784.193 204.195C785.381 204.997 786.569 205.68 787.757 206.245V200.23C786.45 199.398 785.351 198.537 784.46 197.646C783.569 196.725 782.856 195.745 782.322 194.706C781.787 193.666 781.401 192.552 781.163 191.364C780.926 190.176 780.807 188.884 780.807 187.488V180.092ZM800.936 180.404H822.233V185.661H800.936V180.404ZM820.183 187.176L816.574 200.72H822.233V205.933H800.936V200.72H806.461L802.808 187.176H808.154L811.495 198.983L814.881 187.176H820.183ZM831.722 214.487H825.841V177.018H831.722V214.487Z" fill="black"/>
<path d="M877.817 335.851V327.992H847.658C848.488 326.985 849.323 325.978 850.147 324.971C857.753 315.691 864.921 306.232 870.113 295.956C874.596 287.084 877.298 277.97 877.517 268.523H877.54V255.497H876.336H869.537H842.184H809.305H737.797V310.196V320.132V327.992H766.487C759.756 336.294 753.389 344.746 748.52 353.825C748.203 354.418 747.881 355.045 747.564 355.689C746.751 357.122 745.962 358.566 745.224 360.027C740.741 368.899 738.039 378.013 737.82 387.46H737.797V400.486H739.001H765.651H773.153H806.032H877.54H877.817V335.851Z" fill="#396941"/>
<path d="M424.337 255.497V255.52C411.798 255.75 399.698 258.552 387.92 263.207C374.281 268.592 361.725 276.031 349.406 283.92C336.7 292.061 324.104 300.375 311.266 308.292C300.209 315.115 288.673 321.237 276.059 324.459C264.962 327.296 238.588 328.268 229 328.02V400.486C229 400.486 267.359 400.463 276.947 399.008C287.117 397.466 301.614 393.329 311.099 389.359C324.168 383.882 336.251 376.58 348.161 368.957C355.122 364.498 362.054 359.987 369.014 355.528V371.954H441.617V326.294V292.182V256.746V255.497H424.337Z" fill="#FF5936"/>
<path d="M564.356 255.497V255.52C551.818 255.75 539.717 258.552 527.939 263.207C514.3 268.592 501.745 276.031 489.425 283.92C476.72 292.061 464.124 300.375 451.286 308.292C440.228 315.115 428.692 321.237 416.079 324.459C404.981 327.296 378.608 328.268 369.02 328.02V400.486C369.02 400.486 407.378 400.463 416.966 399.008C427.136 397.466 441.634 393.329 451.119 389.359C464.187 383.882 476.27 376.58 488.181 368.957C495.141 364.498 502.073 359.987 509.034 355.528V371.954H581.637V326.294V292.182V256.746V255.497H564.356Z" fill="#FF5936"/>
<path d="M704.376 255.497V255.52C691.837 255.75 679.737 258.552 667.959 263.207C654.32 268.592 641.764 276.031 629.445 283.92C616.739 292.061 604.143 300.375 591.305 308.292C580.248 315.115 568.712 321.237 556.098 324.459C545.001 327.296 518.627 328.268 509.039 328.02V400.486C509.039 400.486 547.398 400.463 556.986 399.008C567.156 397.466 581.654 393.329 591.138 389.359C604.207 383.882 616.29 376.58 628.2 368.957C635.161 364.498 642.093 359.987 649.053 355.528V400.486H721.656V326.294V292.182V256.746V255.497H704.376Z" fill="#FF5936"/>
<path d="M945.31 358.693C935.748 349.13 920.246 349.13 910.687 358.693C901.125 368.255 901.125 383.757 910.687 393.315C920.249 402.877 935.751 402.877 945.31 393.315C954.872 383.757 954.872 368.255 945.31 358.693Z" fill="#FFE053"/>
<g clip-path="url(#clip0_1366_8022)">
<path d="M952.033 338.618C952.172 332.712 953.844 327.008 956.626 321.461C959.847 315.035 964.29 309.118 969.009 303.315C971.491 300.262 973.998 297.219 976.487 294.174C979.883 289.797 982.993 285.3 985.411 280.521C986.431 278.504 987.301 276.465 988.003 274.401C988.025 274.337 988.05 274.27 988.071 274.206C988.114 274.078 988.153 273.946 988.196 273.818C989.276 270.434 989.908 266.99 989.99 263.471H990.004V255.497H989.266H985.057H968.128H947.774H903.516V289.324V295.469V300.329H921.273C921.226 300.39 921.176 300.447 921.13 300.507H921.308C920.98 300.909 920.652 301.308 920.328 301.71C918.33 304.168 916.383 306.648 914.554 309.178C912.952 311.498 911.465 313.864 910.153 316.309C909.957 316.675 909.757 317.063 909.561 317.462C909.058 318.348 908.569 319.241 908.113 320.144C905.338 325.627 903.665 331.267 903.53 337.109H903.516V345.161H904.086H904.265H920.759H925.267H925.403H945.66H945.756H952.018V338.618H952.033Z" fill="#FFE053"/>
</g>
</g>
<defs>
<filter id="filter0_d_1366_8022" x="0" y="0" width="1208" height="638" filterUnits="userSpaceOnUse" color-interpolation-filters="sRGB">
<feFlood flood-opacity="0" result="BackgroundImageFix"/>
<feColorMatrix in="SourceAlpha" type="matrix" values="0 0 0 0 0 0 0 0 0 0 0 0 0 0 0 0 0 0 127 0" result="hardAlpha"/>
<feOffset dy="4"/>
<feGaussianBlur stdDeviation="2"/>
<feComposite in2="hardAlpha" operator="out"/>
<feColorMatrix type="matrix" values="0 0 0 0 0 0 0 0 0 0 0 0 0 0 0 0 0 0 0.25 0"/>
<feBlend mode="normal" in2="BackgroundImageFix" result="effect1_dropShadow_1366_8022"/>
<feBlend mode="normal" in="SourceGraphic" in2="effect1_dropShadow_1366_8022" result="shape"/>
</filter>
<clipPath id="clip0_1366_8022">
<rect width="86.4848" height="89.6644" fill="white" transform="translate(903.516 255.497)"/>
</clipPath>
</defs>
</svg>
