<svg width="800" height="400" viewBox="0 0 800 400" fill="none" xmlns="http://www.w3.org/2000/svg">
<rect width="800" height="400" fill="#396941"/>
<path d="M667.243 42.6829C671.364 46.1157 673.514 48.1018 673.514 52.2765C673.514 56.4512 671.361 58.4344 667.243 61.8672C662.828 65.5425 657.333 70.1168 657.333 79.2224C657.333 88.3194 662.828 92.8936 667.243 96.5689C671.364 99.996 673.512 101.976 673.512 106.148C673.512 110.312 671.364 112.292 667.246 115.716C662.831 119.383 657.333 123.954 657.333 133.048H667.446C667.446 128.885 669.593 126.905 673.712 123.481C678.127 119.811 683.624 115.24 683.624 106.145C683.624 97.0483 678.13 92.4741 673.714 88.7988C669.593 85.3717 667.446 83.3914 667.446 79.2195C667.446 75.0448 669.596 73.0587 673.717 69.6259C678.132 65.9506 683.627 61.3764 683.627 52.2765C683.627 43.1709 678.132 38.5967 673.717 34.9213C669.596 31.4914 667.446 29.5082 667.446 25.3335H657.333C657.333 34.4334 662.828 39.0076 667.243 42.6829Z" fill="#FF5936"/>
<path d="M693.517 42.6829C697.637 46.1157 699.788 48.1018 699.788 52.2765C699.788 56.4512 697.637 58.4344 693.519 61.8672C689.101 65.5425 683.607 70.1168 683.607 79.2224C683.607 88.3194 689.101 92.8936 693.517 96.5689C697.637 99.996 699.785 101.976 699.785 106.148C699.785 110.312 697.637 112.292 693.519 115.716C689.104 119.383 683.607 123.954 683.607 133.048H693.719C693.719 128.885 695.867 126.905 699.985 123.481C704.4 119.811 709.898 115.24 709.898 106.145C709.898 97.0483 704.403 92.4741 699.988 88.7988C695.867 85.3717 693.719 83.3914 693.719 79.2195C693.719 75.0448 695.87 73.0587 699.991 69.6259C704.406 65.9506 709.9 61.3764 709.9 52.2765C709.9 43.1709 704.406 38.5967 699.991 34.9213C695.87 31.4914 693.719 29.5082 693.719 25.3335H683.607C683.607 34.4334 689.101 39.0076 693.517 42.6829Z" fill="#FF5936"/>
<path d="M719.791 42.6829C723.912 46.1157 726.063 48.1018 726.063 52.2765C726.063 56.4512 723.912 58.4344 719.794 61.8672C715.379 65.5425 709.884 70.1168 709.884 79.2224C709.884 88.3194 715.379 92.8936 719.794 96.5689C723.915 99.996 726.063 101.976 726.063 106.148C726.063 110.312 723.915 112.292 719.797 115.716C715.379 119.383 709.882 123.954 709.882 133.048H719.994C719.994 128.885 722.142 126.905 726.26 123.481C730.675 119.811 736.172 115.24 736.172 106.145C736.172 97.0483 730.678 92.4741 726.263 88.7988C722.142 85.3717 719.994 83.3914 719.994 79.2195C719.994 75.0448 722.144 73.0587 726.265 69.6259C730.681 65.9506 736.175 61.3764 736.175 52.2765C736.175 43.1709 730.681 38.5967 726.265 34.9213C722.144 31.4914 719.994 29.5082 719.994 25.3335H709.882C709.882 34.4334 715.376 39.0076 719.791 42.6829Z" fill="#FF5936"/>
<path d="M111.219 254.667C111.083 254.667 110.543 254.667 110.408 254.667C103.647 254.667 98.1656 260.141 98.1656 266.892C98.1656 273.644 110.328 282.194 110.408 308.911C110.411 309.644 110.554 309.801 110.812 309.495C111.069 309.801 111.216 309.644 111.216 308.911C111.296 282.194 123.458 273.644 123.458 266.892C123.458 260.141 117.982 254.667 111.219 254.667Z" fill="#AFD2F2"/>
<path d="M111.219 362.996C111.083 362.996 110.543 362.996 110.408 362.996C103.647 362.996 98.1656 357.522 98.1656 350.771C98.1656 344.019 110.328 335.469 110.408 308.751C110.411 308.019 110.554 307.862 110.812 308.168C111.069 307.862 111.216 308.019 111.216 308.751C111.296 335.469 123.458 344.019 123.458 350.771C123.458 357.522 117.982 362.996 111.219 362.996Z" fill="#AFD2F2"/>
<path d="M157.988 282.1C157.919 281.981 157.651 281.517 157.584 281.398C154.203 275.55 146.717 273.547 140.862 276.924C135.006 280.298 133.67 295.091 110.542 308.522C109.908 308.889 109.844 309.094 110.237 309.163C110.102 309.539 110.309 309.586 110.946 309.221C134.157 295.931 147.65 302.174 153.505 298.8C159.364 295.423 161.37 287.947 157.988 282.1Z" fill="#AFD2F2"/>
<path d="M64.0469 336.265C63.9777 336.146 63.7092 335.682 63.6428 335.563C60.2613 329.716 62.2675 322.237 68.123 318.863C73.9784 315.489 87.4741 321.729 110.683 308.442C111.319 308.077 111.529 308.124 111.391 308.5C111.787 308.569 111.72 308.774 111.087 309.141C87.9584 322.569 86.6246 337.362 80.7691 340.739C74.9137 344.116 67.4284 342.113 64.0469 336.265Z" fill="#AFD2F2"/>
<path d="M64.0469 281.398C63.9777 281.517 63.7092 281.981 63.6428 282.1C60.2613 287.947 62.2675 295.426 68.123 298.8C73.9784 302.174 87.4741 295.934 110.683 309.221C111.319 309.586 111.529 309.539 111.391 309.163C111.787 309.094 111.72 308.889 111.087 308.522C87.9584 295.091 86.6246 280.301 80.7691 276.924C74.9137 273.547 67.4284 275.55 64.0469 281.398Z" fill="#AFD2F2"/>
<path d="M157.988 335.563C157.918 335.682 157.65 336.146 157.584 336.265C154.202 342.113 146.717 344.116 140.861 340.739C135.006 337.362 133.672 322.572 110.544 309.141C109.91 308.774 109.846 308.569 110.239 308.5C110.104 308.124 110.311 308.077 110.948 308.442C134.159 321.732 147.652 315.489 153.508 318.863C159.363 322.24 161.369 329.716 157.988 335.563Z" fill="#AFD2F2"/>
<path d="M247.333 306.848H206.457L244.222 291.203L242.32 286.609L204.62 302.225L233.467 273.372L229.951 269.859L201.121 298.688L216.719 261.029L216.689 261.017L216.701 260.994L212.105 259.09L196.489 296.79V256H191.511V296.784L175.907 259.102L175.872 259.114L171.275 261.017L186.891 298.717L158.043 269.865L154.521 273.384L183.357 302.219L145.692 286.615L143.79 291.209L181.537 306.848H140.667V311.824H181.449L143.766 327.428L145.668 332.028L183.421 316.389L154.527 345.283L158.043 348.802L186.897 319.944L171.281 357.644L171.311 357.655L171.305 357.673L175.895 359.576L191.511 321.876V362.667H196.489V321.882L212.099 359.571L212.134 359.553V359.559L216.725 357.655L201.127 319.985L229.951 348.808L233.467 345.294L204.555 316.383L242.343 332.034L244.245 327.44L206.545 311.824H247.333V306.848Z" fill="#FFE053"/>
<path fill-rule="evenodd" clip-rule="evenodd" d="M629.597 304.264L421.202 359.727L452.46 306.327H193.819C128.369 306.327 75.3333 253.269 75.3333 187.841C75.3119 122.391 128.369 69.3335 193.819 69.3335H607.471C672.921 69.3335 725.957 122.391 725.957 187.819C725.957 234.881 698.524 275.536 658.785 294.665C656.605 295.736 654.371 296.728 652.085 297.637C644.912 300.555 637.389 302.791 629.597 304.264Z" fill="white"/>
<path d="M262.719 109.527H267.144V131.15H262.719V115.17L258.026 119.299L253.393 115.2V131.15H248.403V109.497H253.393L258.085 114.754L262.719 109.527ZM284.669 131.15H269.194V126.665L279.025 112.556H269.194V109.497H284.639V112.289L274.036 126.635H284.669V131.15ZM295.604 112.972C295.604 114.18 295.693 115.279 295.871 116.269C296.05 117.259 296.327 118.16 296.703 118.972C297.099 119.784 297.604 120.526 298.218 121.2C298.832 121.873 299.574 122.487 300.446 123.041V126.991C299.614 126.714 298.792 126.328 297.98 125.833C297.287 125.417 296.525 124.863 295.693 124.17C294.862 123.477 294.099 122.605 293.406 121.556C292.693 122.605 291.921 123.477 291.089 124.17C290.258 124.863 289.495 125.417 288.802 125.833C287.991 126.328 287.179 126.714 286.367 126.991V123.041C287.357 122.368 288.179 121.675 288.832 120.962C289.505 120.249 290.04 119.487 290.436 118.675C290.832 117.843 291.109 116.942 291.268 115.972C291.446 114.982 291.535 113.883 291.535 112.675V109.735H295.604V112.972ZM302.049 108.012H305.495V132.991H302.049V119.507H298.693V115.259H302.049V108.012ZM311.049 108.012V132.991H307.574V108.012H311.049ZM333.017 108.309H336.641V132.724H333.017V120.16H330.552L330.611 132.724H326.839V108.309H330.552V116.388H333.017V108.309ZM324.463 113.744V110.24H312.82V127.348H325.057V123.516H316.622V113.744H324.463ZM341.194 126.813H354.323V125.506H341.194V123.219H358.243V129.427H344.818V130.407H358.243V133.021H341.076L341.194 132.991V126.813ZM341.194 111.636H354.323V110.329H341.194V108.042H358.243V114.249H344.818V115.229H358.243V117.843H341.076L341.194 117.814V111.636ZM360.887 121.912H338.432V118.942H360.887V121.912ZM380.41 108.784H376.638C376.103 108.784 375.588 108.893 375.093 109.111C374.598 109.309 374.163 109.596 373.787 109.972C373.41 110.329 373.113 110.754 372.895 111.249C372.678 111.744 372.569 112.269 372.569 112.824V116.566C372.569 117.12 372.678 117.645 372.895 118.14C373.113 118.635 373.41 119.071 373.787 119.447C374.163 119.804 374.598 120.091 375.093 120.308C375.588 120.526 376.103 120.635 376.638 120.635H380.41C380.945 120.635 381.45 120.526 381.925 120.308C382.4 120.091 382.816 119.804 383.172 119.447C383.529 119.071 383.806 118.635 384.004 118.14C384.222 117.645 384.331 117.12 384.331 116.566V112.824C384.331 112.269 384.222 111.744 384.004 111.249C383.806 110.754 383.529 110.329 383.172 109.972C382.816 109.596 382.4 109.309 381.925 109.111C381.45 108.893 380.945 108.784 380.41 108.784ZM391.964 132.991H388.133V108.042H391.964V132.991ZM387.063 122.506H370.222V125.774H375.895V132.961H379.667V125.774H387.063V122.506ZM380.885 115.794C380.885 116.269 380.717 116.675 380.38 117.012C380.064 117.328 379.667 117.487 379.192 117.487H377.885C377.39 117.487 376.955 117.328 376.578 117.012C376.222 116.675 376.044 116.269 376.044 115.794V113.596C376.044 113.121 376.222 112.725 376.578 112.408C376.955 112.071 377.39 111.903 377.885 111.903H379.192C379.667 111.903 380.064 112.071 380.38 112.408C380.717 112.725 380.885 113.121 380.885 113.596V115.794ZM402.597 109.705H407.379V112.437H405.241C405.577 112.794 405.844 113.21 406.042 113.685C406.24 114.16 406.339 114.655 406.339 115.17V118.259C406.339 118.893 406.231 119.467 406.013 119.982C405.795 120.497 405.508 120.952 405.151 121.348C404.795 121.724 404.379 122.021 403.904 122.239C403.429 122.437 402.924 122.536 402.389 122.536H398.706C398.171 122.536 397.667 122.437 397.191 122.239C396.716 122.021 396.29 121.734 395.914 121.378C395.558 121.021 395.271 120.605 395.053 120.13C394.835 119.635 394.726 119.111 394.726 118.556V115.17C394.726 114.655 394.825 114.16 395.023 113.685C395.221 113.21 395.488 112.794 395.825 112.437H393.746V109.705H398.528V108.012H402.597V109.705ZM414.121 132.427H396.36V124.199H400.102V128.892H414.121V132.427ZM413.29 114.695H416.795V118.259H413.29V124.883H409.458V107.982H413.29V114.695ZM402.894 117.843V115.942C402.894 115.467 402.736 115.071 402.419 114.754C402.102 114.437 401.696 114.279 401.201 114.279H399.954C399.478 114.279 399.053 114.437 398.676 114.754C398.32 115.071 398.142 115.467 398.142 115.942V117.843C398.142 118.338 398.27 118.744 398.528 119.061C398.805 119.378 399.181 119.536 399.657 119.536H401.32C401.815 119.536 402.201 119.378 402.478 119.061C402.755 118.744 402.894 118.338 402.894 117.843ZM439.541 113.655V110.329H426.116V113.655H430.72C430.74 113.952 430.75 114.378 430.75 114.932C430.77 115.467 430.74 116.071 430.661 116.744C430.601 117.417 430.482 118.12 430.304 118.853C430.146 119.566 429.888 120.259 429.532 120.932C429.195 121.586 428.75 122.18 428.195 122.714C427.641 123.249 426.958 123.655 426.146 123.932V127.378C427.136 127.199 428.067 126.882 428.938 126.427C429.69 126.031 430.433 125.486 431.166 124.793C431.898 124.081 432.453 123.13 432.829 121.942C433.007 122.497 433.235 123.001 433.512 123.457C433.809 123.892 434.126 124.289 434.462 124.645C434.819 125.001 435.185 125.318 435.561 125.595C435.938 125.873 436.314 126.11 436.69 126.308C437.561 126.783 438.492 127.14 439.482 127.378V123.932C438.67 123.655 437.987 123.249 437.433 122.714C436.878 122.18 436.423 121.586 436.066 120.932C435.71 120.259 435.433 119.566 435.235 118.853C435.057 118.12 434.928 117.417 434.849 116.744C434.789 116.071 434.759 115.467 434.759 114.932C434.759 114.378 434.769 113.952 434.789 113.655H439.541ZM445.987 116.358H449.729V120.19H445.987V133.021H441.858V108.339H445.987V116.358ZM473.237 132.991H469.643V108.012H473.237V132.991ZM451.525 122.298H468.277V125.655H461.535V132.783H457.763V125.655H451.525V122.298ZM467.327 110.418V113.329H462.277C462.535 113.804 462.852 114.259 463.228 114.695C463.624 115.13 464.04 115.526 464.475 115.883C464.931 116.239 465.396 116.556 465.871 116.833C466.346 117.091 466.822 117.289 467.297 117.427V120.605C466.742 120.447 466.139 120.229 465.485 119.952C464.851 119.655 464.218 119.309 463.584 118.912C462.951 118.497 462.337 118.031 461.743 117.517C461.168 117.002 460.664 116.427 460.228 115.794C459.832 116.507 459.258 117.16 458.505 117.754C457.773 118.328 457.01 118.833 456.218 119.269C455.446 119.705 454.723 120.061 454.05 120.338C453.396 120.615 452.961 120.794 452.743 120.873V117.784C453.951 117.328 455.01 116.715 455.921 115.942C456.852 115.17 457.515 114.299 457.911 113.329H452.743V110.418H457.792V107.774H462.277V110.418H467.327ZM493.551 110.418V120.605H486.779V124.853H495.006V127.972H482.888V117.101H490.017V113.923H482.561V110.418H493.551ZM497.709 108.042H501.125V133.021H497.709V120.695H494.68V116.447H497.709V108.042ZM507.006 108.042V133.021H503.501V108.042H507.006ZM529.514 132.991H525.297V108.309H529.514V132.991ZM517.871 110.061H513.772V114.992C513.772 116.952 513.376 118.645 512.584 120.071C511.812 121.477 510.545 122.625 508.782 123.516V127.496C509.693 127.12 510.574 126.665 511.426 126.13C512.159 125.675 512.921 125.1 513.713 124.407C514.525 123.694 515.218 122.843 515.792 121.853C516.446 122.843 517.158 123.694 517.931 124.407C518.723 125.1 519.455 125.675 520.129 126.13C520.921 126.665 521.713 127.12 522.505 127.496V123.487C521.633 122.932 520.901 122.358 520.307 121.764C519.713 121.15 519.238 120.497 518.881 119.804C518.525 119.111 518.267 118.368 518.109 117.576C517.95 116.784 517.871 115.923 517.871 114.992V110.061ZM531.291 110.269H545.488V113.774H531.291V110.269ZM544.122 114.784L541.716 123.813H545.488V127.288H531.291V123.813H534.974L532.538 114.784H536.103L538.33 122.655L540.588 114.784H544.122ZM551.815 132.991H547.894V108.012H551.815V132.991Z" fill="black"/>
<path d="M582.545 213.901V208.661H562.439C562.992 207.99 563.549 207.319 564.098 206.648C569.169 200.461 573.948 194.155 577.409 187.304C580.397 181.39 582.199 175.314 582.345 169.016H582.36V160.332H581.557H577.025H558.789H536.87H489.198V196.797V203.422V208.661H508.324C503.838 214.196 499.593 219.831 496.347 225.884C496.136 226.279 495.921 226.697 495.709 227.126C495.168 228.081 494.641 229.044 494.15 230.018C491.161 235.933 489.359 242.009 489.213 248.307H489.198V256.991H490.001H507.767H512.769H534.688H582.36H582.545V213.901Z" fill="#396941"/>
<path d="M280.224 160.332V160.347C271.865 160.5 263.798 162.368 255.947 165.471C246.854 169.062 238.483 174.021 230.27 179.28C221.8 184.707 213.403 190.25 204.844 195.528C197.472 200.077 189.782 204.158 181.373 206.306C173.974 208.197 156.392 208.845 150 208.68V256.991C150 256.991 175.572 256.976 181.965 256.005C188.745 254.977 198.41 252.219 204.733 249.573C213.445 245.921 221.5 241.054 229.441 235.971C234.081 232.999 238.702 229.992 243.343 227.019V237.97H291.745V207.53V184.788V161.164V160.332H280.224Z" fill="#FF5936"/>
<path d="M373.571 160.332V160.347C365.212 160.5 357.145 162.368 349.293 165.471C340.2 169.062 331.83 174.021 323.617 179.28C315.147 184.707 306.749 190.25 298.191 195.528C290.819 200.077 283.128 204.158 274.719 206.306C267.321 208.197 249.739 208.845 243.347 208.68V256.991C243.347 256.991 268.919 256.976 275.311 256.005C282.091 254.977 291.756 252.219 298.079 249.573C306.792 245.921 314.847 241.054 322.787 235.971C327.428 232.999 332.049 229.992 336.689 227.019V237.97H385.091V207.53V184.788V161.164V160.332H373.571Z" fill="#FF5936"/>
<path d="M466.918 160.332V160.347C458.559 160.5 450.492 162.368 442.64 165.471C433.547 169.062 425.177 174.021 416.964 179.28C408.493 184.707 400.096 190.25 391.537 195.528C384.165 200.077 376.475 204.158 368.066 206.306C360.667 208.197 343.085 208.845 336.693 208.68V256.991C336.693 256.991 362.266 256.976 368.658 256.005C375.438 254.977 385.103 252.219 391.426 249.573C400.138 245.921 408.194 241.054 416.134 235.971C420.774 232.999 425.396 229.992 430.036 227.019V256.991H478.438V207.53V184.788V161.164V160.332H466.918Z" fill="#FF5936"/>
<path d="M627.539 229.128C621.164 222.753 610.829 222.753 604.457 229.128C598.082 235.503 598.082 245.838 604.457 252.21C610.832 258.585 621.166 258.585 627.539 252.21C633.913 245.838 633.913 235.503 627.539 229.128Z" fill="#FFE053"/>
<g clip-path="url(#clip0_1369_8092)">
<path d="M632.021 215.746C632.114 211.808 633.229 208.005 635.083 204.307C637.23 200.023 640.193 196.079 643.338 192.21C644.993 190.175 646.664 188.146 648.324 186.116C650.587 183.198 652.661 180.2 654.273 177.014C654.953 175.669 655.533 174.31 656.001 172.934C656.015 172.892 656.032 172.847 656.046 172.804C656.075 172.719 656.101 172.631 656.13 172.545C656.85 170.29 657.271 167.993 657.326 165.647H657.335V160.332H656.843H654.037H642.751H629.182H599.676V182.883V186.979V190.22H611.514C611.483 190.26 611.45 190.298 611.419 190.338H611.538C611.319 190.606 611.1 190.872 610.884 191.14C609.553 192.779 608.254 194.432 607.035 196.119C605.967 197.666 604.976 199.243 604.101 200.873C603.97 201.117 603.837 201.376 603.706 201.641C603.371 202.232 603.045 202.827 602.741 203.43C600.891 207.085 599.776 210.845 599.686 214.74H599.676V220.108H600.057H600.175H611.172H614.177H614.267H627.772H627.836H632.011V215.746H632.021Z" fill="#FFE053"/>
</g>
<defs>
<clipPath id="clip0_1369_8092">
<rect width="57.6566" height="59.7763" fill="white" transform="translate(599.676 160.332)"/>
</clipPath>
</defs>
</svg>
