<svg width="197" height="119" viewBox="0 0 197 119" fill="none" xmlns="http://www.w3.org/2000/svg">
<rect x="0.696289" width="195.566" height="118.172" rx="59.0858" fill="white"/>
<path d="M88.838 88.1918C84.758 88.1918 82.138 89.5718 82.138 91.8118C82.138 94.0518 84.758 95.4118 88.838 95.4118C92.918 95.4118 95.538 94.0518 95.538 91.8118C95.538 89.5718 92.918 88.1918 88.838 88.1918ZM88.838 90.2518C91.358 90.2518 92.798 90.7518 92.798 91.8118C92.798 92.8518 91.358 93.3718 88.838 93.3718C86.298 93.3718 84.878 92.8518 84.878 91.8118C84.878 90.7518 86.298 90.2518 88.838 90.2518ZM82.398 99.8518V106.172H95.198V99.8518H82.398ZM92.598 101.952V104.072H85.018V101.952H92.598ZM80.458 96.4718V98.5718H97.198V96.4718H80.458ZM102.516 98.6518V103.012H105.116V98.6518H102.516ZM108.376 98.6318V103.012H110.976V98.6318H108.376ZM98.2765 102.172V104.332H115.036V102.172H98.2765ZM100.156 89.0518V91.1518H110.516V93.1118H100.196V98.3318H102.836V95.1918H113.156V89.0518H100.156ZM100.196 97.2118V99.3518H113.576V97.2118H100.196Z" fill="#949494"/>
<g clip-path="url(#clip0_951_7510)">
<path d="M123.932 25.6422C122.657 18.2023 116.15 13.3155 108.566 14.1263C101.29 14.9042 95.7278 21.8072 96.5521 29.0608C96.6291 29.7073 96.728 30.3538 96.8159 31.0441C94.6506 31.0441 92.5402 31.0441 90.4299 31.0222C90.276 31.0222 90.0342 30.7373 89.9902 30.551C89.1658 27.3406 88.3525 24.1301 87.5501 20.9087C87.2753 19.7802 86.6488 18.9912 85.5606 18.5639C82.1312 17.1833 78.6799 15.8027 75.2285 14.4331C74.4262 14.1153 73.9975 14.3126 73.6677 15.1343C73.2171 16.2081 72.7884 17.271 72.3707 18.3448C72.03 19.1994 72.2059 19.5939 73.0742 19.9445C75.921 21.084 78.7788 22.2126 81.6256 23.3741C81.8674 23.4727 82.1312 23.7685 82.2082 24.0206C82.5269 25.1272 82.7797 26.2558 83.0655 27.3734C83.3623 28.5678 83.6701 29.7621 83.9888 31.0331C82.7578 31.0331 81.6256 31.0222 80.4935 31.0331C79.79 31.0331 79.4163 31.3399 79.4053 31.9535C79.3833 34.1121 79.3833 36.2816 79.4053 38.4401C79.4053 38.988 79.7461 39.3057 80.2956 39.3605C80.8122 39.4043 81.2299 39.0537 81.3069 38.4949C81.3288 38.3086 81.3289 38.1114 81.3289 37.9142C81.3289 36.5007 81.3289 35.0872 81.3289 33.6738C81.3289 33.4437 81.3508 33.2245 81.3618 32.9506C82.2302 32.9506 83.0215 32.9725 83.8239 32.9506C84.3186 32.9287 84.5274 33.0602 84.6483 33.5752C85.3847 36.6541 86.1761 39.7111 86.9455 42.7901C87.2093 43.8201 87.4621 44.85 87.7369 45.9348C86.7147 45.9348 85.7914 45.9348 84.8681 45.9348C83.9778 45.9348 83.6701 46.2525 83.6701 47.1401C83.6701 49.9232 83.6701 52.7063 83.6701 55.4894C83.6701 56.103 83.736 56.7275 83.8239 57.3411C84.7472 63.4771 91.0124 67.9476 97.1457 66.8519C103.004 65.8 106.939 61.1652 106.972 55.2374C106.983 52.6077 106.972 49.967 106.972 47.3373C106.972 46.1758 106.73 45.9348 105.576 45.9348C101.872 45.9348 98.1679 45.9348 94.4747 45.9348C94.0021 45.9348 93.8153 45.8033 93.7053 45.3321C92.7381 41.3876 91.7379 37.454 90.7486 33.5094C90.7046 33.356 90.6937 33.1917 90.6607 33.0054H109.324V33.6847C109.324 40.8397 109.324 47.9838 109.324 55.1388C109.324 55.9277 109.269 56.7275 109.148 57.5055C107.709 67.334 96.3323 72.5496 87.9238 67.2025C83.5491 64.4194 81.3618 60.3653 81.3289 55.2045C81.3069 50.986 81.3289 46.7675 81.3289 42.549C81.3289 41.7382 80.9661 41.3109 80.3286 41.3328C79.7241 41.3438 79.3943 41.7492 79.3943 42.5381C79.3943 47.0086 79.2734 51.49 79.4383 55.9605C79.6581 62.0089 82.6149 66.5122 87.9348 69.4159C89.2538 70.139 90.7376 70.5554 92.1775 71.1252V73.6124C90.3089 73.6124 88.4844 73.5905 86.6598 73.6124C84.2086 73.6563 82.0653 75.519 81.6696 77.9296C81.5597 78.6199 81.5157 79.2882 82.1642 79.7813H108.511C109.115 79.4197 109.214 78.8719 109.126 78.2254C108.742 75.4861 106.609 73.6234 103.807 73.6015C102.257 73.5905 100.707 73.6015 99.1571 73.6015H98.4977V70.9608C98.7724 70.8951 99.0033 70.8403 99.2341 70.7855C105.829 69.2187 110.973 63.1703 111.215 56.4536C111.38 51.9831 111.281 47.5016 111.292 43.0311C111.292 42.0085 111.797 41.4131 112.809 41.2451C120.03 40.0399 125.185 32.8191 123.965 25.6422H123.932ZM104.972 47.9071C104.994 48.0495 105.027 48.17 105.027 48.2906C105.027 50.734 105.071 53.1774 105.016 55.6099C104.917 60.442 101.158 64.5619 96.5082 65.0111C91.3751 65.5042 86.9675 62.4362 85.8354 57.5384C85.6925 56.9138 85.6156 56.2673 85.6046 55.6318C85.5826 53.2103 85.5936 50.7888 85.5936 48.3782C85.5936 48.2358 85.6156 48.0933 85.6265 47.9071H104.972ZM91.8588 45.9348C91.1883 45.9348 90.6167 45.9567 90.0451 45.9238C89.9023 45.9238 89.6934 45.7485 89.6604 45.617C88.8581 42.4395 84.5494 25.3135 84.0987 23.4727C84.0987 23.4727 83.758 22.125 81.7575 21.3251C81.7465 21.3251 81.7355 21.3251 81.7245 21.3141C79.3504 20.3828 76.9872 19.4295 74.613 18.4872C74.58 18.4763 74.5581 18.4324 74.4701 18.3338C74.7009 17.764 74.9537 17.1614 75.2175 16.5149C78.0424 17.6326 80.8122 18.7392 83.6701 19.8788C83.6701 19.8788 83.9119 19.9555 84.2306 20.0979C84.2526 20.0979 84.2636 20.1089 84.2856 20.1198C84.5054 20.2184 84.7472 20.3499 84.989 20.5252C85.2309 20.7006 85.4946 20.8868 85.6815 21.3141C85.8684 21.7415 85.9783 22.4208 86.0442 22.7605C86.7477 25.5765 91.0344 42.6148 91.8588 45.9348ZM103.862 75.5299C105.367 75.5299 106.598 76.4503 106.961 77.809H83.714C84.1317 76.4175 85.3188 75.5409 86.8136 75.5299C89.2648 75.519 91.7269 75.5299 94.178 75.5299V71.2676H96.4312V75.5299C98.9043 75.5299 101.377 75.5299 103.84 75.5299H103.862ZM105.774 30.8249C105.532 31.0441 105.016 31.0222 104.631 31.0222C103.345 31.0441 103.334 31.0331 102.993 29.795C102.345 27.3953 102.784 25.193 104.224 23.2097C105.785 24.7656 107.302 26.2668 108.841 27.8117C107.851 28.7979 106.851 29.8497 105.774 30.8249ZM112.644 24.0425C111.885 24.7985 111.138 25.5655 110.445 26.2558C108.885 24.7109 107.368 23.1878 105.84 21.6757C107.95 19.6815 112.314 19.6596 114.897 21.7963C114.139 22.5523 113.391 23.2864 112.644 24.0425ZM116.359 23.2645C118.403 25.7189 118.392 29.9703 116.315 32.2493C114.809 30.7373 113.303 29.2252 111.841 27.7569C113.314 26.2887 114.842 24.7766 116.359 23.2645ZM111.259 33.0383C111.259 32.6986 111.259 32.3589 111.248 32.0192C111.215 31.4166 110.874 31.0769 110.27 31.055C109.698 31.0331 109.126 31.055 108.434 31.055C109.126 30.3647 109.698 29.795 110.248 29.2471C111.731 30.7482 113.237 32.2713 114.776 33.8162C113.842 34.5503 112.677 35.0105 111.27 35.2297C111.27 34.4736 111.27 33.7614 111.27 33.0492L111.259 33.0383ZM122.151 28.25C121.921 33.8491 117.579 38.6483 112.028 39.4263C111.819 39.4591 111.6 39.4591 111.325 39.481V37.191C114.633 36.687 117.194 35.0434 118.766 32.0412C119.92 29.8388 120.118 27.5159 119.448 25.1272C118.074 20.3061 113.138 17.4463 108.148 18.5091C103.719 19.4514 99.1791 24.5136 101.29 31.0441C100.553 31.0441 99.8936 31.0769 99.2341 31.0222C99.0692 31.0112 98.8384 30.7373 98.7944 30.551C97.8052 26.2229 98.8824 22.4427 102.026 19.309C105.499 15.8685 110.687 14.9919 115.172 16.9861C119.568 18.9365 122.36 23.4398 122.162 28.261L122.151 28.25Z" fill="#949494"/>
</g>
<defs>
<clipPath id="clip0_951_7510">
<rect width="51.9021" height="65.7427" fill="white" transform="translate(72.2061 14.0386)"/>
</clipPath>
</defs>
</svg>
