<svg width="440" height="333" viewBox="0 0 440 333" fill="none" xmlns="http://www.w3.org/2000/svg">
<rect width="440" height="333" fill="white"/>
<path d="M237.667 133.417H231.062L227.25 129.25H214.75L210.937 133.417H204.333C202.042 133.417 200.167 135.292 200.167 137.583V162.583C200.167 164.875 202.042 166.75 204.333 166.75H237.667C239.958 166.75 241.833 164.875 241.833 162.583V137.583C241.833 135.292 239.958 133.417 237.667 133.417ZM237.667 162.583H204.333V137.583H212.771L216.583 133.417H225.417L229.229 137.583H237.667V162.583ZM221 139.667C215.25 139.667 210.583 144.333 210.583 150.083C210.583 155.833 215.25 160.5 221 160.5C226.75 160.5 231.417 155.833 231.417 150.083C231.417 144.333 226.75 139.667 221 139.667ZM221 156.333C217.562 156.333 214.75 153.521 214.75 150.083C214.75 146.646 217.562 143.833 221 143.833C224.437 143.833 227.25 146.646 227.25 150.083C227.25 153.521 224.437 156.333 221 156.333Z" fill="#949494"/>
<path d="M141.136 187.68V190.38C141.136 193.82 139.716 197.38 136.596 198.84L138.196 200.98C141.696 199.26 143.296 194.96 143.296 190.38V187.68H141.136ZM141.676 187.68V190.38C141.676 194.82 143.136 198.94 146.476 200.64L148.076 198.52C145.116 197.08 143.796 193.7 143.796 190.38V187.68H141.676ZM148.816 186.26V204.78H151.496V186.26H148.816ZM150.896 193.38V195.6H154.176V193.38H150.896ZM159.274 188.32V189.88C159.274 192.22 157.934 194.62 154.854 195.62L156.214 197.7C159.774 196.54 161.474 193.38 161.474 189.88V188.32H159.274ZM159.814 188.32V189.88C159.814 193.24 161.494 196.26 164.974 197.36L166.334 195.3C163.314 194.34 161.994 192.08 161.994 189.88V188.32H159.814ZM155.554 187.58V189.68H165.634V187.58H155.554ZM167.494 186.28V199.64H170.174V186.28H167.494ZM157.834 202.34V204.46H170.634V202.34H157.834ZM157.834 198.44V203.4H160.494V198.44H157.834ZM180.953 186.52C176.713 186.52 174.253 187.64 174.253 189.68C174.253 191.72 176.713 192.84 180.953 192.84C185.173 192.84 187.653 191.72 187.653 189.68C187.653 187.64 185.173 186.52 180.953 186.52ZM180.953 188.46C183.633 188.46 184.893 188.86 184.893 189.68C184.893 190.54 183.633 190.9 180.953 190.9C178.273 190.9 177.013 190.54 177.013 189.68C177.013 188.86 178.273 188.46 180.953 188.46ZM172.573 193.7V195.8H189.313V193.7H172.573ZM174.493 196.84V198.82H184.673V199.76H174.513V203.24H177.133V201.6H187.293V196.84H174.493ZM174.513 202.66V204.66H187.773V202.66H174.513ZM194.322 194.72V196.88H211.082V194.72H194.322ZM196.342 191.34V193.44H209.182V191.34H196.342ZM196.342 186.76V192.38H198.982V188.88H209.082V186.76H196.342ZM202.642 197.98C198.642 197.98 196.202 199.2 196.202 201.38C196.202 203.56 198.642 204.78 202.642 204.78C206.642 204.78 209.062 203.56 209.062 201.38C209.062 199.2 206.642 197.98 202.642 197.98ZM202.642 199.98C205.122 199.98 206.382 200.44 206.382 201.38C206.382 202.34 205.122 202.76 202.642 202.76C200.162 202.76 198.902 202.34 198.902 201.38C198.902 200.44 200.162 199.98 202.642 199.98ZM212.101 196.18V198.3H228.881V196.18H212.101ZM214.161 186.62V188.64H224.221V189.76H214.181V193.64H216.821V191.64H226.841V186.62H214.161ZM214.181 192.84V194.86H227.201V192.84H214.181ZM219.161 193.82V197.34H221.821V193.82H219.161ZM213.961 199.34V201.44H224.301V204.72H226.961V199.34H213.961ZM233.81 189.04V191.16H242.67V189.04H233.81ZM238.27 191.98C235.93 191.98 234.21 193.8 234.21 196.4C234.21 198.98 235.93 200.8 238.27 200.8C240.63 200.8 242.33 198.98 242.33 196.4C242.33 193.8 240.63 191.98 238.27 191.98ZM238.27 194.2C239.27 194.2 239.99 195 239.99 196.4C239.99 197.8 239.27 198.58 238.27 198.58C237.27 198.58 236.57 197.8 236.57 196.4C236.57 195 237.27 194.2 238.27 194.2ZM247.21 186.26V204.78H249.75V186.26H247.21ZM244.99 193.78V195.92H248.05V193.78H244.99ZM243.33 186.6V204H245.81V186.6H243.33ZM236.97 186.76V190.38H239.59V186.76H236.97ZM258.489 188.32V188.86C258.489 190.76 256.529 192.84 252.449 193.34L253.429 195.42C258.129 194.78 260.789 192.12 260.789 188.86V188.32H258.489ZM259.249 188.32V188.86C259.249 192.12 261.909 194.78 266.629 195.42L267.589 193.34C263.509 192.84 261.549 190.76 261.549 188.86V188.32H259.249ZM258.629 198V204.8H261.269V198H258.629ZM251.649 196.48V198.6H268.389V196.48H251.649ZM253.129 187.2V189.3H266.869V187.2H253.129ZM276.727 192.48V194.64H279.787V192.48H276.727ZM272.767 187.86V190.98C272.767 194.12 271.807 197.42 269.087 199.1L270.687 201.1C273.647 199.28 274.807 195.18 274.807 190.98V187.86H272.767ZM273.347 187.86V190.86C273.347 194.86 274.267 198.86 277.207 200.68L278.647 198.6C276.127 196.96 275.347 193.88 275.347 190.86V187.86H273.347ZM282.807 186.26V204.78H285.347V186.26H282.807ZM279.047 186.54V203.94H281.527V186.54H279.047ZM290.926 195.66V200.86H293.566V195.66H290.926ZM297.646 195.66V200.86H300.306V195.66H297.646ZM287.246 200.48V202.64H304.006V200.48H287.246ZM295.606 187.16C291.606 187.16 288.686 189.12 288.686 192.14C288.686 195.16 291.606 197.1 295.606 197.1C299.586 197.1 302.526 195.16 302.526 192.14C302.526 189.12 299.586 187.16 295.606 187.16ZM295.606 189.24C298.186 189.24 299.906 190.3 299.906 192.14C299.906 193.96 298.186 195.04 295.606 195.04C293.026 195.04 291.306 193.96 291.306 192.14C291.306 190.3 293.026 189.24 295.606 189.24Z" fill="#949494"/>
</svg>
