<svg width="196" height="119" viewBox="0 0 196 119" fill="none" xmlns="http://www.w3.org/2000/svg">
<rect x="0.130859" width="195.566" height="118.172" rx="59.0858" fill="#FFE053"/>
<g clip-path="url(#clip0_951_7531)">
<path d="M132.951 33.7399C132.648 34.9652 132.43 36.2462 132.017 37.4298C131.18 39.8386 129.785 41.8158 128.086 43.5007C127.637 43.9462 127.443 44.4057 127.443 45.1019C127.467 53.9298 127.467 62.7437 127.443 71.5716C127.443 74.9134 126.145 77.4058 123.548 78.9514C122.517 79.564 121.401 79.7729 120.236 79.7729C110.76 79.7729 101.284 79.7729 91.8204 79.7729C86.3484 79.7729 80.8764 79.7729 75.4166 79.7729C71.0972 79.7729 68.1489 76.3754 68.1489 71.4045C68.1489 62.8134 68.1368 54.2361 68.1732 45.645C68.1732 44.5867 67.9305 43.8766 67.2147 43.1665C65.3826 41.3285 63.9873 39.0867 63.2351 36.3994C62.0703 32.3335 62.7012 28.5601 64.7881 25.093C67.0569 21.3196 70.2601 18.8829 73.8514 17.0728C78.6682 14.636 83.752 13.6196 88.9934 13.5778C94.5746 13.55 100.156 13.5778 105.749 13.5778C110.687 13.5778 115.504 14.3993 120.127 16.4322C123.536 17.9221 126.666 19.9411 129.239 22.9766C131.119 25.1905 132.417 27.7525 132.83 30.8576C132.842 30.9829 132.903 31.1082 132.939 31.2196V33.7399H132.951ZM89.139 76.6121C93.6646 76.6121 98.2024 76.6121 102.728 76.6121C105.773 76.6121 107.411 74.7185 107.411 71.1957C107.411 62.0893 107.411 52.969 107.411 43.8627C107.411 42.9994 107.678 42.3867 108.248 41.8437C108.989 41.1475 109.704 40.3956 110.348 39.588C113.66 35.4247 113.733 30.1057 110.578 25.831C108.309 22.7677 105.385 20.7766 102.158 19.4259C93.519 15.8057 84.8318 15.7917 76.1931 19.4259C72.8201 20.8323 69.7747 22.9069 67.5059 26.193C65.6131 28.9221 64.8851 31.9854 65.8315 35.4108C66.5352 37.945 67.9427 39.9361 69.7383 41.5374C70.5998 42.3171 70.9274 43.1526 70.9274 44.4057C70.891 53.3868 70.9031 62.3678 70.9031 71.3488C70.9031 74.7045 72.5775 76.6261 75.5015 76.6261C80.0514 76.6261 84.6013 76.6261 89.1633 76.6261L89.139 76.6121ZM104.123 16.655C104.123 16.7386 104.111 16.8082 104.099 16.8917C104.742 17.2398 105.385 17.574 106.016 17.936C108.722 19.5095 111.136 21.5145 113.005 24.2854C115.565 28.0728 116.378 32.2639 114.934 36.8589C114.084 39.5323 112.592 41.7184 110.724 43.5564C110.311 43.9602 110.141 44.3779 110.141 45.0323C110.166 53.8323 110.141 62.6184 110.153 71.4184C110.153 72.8109 109.959 74.1336 109.425 75.3868C109.256 75.7767 109.049 76.1526 108.819 76.6261H109.583C113.065 76.6261 116.535 76.6261 120.018 76.6261C123.075 76.6261 124.713 74.7324 124.713 71.2235C124.713 62.1172 124.713 52.9969 124.713 43.8905C124.713 43.0272 124.968 42.4146 125.55 41.8576C126.29 41.1614 127.006 40.4095 127.649 39.6019C130.986 35.4247 131.059 30.2589 127.88 25.9285C126.035 23.4361 123.694 21.7234 121.146 20.3588C117.457 18.3816 113.563 17.3234 109.522 16.9335C107.739 16.7664 105.931 16.7525 104.148 16.669L104.123 16.655Z" fill="#FF5936"/>
<path d="M98.4571 40.7718C98.1538 41.3566 98.0082 41.8439 97.7291 42.1781C92.6697 48.0123 87.5981 53.8465 82.5143 59.6528C81.8349 60.4186 81.0099 60.4743 80.4396 59.8478C79.8572 59.2073 79.8936 58.2047 80.5852 57.411C85.6325 51.6047 90.7041 45.7984 95.7515 39.992C96.2246 39.449 96.807 39.1148 97.4137 39.4908C97.8262 39.7414 98.081 40.2983 98.4571 40.7857V40.7718Z" fill="#FF5936"/>
<path d="M86.8087 40.7715C86.5054 41.3563 86.3598 41.8437 86.0807 42.1778C84.2608 44.3082 82.4166 46.4247 80.5723 48.5272C79.8808 49.3209 79.0921 49.3766 78.5097 48.7222C77.9031 48.0677 77.9395 47.107 78.6432 46.2994C80.4753 44.1829 82.3195 42.0804 84.1637 39.9639C84.6248 39.4348 85.195 39.1563 85.7653 39.5044C86.1778 39.755 86.4447 40.312 86.8208 40.7854L86.8087 40.7715Z" fill="#FF5936"/>
<path d="M100.399 51.9247C100.107 52.4956 99.9739 52.969 99.707 53.2893C97.8749 55.4475 96.0064 57.5639 94.1501 59.6804C93.4828 60.4462 92.6334 60.4741 92.0753 59.8336C91.5051 59.1791 91.5415 58.2462 92.2088 57.4665C94.053 55.3222 95.9094 53.1918 97.7778 51.0753C98.2268 50.5601 98.8091 50.2538 99.3794 50.6576C99.7798 50.9361 100.047 51.4791 100.399 51.9386V51.9247Z" fill="#FF5936"/>
<path d="M90.5094 36.4132C90.5215 37.2347 89.9027 37.9866 89.1748 38.0005C88.4468 38.0145 87.8037 37.3043 87.7795 36.4828C87.7673 35.6613 88.3983 34.9094 89.1141 34.8815C89.8178 34.8676 90.4851 35.5917 90.4973 36.4132H90.5094Z" fill="#FF5936"/>
<path d="M89.1753 64.7491C88.4716 64.7769 87.8042 64.0389 87.78 63.2174C87.7557 62.3959 88.3866 61.644 89.1146 61.6301C89.8426 61.6162 90.4856 62.3263 90.5099 63.1478C90.522 63.9693 89.8911 64.7212 89.1753 64.7491Z" fill="#FF5936"/>
<path d="M116.475 59.6946C116.475 55.8655 116.487 52.0364 116.475 48.1933C116.475 47.3579 116.669 46.6756 117.166 46.0629C119.35 43.292 120.915 40.1173 121.583 36.4414C121.801 35.2439 121.874 34.0047 121.971 32.7793C122.056 31.6237 122.565 30.9135 123.378 30.9274C124.215 30.9414 124.749 31.7211 124.725 32.9047C124.592 38.2376 122.978 42.9439 120.042 47.0376C119.471 47.8313 119.217 48.5971 119.229 49.6414C119.265 56.8402 119.253 64.025 119.253 71.2237C119.253 72.6579 118.792 73.4237 117.906 73.4377C116.996 73.4516 116.511 72.6718 116.511 71.1959C116.511 67.3668 116.511 63.5376 116.511 59.6946H116.475Z" fill="#FF5936"/>
</g>
<path d="M83.1163 87.8513V106.431H85.7963V87.8513H83.1163ZM71.5363 99.7913V102.011H73.1363C77.1163 102.011 79.4563 101.931 81.9563 101.431L81.7163 99.2513C79.2363 99.7113 77.0363 99.7913 73.1363 99.7913H71.5363ZM71.5363 89.4913V100.631H74.1763V91.6313H80.4763V89.4913H71.5363ZM101.095 87.8313V106.411H103.755V87.8313H101.095ZM97.8547 94.3113V96.4513H101.715V94.3113H97.8547ZM92.4947 90.7713V92.4113C92.4947 95.8513 91.0347 99.3913 87.9347 100.851L89.4947 102.951C92.9547 101.251 94.5947 96.9313 94.5947 92.4113V90.7713H92.4947ZM93.1147 90.7713V92.4113C93.1147 96.7913 94.7147 100.931 98.1947 102.571L99.7347 100.491C96.6347 99.0913 95.1947 95.6713 95.1947 92.4113V90.7713H93.1147ZM88.6947 89.6313V91.7713H98.9947V89.6313H88.6947ZM107.993 97.3913V99.4713H121.013V97.3913H107.993ZM106.033 102.091V104.251H122.793V102.091H106.033ZM107.993 89.1913V97.9713H110.693V91.3313H120.853V89.1913H107.993ZM109.873 93.2713V95.3313H120.433V93.2713H109.873Z" fill="#FF5936"/>
<defs>
<clipPath id="clip0_951_7531">
<rect width="70.2986" height="66.1951" fill="white" transform="translate(62.6523 13.564)"/>
</clipPath>
</defs>
</svg>
