<svg width="196" height="119" viewBox="0 0 196 119" fill="none" xmlns="http://www.w3.org/2000/svg">
<rect x="0.261719" width="195.566" height="118.172" rx="59.0858" fill="white"/>
<g clip-path="url(#clip0_951_7487)">
<path d="M133.082 26.4551C132.683 26.8755 132.284 27.3192 131.873 27.7279C126.826 32.7488 121.779 37.7698 116.731 42.7908C114.079 45.4297 110.945 46.3054 107.306 45.348C107.118 45.3013 106.801 45.3129 106.695 45.4297C105.392 46.8543 104.113 48.3022 102.775 49.7968C103.855 50.7543 104.899 51.6767 105.932 52.5875C111.872 57.8303 117.823 63.0615 123.739 68.3277C126.72 70.9783 126.744 75.4271 123.868 78.0543C121.121 80.5648 116.966 80.2963 114.384 77.4121C110.639 73.2319 106.907 69.0399 103.174 64.848C100.991 62.3959 98.7957 59.9438 96.6125 57.4917C96.5068 57.3749 96.4129 57.2582 96.2603 57.083C94.887 58.6127 93.5723 60.0956 92.2577 61.5669C87.5156 66.8798 82.7852 72.1926 78.043 77.4939C75.4841 80.3546 71.1411 80.5181 68.4531 77.8675C65.7534 75.2052 65.8708 70.9082 68.77 68.3277C73.6765 63.9606 78.6182 59.6169 83.5481 55.2731C84.1585 54.736 84.7689 54.6543 85.2853 55.0163C86.0248 55.53 86.0248 56.4291 85.2619 57.1064C83.5951 58.601 81.9165 60.0723 80.238 61.5552C77.0101 64.416 73.7704 67.2651 70.5425 70.1259C68.6761 71.784 68.547 74.4463 70.249 76.1043C71.9393 77.7624 74.5686 77.6223 76.2119 75.7774C85.8957 64.9181 95.5913 54.0588 105.275 43.1995C106.038 42.3471 106.308 42.3004 107.364 42.6974C110.182 43.7599 112.682 43.2228 114.806 41.1327C120.1 35.9015 125.359 30.647 130.629 25.4042C131.58 24.4584 132.319 24.5284 133.071 25.6377V26.4551H133.082ZM97.9623 55.2031C98.1384 55.4133 98.2675 55.5651 98.4084 55.7169C101.46 59.1381 104.512 62.5594 107.564 65.9807C110.463 69.2268 113.363 72.4846 116.262 75.7307C117.318 76.91 118.598 77.4822 120.171 77.1786C121.767 76.875 122.859 75.9175 123.305 74.3645C123.786 72.6947 123.293 71.2702 121.99 70.1259C115.135 64.0657 108.268 58.0055 101.402 51.957C101.308 51.8752 101.19 51.8052 101.073 51.7118C100.028 52.8794 99.007 54.0237 97.9623 55.2031Z" fill="#949494"/>
<path d="M91.4712 39.8013C93.0793 41.2142 94.6522 42.6037 96.2603 44.04C97.3637 43.0708 98.3966 42.0783 99.5234 41.1908C100.674 40.2917 101.261 39.4744 100.897 37.7929C100.263 34.8037 101.366 32.1414 103.538 29.9812C108.832 24.6917 114.149 19.4255 119.454 14.1477C119.642 13.9608 119.854 13.7506 120.1 13.6572C120.628 13.4587 121.145 13.5521 121.532 14.0075C121.919 14.4863 121.943 15.0117 121.591 15.5138C121.45 15.7123 121.262 15.8875 121.086 16.0626C115.933 21.2004 110.78 26.3381 105.604 31.4525C103.291 33.7294 102.657 36.3333 103.89 39.3576C104.16 40.0115 104.019 40.5486 103.491 41.0157C99.8404 44.2268 96.2016 47.4495 92.5511 50.6606C91.7647 51.3612 91.1191 51.3028 90.4148 50.5205C89.018 48.9558 87.6094 47.4028 86.2361 45.8148C85.9544 45.4879 85.7431 45.4178 85.3205 45.5929C80.2497 47.8115 74.7329 46.7606 70.8711 42.8256C67.5845 39.486 64.9552 35.7145 63.5584 31.2073C62.8658 28.9654 62.5371 26.6534 62.9949 24.2947C63.8518 19.8809 67.2675 17.0318 71.8219 16.8917C75.132 16.7866 78.1838 17.7324 81.0949 19.2153C84.1937 20.7917 86.9404 22.8701 89.3466 25.3689C92.9385 29.1055 93.8423 34.5935 91.6942 39.3109C91.6238 39.451 91.5651 39.6028 91.4712 39.813V39.8013ZM94.3587 45.7214C94.077 45.4645 93.854 45.2543 93.6075 45.0441C92.2224 43.8181 90.8374 42.6037 89.4523 41.3777C88.4311 40.4786 88.3724 40.1516 89.0297 38.9839C91.0369 35.3759 90.6965 30.9854 88.0907 27.786C86.3182 25.6142 84.0998 23.921 81.717 22.4498C79.0642 20.815 76.2353 19.659 73.0778 19.4138C69.1104 19.0986 66.1759 21.1537 65.4716 24.8318C65.1547 26.4665 65.3425 28.1013 65.7533 29.701C66.8919 34.0447 69.3334 37.6411 72.4088 40.8289C76.0241 44.5771 80.684 45.2894 85.2736 42.8373C86.107 42.3935 86.5647 42.4636 87.2103 43.1759C88.2198 44.2968 89.2175 45.4178 90.2153 46.5504C90.6848 47.0759 91.1543 47.5897 91.6473 48.1268C92.5628 47.3094 93.4314 46.5504 94.347 45.7331L94.3587 45.7214Z" fill="#949494"/>
<path d="M129.349 21.8546C129.079 22.31 128.95 22.6953 128.692 22.9522C124.419 27.2259 120.135 31.4762 115.851 35.7382C115.229 36.3453 114.501 36.392 113.961 35.8783C113.409 35.3528 113.445 34.5822 114.078 33.9516C118.339 29.7013 122.612 25.4627 126.873 21.2124C127.319 20.7686 127.835 20.5001 128.399 20.827C128.763 21.0489 129.009 21.4809 129.338 21.8546H129.349Z" fill="#949494"/>
<path d="M111.261 32.9354C110.839 32.5968 110.381 32.3983 110.205 32.048C110.04 31.7211 110.146 31.2307 110.228 30.8336C110.275 30.6235 110.533 30.4483 110.709 30.2732C114.841 26.1513 118.985 22.0411 123.116 17.9309C123.292 17.7558 123.469 17.5689 123.68 17.4288C124.208 17.0902 124.725 17.1369 125.194 17.5456C125.652 17.9309 125.757 18.5848 125.441 19.0869C125.3 19.3204 125.1 19.5073 124.901 19.7058C120.769 23.8276 116.637 27.9378 112.482 32.048C112.165 32.3633 111.742 32.5851 111.249 32.9354H111.261Z" fill="#949494"/>
</g>
<path d="M92.7825 87.8518V106.372H95.4625V87.8518H92.7825ZM87.3225 89.7718V90.2518C87.3225 95.2118 85.4025 98.5718 80.0825 101.132L81.4625 103.252C88.0425 100.072 89.9625 95.4318 89.9625 89.7718H87.3225ZM81.0625 89.7718V91.8718H88.5825V89.7718H81.0625ZM98.5409 100.032V102.192H100.101C103.281 102.192 105.801 102.112 108.601 101.672L108.361 99.5518C105.601 99.9918 103.221 100.032 100.101 100.032H98.5409ZM98.5409 89.3918V100.732H101.221V91.5518H107.241V89.3918H98.5409ZM100.581 94.5318V96.6118H106.981V94.5318H100.581ZM109.661 87.8518V106.372H112.341V87.8518H109.661ZM111.741 94.8718V97.0718H115.021V94.8718H111.741Z" fill="#949494"/>
<defs>
<clipPath id="clip0_951_7487">
<rect width="70.2986" height="66.1951" fill="white" transform="translate(62.7832 13.564)"/>
</clipPath>
</defs>
</svg>
