<svg width="197" height="119" viewBox="0 0 197 119" fill="none" xmlns="http://www.w3.org/2000/svg">
<rect x="0.56543" width="195.566" height="118.172" rx="59.0858" fill="white"/>
<g clip-path="url(#clip0_951_7463)">
<path d="M132.936 47.3753C132.573 47.0063 132.001 46.8121 131.276 46.8024C130.87 46.8024 130.452 46.8024 130.045 46.8024H129.573C129.562 46.7441 129.54 46.6956 129.529 46.647C129.496 46.5208 129.463 46.414 129.452 46.3169C129.21 44.4719 128.452 42.7144 127.199 41.0928C126.738 40.5004 126.1 39.879 125.232 40.3645C124.935 40.5296 124.76 40.7335 124.705 40.9762C124.628 41.3258 124.792 41.7531 125.21 42.2871C126.276 43.6563 126.891 45.1225 127.1 46.7636H125.298C124.65 43.6077 122.726 41.4229 119.573 40.2577C116.485 39.1216 113.375 39.4711 110.342 41.2967L109.254 40.0246C111.451 38.5681 113.847 37.8981 116.55 38.0146C118.144 38.0729 119.704 38.4516 121.32 39.1701C121.704 39.3352 122.1 39.374 122.43 39.2672C122.715 39.1798 122.946 38.9856 123.078 38.7137C123.364 38.1408 123.1 37.5873 122.375 37.2669L122.254 37.2086C121.748 36.9853 121.232 36.7523 120.693 36.6163C119.836 36.393 119.001 36.2085 118.111 36.0143C117.792 35.9463 117.485 35.8783 117.166 35.8006V35.7812C117.265 35.6647 117.353 35.5482 117.452 35.4219C118.693 33.8974 119.946 32.3729 121.188 30.8581L124.386 26.9448C126.166 24.7697 127.946 22.6043 129.716 20.4292C130.21 19.8175 130.408 19.2737 130.309 18.7591C130.21 18.2347 129.826 17.7686 129.111 17.3219C128.891 17.186 128.672 17.0501 128.452 16.9141C127.441 16.2829 126.738 16.0693 126.133 16.1664C125.518 16.2635 124.968 16.6811 124.287 17.5744L121.595 21.0604C117.474 26.3914 113.221 31.9068 109.012 37.3252C108.781 37.6262 108.44 37.8786 108.111 38.1214C107.979 38.2185 107.847 38.3156 107.726 38.4224L107.693 38.3933C108.594 36.7814 109.495 35.1695 110.396 33.5576L112.243 30.2658C114.605 26.0515 117.045 21.6819 119.419 17.3802C119.726 16.8267 119.847 16.1664 119.737 15.6615C119.584 14.9721 118.616 14.3409 117.759 13.9816C116.902 13.6223 115.748 13.3699 115.056 13.7C114.463 13.9913 114.001 14.5642 113.759 15.0012C110.935 20.3516 108.1 25.799 105.352 31.0717L103.155 35.286C103.078 35.4219 103.001 35.5676 102.913 35.7327L102.88 35.7909V35.7715C102.825 35.6453 102.792 35.5482 102.748 35.4511C101.023 30.4114 95.7367 26.9351 89.8465 26.9351C89.7805 26.9351 89.7146 26.9351 89.6597 26.9351C83.5496 27.0128 78.2088 30.6639 76.6703 35.8201C76.5494 36.2279 76.3406 36.4221 75.8791 36.5775C71.1866 38.1894 68.2525 41.1899 67.1755 45.5109C67.0986 45.812 67.0437 46.113 66.9777 46.4334C66.9557 46.5499 66.9338 46.6665 66.9118 46.783C66.736 46.783 66.5711 46.783 66.4063 46.783C65.9777 46.783 65.5601 46.783 65.1425 46.783C64.4502 46.7927 63.9007 47.0063 63.5381 47.385C63.1864 47.754 63.0435 48.259 63.1425 48.8416C63.3622 50.1719 63.571 51.376 63.8458 52.5897C64.9777 57.6585 67.2744 62.2515 70.6591 66.2424C72.9559 68.9516 75.7802 71.3015 79.033 73.2241C79.4066 73.4475 79.6154 73.6514 79.5934 74.0592C79.5385 75.0108 79.5055 75.8653 79.6264 76.7198C79.6814 77.1568 79.8572 77.9725 80.3627 78.4677C80.7473 78.8464 81.2748 79.1183 81.7913 79.3805C82.0111 79.4873 82.2309 79.6038 82.4397 79.73L82.4726 79.7495H114.1C114.1 79.7495 114.155 79.7106 114.188 79.6912C114.243 79.6621 114.287 79.6426 114.342 79.6232C116.045 79.1183 116.891 78.157 116.99 76.6033C117.045 75.7197 117.045 74.9623 116.99 74.2728C116.946 73.7485 117.144 73.4378 117.693 73.1076C121.397 70.9228 124.54 68.1359 127.034 64.8247C130.518 60.2026 132.606 54.9785 133.408 48.8416C133.485 48.2395 133.342 47.7249 132.98 47.3656L132.936 47.3753ZM127.694 19.264C127.595 19.3902 127.507 19.5165 127.408 19.633L124.276 23.4491C121.155 27.2556 117.924 31.198 114.77 35.0918C114.309 35.655 113.814 36.1599 112.847 36.1599C117.43 30.2366 121.979 24.3328 126.584 18.3804L127.804 19.1281L127.705 19.264H127.694ZM93.6048 43.9767C95.0334 42.258 98.0555 41.3549 100.484 41.9084C103.308 42.559 105.407 44.4914 105.726 46.7247C105.726 46.7247 105.726 46.7441 105.726 46.7636H103.924C103.111 44.5982 101.517 43.4718 99.1654 43.3941C99.0885 43.3941 99.0006 43.3941 98.9236 43.3941C96.6269 43.3941 94.9895 44.4719 94.0444 46.6082L93.9565 46.2683C93.7806 45.5789 93.6158 44.938 93.462 44.2874C93.451 44.2195 93.5059 44.1029 93.6158 43.9767H93.6048ZM91.319 40.6169C94.7257 38.0534 98.4511 37.3446 102.385 38.4904C106.693 39.7527 109.21 42.4619 110.089 46.7927C109.946 46.7927 109.814 46.7927 109.682 46.7927C109.254 46.7927 108.836 46.8024 108.44 46.7636C108.352 46.7636 108.166 46.5402 108.122 46.3654C107.297 43.0542 105.089 40.8985 101.55 39.9566C100.605 39.7042 99.6709 39.5779 98.7698 39.5779C96.6269 39.5779 94.6048 40.2771 92.7367 41.6851C92.6597 41.7433 92.5938 41.8016 92.5169 41.8502C92.4619 41.889 92.407 41.9375 92.363 41.9764C92.363 41.9764 92.352 41.9764 92.3301 41.9861L91.319 40.6072V40.6169ZM89.5937 32.839C92.0553 32.7225 94.6048 34.0722 95.8576 36.1502C95.7367 36.1891 95.6159 36.2182 95.506 36.257C95.1104 36.3736 94.7367 36.4804 94.3631 36.558C94.2422 36.5775 94.0004 36.4804 93.9015 36.3638C92.7806 35.1306 91.3081 34.4606 89.7476 34.4606C88.1761 34.4606 86.7035 35.1403 85.5826 36.3833C85.4837 36.4998 85.231 36.5969 85.1211 36.5775C84.7474 36.5095 84.3738 36.393 83.9782 36.2764C83.8573 36.2376 83.7364 36.1988 83.6045 36.1599C84.9343 34.0625 86.9013 32.9749 89.6047 32.839H89.5937ZM89.5827 36.6066C90.4399 36.5678 91.2751 36.927 91.8465 37.5776L89.6926 39.0245L87.6047 37.6165C88.0662 37.0047 88.7805 36.6357 89.5827 36.5969V36.6066ZM99.8907 35.8977C99.4401 35.888 99.0225 35.8783 98.594 35.8298C98.4621 35.8104 98.2753 35.6453 98.1983 35.4996C96.8357 33.0429 94.6048 31.4893 91.5608 30.8872C87.7145 30.1201 83.3298 31.9359 81.5825 35.0044C81.2199 35.6356 80.8792 35.9657 80.077 35.8686C79.8352 35.8395 79.5934 35.8686 79.3627 35.8977C79.3077 35.8977 79.2418 35.9075 79.1868 35.9172C80.2198 32.5477 84.209 29.0811 89.7256 29.0811C89.8245 29.0811 89.9234 29.0811 90.0333 29.0811C95.8906 29.2171 99.5061 33.1109 100.275 35.9075C100.154 35.9075 100.034 35.9075 99.9127 35.8977H99.8907ZM80.4396 37.9855C85.4178 37.9855 91.0003 41.2967 91.5278 46.7344H89.7366C89.297 44.2971 87.9014 42.3648 85.6046 40.9762C84.0881 40.0635 82.3408 39.5974 80.4176 39.5974C80.3627 39.5974 80.2968 39.5974 80.2418 39.5974C76.5384 39.6556 72.1317 41.9181 71.1537 46.7539H69.4283C69.5932 43.1125 73.4065 38.0923 80.2858 37.9855C80.3407 37.9855 80.3957 37.9855 80.4506 37.9855H80.4396ZM80.3407 41.7433C83.7254 41.6754 86.7255 43.8602 87.231 46.7636C87.1761 46.7636 87.1211 46.783 87.0662 46.783C86.0112 46.851 85.3409 46.8121 84.8573 45.7537C84.154 44.2389 82.5935 43.3844 80.5385 43.3844C80.4506 43.3844 80.3517 43.3844 80.2528 43.3844C78.1099 43.4621 76.5714 44.4428 75.7032 46.278C75.6483 46.4043 75.5933 46.5208 75.5494 46.647C75.5384 46.6859 75.5164 46.7247 75.5054 46.7539H73.7142C73.9999 44.0544 76.945 41.821 80.3517 41.7336L80.3407 41.7433ZM82.7364 46.7539H78.1209C78.6154 45.9479 79.3846 45.5304 80.4506 45.5012C80.4836 45.5012 80.5165 45.5012 80.5495 45.5012C81.5056 45.5012 82.2968 45.9576 82.7474 46.7539H82.7364ZM98.8137 45.5109C98.8687 45.5109 98.9346 45.5109 98.9896 45.5109C99.9786 45.5109 100.792 45.977 101.22 46.783C101.176 46.783 101.143 46.783 101.1 46.783C99.8797 46.783 98.6599 46.783 97.4401 46.783H96.6708C96.9456 46.0547 97.7698 45.5595 98.8137 45.5012V45.5109ZM104.869 37.0436L115.99 15.7392L117.353 16.2927L105.561 37.3737L104.88 37.0533L104.869 37.0436ZM111.495 43.2193C113.605 41.6948 115.924 41.3355 118.397 42.122C120.759 42.8892 122.243 44.4428 122.814 46.7636H120.968C120.32 44.9672 119.045 43.8602 117.144 43.4912C115.254 43.1125 113.572 43.598 112.144 44.9283L111.495 43.2193ZM115.77 45.5206C116.858 45.4138 117.726 45.8411 118.331 46.7539H113.748C114.034 46.0547 114.759 45.608 115.77 45.5206ZM90.1981 71.9132H90.0113C89.8465 71.9132 89.6926 71.9132 89.5278 71.9132C88.7256 71.9424 88.1981 72.3502 88.1981 72.9522C88.1981 73.5543 88.7036 73.9718 89.5058 74.0301C89.6706 74.0398 89.8245 74.0301 89.9893 74.0301H114.528C114.528 74.2825 114.528 74.5253 114.528 74.7681C114.528 75.3798 114.539 75.9527 114.506 76.5256C114.474 77.1859 114.045 77.5452 113.243 77.5841C113.122 77.5841 113.012 77.5841 112.88 77.5841H112.737C103.056 77.5841 93.374 77.5841 83.6815 77.5841C82.2638 77.5841 81.9342 77.2927 81.9342 76.0498C81.9342 75.4089 81.9342 74.7584 81.9561 74.1175C81.9561 74.1175 81.9671 74.0883 81.9781 74.0689C81.9781 74.0592 81.9891 74.0398 82.0001 74.0204H82.5276C83.0001 74.0204 83.4947 74.0204 83.9892 74.0204C84.9123 74.0009 85.4617 73.6222 85.4727 72.9717C85.4727 72.6901 85.3848 72.4473 85.187 72.2725C84.9343 72.0395 84.5057 71.9035 83.9562 71.9035C83.9122 71.9035 83.8573 71.9035 83.8133 71.9035C83.6925 71.9035 83.5606 71.8938 83.4287 71.9035C81.6924 72.1851 80.3297 71.554 78.8132 70.515C72.4614 66.155 68.2635 60.2512 66.3623 52.9782C66.1425 52.1431 65.9667 51.308 65.7799 50.3952C65.7139 50.0554 65.659 49.7058 65.615 49.3368C65.5931 49.2008 65.5821 49.0649 65.5601 48.929H130.903C130.518 51.9974 129.683 54.9979 128.397 57.843C126.43 62.2321 123.562 65.922 119.88 68.8157C118.781 69.6799 117.562 70.4664 116.386 71.2238C116.133 71.3889 115.869 71.554 115.616 71.719C115.397 71.8647 115.001 71.8841 114.715 71.8841C107.704 71.8841 100.704 71.8841 93.6927 71.8841H90.1871L90.1981 71.9132Z" fill="#949494"/>
</g>
<path d="M98.2604 90.7513V92.8713H102.92V90.7513H98.2604ZM98.2604 94.7313V96.8513H103V94.7313H98.2604ZM90.0804 89.3313V98.3913H98.8404V89.3313H90.0804ZM96.2204 91.4313V96.3113H92.7004V91.4313H96.2204ZM102.16 87.8713V101.351H104.82V87.8713H102.16ZM92.5604 103.931V106.051H105.22V103.931H92.5604ZM92.5604 100.071V105.031H95.2404V100.071H92.5604Z" fill="#949494"/>
<defs>
<clipPath id="clip0_951_7463">
<rect width="70.2986" height="66.1951" fill="white" transform="translate(63.0874 13.564)"/>
</clipPath>
</defs>
</svg>
