<svg width="197" height="119" viewBox="0 0 197 119" fill="none" xmlns="http://www.w3.org/2000/svg">
<rect x="0.56543" width="195.566" height="118.172" rx="59.0858" fill="#FFE053"/>
<g clip-path="url(#clip0_951_7527)">
<path d="M132.935 47.3753C132.572 47.0063 132.001 46.8121 131.276 46.8024C130.869 46.8024 130.451 46.8024 130.045 46.8024H129.572C129.561 46.7441 129.539 46.6956 129.528 46.647C129.495 46.5208 129.462 46.414 129.451 46.3169C129.21 44.4719 128.451 42.7144 127.199 41.0928C126.737 40.5004 126.1 39.879 125.232 40.3645C124.935 40.5296 124.759 40.7335 124.704 40.9762C124.627 41.3258 124.792 41.7531 125.21 42.2871C126.276 43.6563 126.891 45.1225 127.1 46.7636H125.297C124.649 43.6077 122.726 41.4229 119.572 40.2577C116.484 39.1216 113.374 39.4711 110.341 41.2967L109.253 40.0246C111.451 38.5681 113.847 37.8981 116.55 38.0146C118.143 38.0729 119.704 38.4516 121.319 39.1701C121.704 39.3352 122.1 39.374 122.429 39.2672C122.715 39.1798 122.946 38.9856 123.078 38.7137C123.363 38.1408 123.1 37.5873 122.374 37.2669L122.253 37.2086C121.748 36.9853 121.231 36.7523 120.693 36.6163C119.836 36.393 119.001 36.2085 118.11 36.0143C117.792 35.9463 117.484 35.8783 117.165 35.8006V35.7812C117.264 35.6647 117.352 35.5482 117.451 35.4219C118.693 33.8974 119.946 32.3729 121.187 30.8581L124.385 26.9448C126.166 24.7697 127.946 22.6043 129.715 20.4292C130.21 19.8175 130.408 19.2737 130.309 18.7591C130.21 18.2347 129.825 17.7686 129.111 17.3219C128.891 17.186 128.671 17.0501 128.451 16.9141C127.44 16.2829 126.737 16.0693 126.133 16.1664C125.517 16.2635 124.968 16.6811 124.286 17.5744L121.594 21.0604C117.473 26.3914 113.22 31.9068 109.011 37.3252C108.781 37.6262 108.44 37.8786 108.11 38.1214C107.978 38.2185 107.846 38.3156 107.726 38.4224L107.693 38.3933C108.594 36.7814 109.495 35.1695 110.396 33.5576L112.242 30.2658C114.605 26.0515 117.045 21.6819 119.418 17.3802C119.726 16.8267 119.847 16.1664 119.737 15.6615C119.583 14.9721 118.616 14.3409 117.759 13.9816C116.902 13.6223 115.748 13.3699 115.055 13.7C114.462 13.9913 114 14.5642 113.759 15.0012C110.934 20.3516 108.099 25.799 105.352 31.0717L103.154 35.286C103.077 35.4219 103 35.5676 102.912 35.7327L102.879 35.7909V35.7715C102.824 35.6453 102.791 35.5482 102.747 35.4511C101.022 30.4114 95.7363 26.9351 89.846 26.9351C89.7801 26.9351 89.7141 26.9351 89.6592 26.9351C83.5491 27.0128 78.2083 30.6639 76.6698 35.8201C76.5489 36.2279 76.3401 36.4221 75.8786 36.5775C71.1861 38.1894 68.252 41.1899 67.175 45.5109C67.0981 45.812 67.0432 46.113 66.9772 46.4334C66.9553 46.5499 66.9333 46.6665 66.9113 46.783C66.7355 46.783 66.5706 46.783 66.4058 46.783C65.9772 46.783 65.5596 46.783 65.142 46.783C64.4497 46.7927 63.9002 47.0063 63.5376 47.385C63.1859 47.754 63.0431 48.259 63.142 48.8416C63.3617 50.1719 63.5705 51.376 63.8453 52.5897C64.9772 57.6585 67.2739 62.2515 70.6586 66.2424C72.9554 68.9516 75.7797 71.3015 79.0325 73.2241C79.4061 73.4475 79.6149 73.6514 79.593 74.0592C79.538 75.0108 79.505 75.8653 79.6259 76.7198C79.6809 77.1568 79.8567 77.9725 80.3622 78.4677C80.7468 78.8464 81.2743 79.1183 81.7908 79.3805C82.0106 79.4873 82.2304 79.6038 82.4392 79.73L82.4722 79.7495H114.099C114.099 79.7495 114.154 79.7106 114.187 79.6912C114.242 79.6621 114.286 79.6426 114.341 79.6232C116.044 79.1183 116.891 78.157 116.99 76.6033C117.045 75.7197 117.045 74.9623 116.99 74.2728C116.946 73.7485 117.143 73.4378 117.693 73.1076C121.396 70.9228 124.539 68.1359 127.034 64.8247C130.517 60.2026 132.605 54.9785 133.408 48.8416C133.485 48.2395 133.342 47.7249 132.979 47.3656L132.935 47.3753ZM127.693 19.264C127.594 19.3902 127.506 19.5165 127.407 19.633L124.275 23.4491C121.155 27.2556 117.924 31.198 114.77 35.0918C114.308 35.655 113.814 36.1599 112.847 36.1599C117.429 30.2366 121.979 24.3328 126.583 18.3804L127.803 19.1281L127.704 19.264H127.693ZM93.6043 43.9767C95.0329 42.258 98.055 41.3549 100.484 41.9084C103.308 42.559 105.407 44.4914 105.726 46.7247C105.726 46.7247 105.726 46.7441 105.726 46.7636H103.923C103.11 44.5982 101.517 43.4718 99.1649 43.3941C99.088 43.3941 99.0001 43.3941 98.9232 43.3941C96.6264 43.3941 94.989 44.4719 94.0439 46.6082L93.956 46.2683C93.7802 45.5789 93.6153 44.938 93.4615 44.2874C93.4505 44.2195 93.5054 44.1029 93.6153 43.9767H93.6043ZM91.3186 40.6169C94.7252 38.0534 98.4506 37.3446 102.385 38.4904C106.693 39.7527 109.209 42.4619 110.088 46.7927C109.945 46.7927 109.814 46.7927 109.682 46.7927C109.253 46.7927 108.836 46.8024 108.44 46.7636C108.352 46.7636 108.165 46.5402 108.121 46.3654C107.297 43.0542 105.088 40.8985 101.55 39.9566C100.605 39.7042 99.6704 39.5779 98.7693 39.5779C96.6264 39.5779 94.6044 40.2771 92.7362 41.6851C92.6592 41.7433 92.5933 41.8016 92.5164 41.8502C92.4614 41.889 92.4065 41.9375 92.3625 41.9764C92.3625 41.9764 92.3515 41.9764 92.3296 41.9861L91.3186 40.6072V40.6169ZM89.5932 32.839C92.0548 32.7225 94.6044 34.0722 95.8571 36.1502C95.7363 36.1891 95.6154 36.2182 95.5055 36.257C95.1099 36.3736 94.7362 36.4804 94.3626 36.558C94.2417 36.5775 93.9999 36.4804 93.901 36.3638C92.7801 35.1306 91.3076 34.4606 89.7471 34.4606C88.1756 34.4606 86.703 35.1403 85.5821 36.3833C85.4832 36.4998 85.2305 36.5969 85.1206 36.5775C84.7469 36.5095 84.3733 36.393 83.9777 36.2764C83.8568 36.2376 83.7359 36.1988 83.6041 36.1599C84.9338 34.0625 86.9008 32.9749 89.6042 32.839H89.5932ZM89.5822 36.6066C90.4394 36.5678 91.2746 36.927 91.846 37.5776L89.6921 39.0245L87.6042 37.6165C88.0657 37.0047 88.78 36.6357 89.5822 36.5969V36.6066ZM99.8902 35.8977C99.4397 35.888 99.0221 35.8783 98.5935 35.8298C98.4616 35.8104 98.2748 35.6453 98.1979 35.4996C96.8352 33.0429 94.6044 31.4893 91.5603 30.8872C87.7141 30.1201 83.3293 31.9359 81.582 35.0044C81.2194 35.6356 80.8787 35.9657 80.0765 35.8686C79.8347 35.8395 79.593 35.8686 79.3622 35.8977C79.3072 35.8977 79.2413 35.9075 79.1864 35.9172C80.2193 32.5477 84.2085 29.0811 89.7251 29.0811C89.824 29.0811 89.9229 29.0811 90.0328 29.0811C95.8901 29.2171 99.5056 33.1109 100.275 35.9075C100.154 35.9075 100.033 35.9075 99.9122 35.8977H99.8902ZM80.4391 37.9855C85.4173 37.9855 90.9999 41.2967 91.5273 46.7344H89.7361C89.2965 44.2971 87.9009 42.3648 85.6041 40.9762C84.0876 40.0635 82.3403 39.5974 80.4172 39.5974C80.3622 39.5974 80.2963 39.5974 80.2413 39.5974C76.5379 39.6556 72.1312 41.9181 71.1532 46.7539H69.4278C69.5927 43.1125 73.406 38.0923 80.2853 37.9855C80.3402 37.9855 80.3952 37.9855 80.4501 37.9855H80.4391ZM80.3402 41.7433C83.7249 41.6754 86.725 43.8602 87.2305 46.7636C87.1756 46.7636 87.1206 46.783 87.0657 46.783C86.0107 46.851 85.3404 46.8121 84.8568 45.7537C84.1535 44.2389 82.593 43.3844 80.538 43.3844C80.4501 43.3844 80.3512 43.3844 80.2523 43.3844C78.1094 43.4621 76.5709 44.4428 75.7027 46.278C75.6478 46.4043 75.5928 46.5208 75.5489 46.647C75.5379 46.6859 75.5159 46.7247 75.5049 46.7539H73.7137C73.9994 44.0544 76.9445 41.821 80.3512 41.7336L80.3402 41.7433ZM82.7359 46.7539H78.1204C78.6149 45.9479 79.3842 45.5304 80.4501 45.5012C80.4831 45.5012 80.5161 45.5012 80.549 45.5012C81.5051 45.5012 82.2963 45.9576 82.7469 46.7539H82.7359ZM98.8133 45.5109C98.8682 45.5109 98.9341 45.5109 98.9891 45.5109C99.9781 45.5109 100.791 45.977 101.22 46.783C101.176 46.783 101.143 46.783 101.099 46.783C99.8792 46.783 98.6594 46.783 97.4396 46.783H96.6703C96.9451 46.0547 97.7693 45.5595 98.8133 45.5012V45.5109ZM104.868 37.0436L115.99 15.7392L117.352 16.2927L105.561 37.3737L104.879 37.0533L104.868 37.0436ZM111.495 43.2193C113.605 41.6948 115.924 41.3355 118.396 42.122C120.759 42.8892 122.242 44.4428 122.814 46.7636H120.968C120.319 44.9672 119.045 43.8602 117.143 43.4912C115.253 43.1125 113.572 43.598 112.143 44.9283L111.495 43.2193ZM115.77 45.5206C116.858 45.4138 117.726 45.8411 118.33 46.7539H113.748C114.033 46.0547 114.759 45.608 115.77 45.5206ZM90.1976 71.9132H90.0108C89.846 71.9132 89.6921 71.9132 89.5273 71.9132C88.7251 71.9424 88.1976 72.3502 88.1976 72.9522C88.1976 73.5543 88.7031 73.9718 89.5053 74.0301C89.6702 74.0398 89.824 74.0301 89.9888 74.0301H114.528C114.528 74.2825 114.528 74.5253 114.528 74.7681C114.528 75.3798 114.539 75.9527 114.506 76.5256C114.473 77.1859 114.044 77.5452 113.242 77.5841C113.121 77.5841 113.011 77.5841 112.88 77.5841H112.737C103.055 77.5841 93.3736 77.5841 83.681 77.5841C82.2634 77.5841 81.9337 77.2927 81.9337 76.0498C81.9337 75.4089 81.9337 74.7584 81.9557 74.1175C81.9557 74.1175 81.9667 74.0883 81.9776 74.0689C81.9776 74.0592 81.9886 74.0398 81.9996 74.0204H82.5271C82.9996 74.0204 83.4942 74.0204 83.9887 74.0204C84.9118 74.0009 85.4613 73.6222 85.4722 72.9717C85.4722 72.6901 85.3843 72.4473 85.1865 72.2725C84.9338 72.0395 84.5052 71.9035 83.9557 71.9035C83.9118 71.9035 83.8568 71.9035 83.8129 71.9035C83.692 71.9035 83.5601 71.8938 83.4282 71.9035C81.6919 72.1851 80.3292 71.554 78.8127 70.515C72.4609 66.155 68.263 60.2512 66.3618 52.9782C66.142 52.1431 65.9662 51.308 65.7794 50.3952C65.7135 50.0554 65.6585 49.7058 65.6146 49.3368C65.5926 49.2008 65.5816 49.0649 65.5596 48.929H130.902C130.517 51.9974 129.682 54.9979 128.396 57.843C126.429 62.2321 123.561 65.922 119.88 68.8157C118.781 69.6799 117.561 70.4664 116.385 71.2238C116.132 71.3889 115.869 71.554 115.616 71.719C115.396 71.8647 115.001 71.8841 114.715 71.8841C107.704 71.8841 100.703 71.8841 93.6922 71.8841H90.1867L90.1976 71.9132Z" fill="#FF5936"/>
</g>
<path d="M98.2609 90.7513V92.8713H102.921V90.7513H98.2609ZM98.2609 94.7313V96.8513H103.001V94.7313H98.2609ZM90.0809 89.3313V98.3913H98.8409V89.3313H90.0809ZM96.2209 91.4313V96.3113H92.7009V91.4313H96.2209ZM102.161 87.8713V101.351H104.821V87.8713H102.161ZM92.5609 103.931V106.051H105.221V103.931H92.5609ZM92.5609 100.071V105.031H95.2409V100.071H92.5609Z" fill="#FF5936"/>
<defs>
<clipPath id="clip0_951_7527">
<rect width="70.2986" height="66.1951" fill="white" transform="translate(63.0869 13.564)"/>
</clipPath>
</defs>
</svg>
