<svg width="282" height="100" viewBox="0 0 282 100" fill="none" xmlns="http://www.w3.org/2000/svg">
<path d="M279.611 50C279.611 56.2883 276.033 62.4837 269.1 68.3143C262.175 74.1386 252.065 79.4512 239.441 83.9421C214.205 92.9192 179.244 98.5 140.556 98.5C101.867 98.5 66.906 92.9192 41.6705 83.9421C29.0461 79.4512 18.9361 74.1386 12.011 68.3143C5.0785 62.4837 1.5 56.2883 1.5 50C1.5 43.7117 5.0785 37.5163 12.011 31.6857C18.9361 25.8614 29.0461 20.5488 41.6705 16.0579C66.906 7.08084 101.867 1.5 140.556 1.5C179.244 1.5 214.205 7.08084 239.441 16.0579C252.065 20.5488 262.175 25.8614 269.1 31.6857C276.033 37.5163 279.611 43.7117 279.611 50Z" fill="white" stroke="#FF5936" stroke-width="3"/>
<g clip-path="url(#clip0_1100_7791)">
<path d="M85.4001 46.6779C85.4001 50.7335 83.9223 53.2668 81.8557 55.2446L86.3779 66.9335H71.8557L69.1112 58.9557H69.0668V66.9779H55.5557V33.9668H68.5112C80.589 33.9668 85.3557 38.2335 85.4001 46.6779ZM66.3223 44.9001L65.5668 45.9557C67.9334 47.4779 73.289 48.2779 76.4557 48.2779V47.1001C73.289 47.1001 68.389 46.1668 66.3223 44.9001Z" fill="#FF5936"/>
<path d="M114.033 66.9779H87.9443V33.9668H114.033V43.889H100.611V45.3668H114.033V55.5779H100.611V57.0557H114.033V66.9779Z" fill="#FF5936"/>
<path d="M116.611 50.4668C116.611 39.2002 122.522 33.3335 133.367 33.3335C138.556 33.3335 142.567 34.6779 146.367 37.5557V50.1779C139.822 50.1779 134.756 49.6668 127.711 48.2779V49.5446C134.3 51.0668 140.245 51.4446 146.367 51.4446V62.5446C141.889 66.4668 137.756 67.6113 131.678 67.6113C122.522 67.6113 116.611 61.7891 116.611 50.4668Z" fill="#FF5936"/>
<path d="M163.089 33.9668V66.9779H149.033V33.9668H163.089Z" fill="#FF5936"/>
<path d="M195.978 47.5224C195.978 56.4668 190.534 61.1557 180.489 60.6557V66.989H166.134V33.9668H179.089C191.167 33.9668 195.978 37.4668 195.978 47.5224ZM187.034 49.3335V48.1557C183.867 48.1557 178.967 47.2224 176.9 45.9557L176.145 47.0112C178.512 48.5335 183.867 49.3335 187.034 49.3335Z" fill="#FF5936"/>
<path d="M224.566 66.9779H198.478V33.9668H224.566V43.889H211.144V45.3668H224.566V55.5779H211.144V57.0557H224.566V66.9779Z" fill="#FF5936"/>
</g>
<defs>
<clipPath id="clip0_1100_7791">
<rect width="169.011" height="34.2778" fill="white" transform="translate(55.5557 33.3335)"/>
</clipPath>
</defs>
</svg>
