<svg width="196" height="119" viewBox="0 0 196 119" fill="none" xmlns="http://www.w3.org/2000/svg">
<rect width="195.566" height="118.172" rx="59.0858" fill="#FFE053"/>
<g clip-path="url(#clip0_951_7523)">
<path d="M88.1756 25.178C88.5275 25.178 88.8794 25.0152 89.1323 24.7362C89.3852 24.4572 89.5172 24.0968 89.4952 23.7364C89.4622 23.0157 88.8574 22.4111 88.1756 22.4111C88.1756 22.4111 88.1536 22.4111 88.1426 22.4111C87.4279 22.4344 86.8671 23.0389 86.8781 23.8062C86.8781 24.5735 87.4499 25.1664 88.1756 25.178Z" fill="#FF5936"/>
<path d="M83.381 30.2348C83.381 30.2348 83.403 30.2348 83.414 30.2348C84.0848 30.2348 84.6896 29.6186 84.7226 28.8862C84.7556 28.1189 84.2057 27.4912 83.48 27.4563C83.1061 27.4447 82.7542 27.5725 82.5013 27.8283C82.2484 28.0841 82.1055 28.4328 82.1055 28.8165C82.1055 29.5605 82.6883 30.1999 83.381 30.2231V30.2348Z" fill="#FF5936"/>
<path d="M110.432 31.072C110.432 31.072 110.454 31.072 110.465 31.072C111.18 31.0488 111.741 30.4443 111.73 29.677C111.73 28.9213 111.136 28.3052 110.432 28.3052C110.091 28.3052 109.75 28.4679 109.486 28.7586C109.234 29.0376 109.091 29.4096 109.113 29.77C109.146 30.514 109.728 31.0836 110.432 31.0836V31.072Z" fill="#FF5936"/>
<path d="M131.281 40.3723H131.27H129.126C129.324 37.6403 128.191 35.1176 125.992 33.5133C125.651 33.2691 125.541 33.025 125.552 32.56C125.618 28.9794 123.562 26.0032 120.318 24.9802C119.922 24.8523 119.746 24.6663 119.625 24.2246C118.679 20.8764 115.974 18.749 112.686 18.749C112.621 18.749 112.566 18.749 112.5 18.749C112.489 18.749 112.467 18.749 112.456 18.749C112.038 18.749 111.796 18.6095 111.554 18.2375C109.674 15.3311 106.309 14.1802 103.175 15.366C102.757 15.5288 102.493 15.4823 102.119 15.18C99.4911 13.0409 95.9503 13.0409 93.3112 15.18C92.9593 15.4706 92.6844 15.5055 92.2556 15.3427C89.1327 14.1686 85.7678 15.3427 83.8875 18.2375C83.6566 18.5979 83.4146 18.7374 82.9858 18.7374C82.9088 18.7374 82.8318 18.7374 82.7549 18.7374C79.489 18.7374 76.7729 20.8764 75.8273 24.2362C75.7063 24.6663 75.5304 24.864 75.1235 24.9802C71.8796 25.9916 69.8343 28.9677 69.9003 32.5716C69.9003 33.0134 69.7904 33.2575 69.4385 33.5133C67.1293 35.2687 66.0846 37.6287 66.3376 40.3723H64.0394C62.9507 40.628 62.3789 41.5464 62.5549 42.7903C62.7748 44.3946 62.9837 45.8362 63.2586 47.2777C64.3912 53.3462 66.6894 58.845 70.0763 63.6115C72.3745 66.8549 75.2005 69.6683 78.4444 71.9585C78.8182 72.2143 79.0052 72.4468 78.9832 72.935C78.9392 73.8651 78.8842 75.0276 79.0162 76.1204C79.0711 76.6552 79.2581 77.6317 79.7639 78.2362C80.1488 78.7012 80.6876 79.0267 81.1934 79.3406C81.4133 79.4801 81.6333 79.608 81.8422 79.7475L81.8752 79.7708H113.5C113.5 79.7708 113.555 79.7243 113.577 79.701C113.632 79.6661 113.676 79.6429 113.731 79.6196C115.447 79.0151 116.293 77.8526 116.392 75.9809C116.447 74.923 116.447 74.0162 116.392 73.1908C116.348 72.5863 116.546 72.2143 117.085 71.8306C120.791 69.2149 123.936 65.8784 126.432 61.9141C129.918 56.3921 131.996 50.126 132.799 42.7903C132.941 41.4999 132.381 40.628 131.281 40.3839V40.3723ZM71.3078 35.571C72.7263 34.7688 72.8033 34.6177 72.6054 32.9552C72.2865 30.3046 73.9799 27.9214 76.465 27.5146C77.7626 27.3053 77.9825 27.0844 78.2134 25.7475C78.7303 22.8063 80.8525 21.1903 83.6456 21.6088C84.8111 21.7948 85.152 21.6088 85.7128 20.4928C87.0434 17.8422 89.5615 16.9936 92.1346 18.3189C93.1683 18.8536 93.5201 18.7955 94.3558 17.9352C96.4121 15.8194 99.0622 15.8078 101.097 17.9236C101.954 18.8071 102.273 18.8536 103.373 18.284C105.913 16.9703 108.409 17.819 109.74 20.4696C110.311 21.5972 110.663 21.7948 111.862 21.5972C114.501 21.1671 116.689 22.7946 117.206 25.5731C117.492 27.1425 117.602 27.2588 119.108 27.5262C121.505 27.9563 123.188 30.386 122.847 32.932C122.627 34.5944 122.715 34.7688 124.112 35.5477C125.739 36.4545 126.663 38.4308 126.465 40.3606H68.9766C68.7677 38.4424 69.6914 36.4777 71.3078 35.5593V35.571ZM127.795 53.5787C125.827 58.8218 122.968 63.2278 119.295 66.6806C118.196 67.7152 116.986 68.6453 115.809 69.552C115.556 69.7497 115.293 69.9473 115.04 70.1449C114.82 70.3193 114.435 70.3309 114.16 70.3309C107.155 70.3309 100.162 70.3309 93.1573 70.3309H89.4735C89.3196 70.3309 89.1546 70.3309 89.0007 70.3309C88.187 70.3658 87.6482 70.8657 87.6482 71.6097C87.6482 72.3421 88.165 72.8653 88.9787 72.935C89.1436 72.935 89.2976 72.935 89.4625 72.935H113.951C113.951 73.2257 113.951 73.5163 113.951 73.7953C113.951 74.5277 113.962 75.2136 113.929 75.8879C113.896 76.6784 113.489 77.0853 112.697 77.1318C112.588 77.1318 112.467 77.1318 112.357 77.1318H83.1507C81.7542 77.1318 81.4353 76.7947 81.4353 75.3182C81.4353 74.6207 81.4353 73.9348 81.4463 73.2373V73.0164C81.4463 73.0164 81.4573 72.9815 81.4683 72.9583C81.4683 72.9467 81.4683 72.935 81.4903 72.9234H81.9961C82.469 72.9234 82.9638 72.9234 83.4586 72.9234C84.4043 72.9002 84.9541 72.4351 84.9761 71.6446C84.9761 71.2958 84.8881 71.0052 84.6792 70.7843C84.4153 70.4937 83.9864 70.3426 83.4366 70.3309C83.3926 70.3309 83.3377 70.3309 83.2937 70.3309C83.1617 70.3309 83.0298 70.3193 82.8978 70.3309C81.1714 70.6681 79.8079 69.9124 78.3124 68.6801C71.9676 63.4719 67.7781 56.4269 65.8757 47.7311C65.6558 46.7197 65.4799 45.6967 65.2929 44.6388C65.2269 44.2319 65.172 43.8134 65.128 43.3832C65.106 43.2321 65.095 43.081 65.073 42.9298H130.28C129.896 46.5802 129.06 50.1492 127.784 53.5555L127.795 53.5787Z" fill="#FF5936"/>
</g>
<path d="M100.675 87.8513V98.0113H103.335V87.8513H100.675ZM102.595 91.7513V93.9313H105.795V91.7513H102.595ZM89.2954 88.7713V97.3513H98.1954V88.7713H95.5554V90.9913H91.9354V88.7713H89.2954ZM91.9354 93.0313H95.5554V95.2513H91.9354V93.0313ZM91.2354 98.8113V106.171H103.335V98.8113H100.695V100.431H93.8754V98.8113H91.2354ZM93.8754 102.471H100.695V104.071H93.8754V102.471Z" fill="#FF5936"/>
<defs>
<clipPath id="clip0_951_7523">
<rect width="70.2986" height="66.1951" fill="white" transform="translate(62.5215 13.564)"/>
</clipPath>
</defs>
</svg>
